G04 EAGLE Gerber RS-274X export*
G75*
%MOMM*%
%FSLAX34Y34*%
%LPD*%
%AMOC8*
5,1,8,0,0,1.08239X$1,22.5*%
G01*
%ADD10C,0.222250*%
%ADD11R,1.350000X0.600000*%
%ADD12R,2.000000X1.200000*%
%ADD13R,0.400000X1.200000*%
%ADD14R,0.400000X1.000000*%


D10*
X122990Y126084D02*
X116322Y126084D01*
X116322Y132752D01*
X122990Y132752D01*
X122990Y126084D01*
X122990Y128196D02*
X116322Y128196D01*
X116322Y130308D02*
X122990Y130308D01*
X122990Y132420D02*
X116322Y132420D01*
X131562Y126084D02*
X138230Y126084D01*
X131562Y126084D02*
X131562Y132752D01*
X138230Y132752D01*
X138230Y126084D01*
X138230Y128196D02*
X131562Y128196D01*
X131562Y130308D02*
X138230Y130308D01*
X138230Y132420D02*
X131562Y132420D01*
D11*
X52000Y115000D03*
X52000Y105000D03*
X52000Y95000D03*
X52000Y85000D03*
D12*
X15250Y72000D03*
X15250Y128000D03*
D11*
X201200Y85000D03*
X201200Y95000D03*
X201200Y105000D03*
X201200Y115000D03*
D12*
X237950Y128000D03*
X237950Y72000D03*
D10*
X121724Y70018D02*
X115056Y70018D01*
X121724Y70018D02*
X121724Y63350D01*
X115056Y63350D01*
X115056Y70018D01*
X115056Y65462D02*
X121724Y65462D01*
X121724Y67574D02*
X115056Y67574D01*
X115056Y69686D02*
X121724Y69686D01*
X106484Y70018D02*
X99816Y70018D01*
X106484Y70018D02*
X106484Y63350D01*
X99816Y63350D01*
X99816Y70018D01*
X99816Y65462D02*
X106484Y65462D01*
X106484Y67574D02*
X99816Y67574D01*
X99816Y69686D02*
X106484Y69686D01*
X131460Y63346D02*
X138128Y63346D01*
X131460Y63346D02*
X131460Y70014D01*
X138128Y70014D01*
X138128Y63346D01*
X138128Y65458D02*
X131460Y65458D01*
X131460Y67570D02*
X138128Y67570D01*
X138128Y69682D02*
X131460Y69682D01*
X146700Y63346D02*
X153368Y63346D01*
X146700Y63346D02*
X146700Y70014D01*
X153368Y70014D01*
X153368Y63346D01*
X153368Y65458D02*
X146700Y65458D01*
X146700Y67570D02*
X153368Y67570D01*
X153368Y69682D02*
X146700Y69682D01*
D13*
X132770Y107564D03*
D14*
X126270Y108564D03*
X119770Y108564D03*
X119770Y89564D03*
X126270Y89564D03*
X132770Y89564D03*
M02*
