G04 EAGLE Gerber RS-274X export*
G75*
%MOMM*%
%FSLAX34Y34*%
%LPD*%
%AMOC8*
5,1,8,0,0,1.08239X$1,22.5*%
G01*
%ADD10C,3.101600*%
%ADD11C,0.326897*%
%ADD12R,1.752600X1.752600*%
%ADD13C,1.752600*%
%ADD14R,1.451600X0.701600*%
%ADD15R,2.101600X1.301600*%
%ADD16R,0.501600X1.301600*%
%ADD17R,0.501600X1.101600*%


D10*
X25000Y25000D03*
X228200Y25000D03*
D11*
X122975Y126099D02*
X116337Y126099D01*
X116337Y132737D01*
X122975Y132737D01*
X122975Y126099D01*
X122975Y129205D02*
X116337Y129205D01*
X116337Y132311D02*
X122975Y132311D01*
X131577Y126099D02*
X138215Y126099D01*
X131577Y126099D02*
X131577Y132737D01*
X138215Y132737D01*
X138215Y126099D01*
X138215Y129205D02*
X131577Y129205D01*
X131577Y132311D02*
X138215Y132311D01*
D12*
X75800Y15000D03*
D13*
X101200Y15000D03*
X126600Y15000D03*
X152000Y15000D03*
X177400Y15000D03*
D14*
X52000Y115000D03*
X52000Y105000D03*
X52000Y95000D03*
X52000Y85000D03*
D15*
X15250Y72000D03*
X15250Y128000D03*
D14*
X201200Y85000D03*
X201200Y95000D03*
X201200Y105000D03*
X201200Y115000D03*
D15*
X237950Y128000D03*
X237950Y72000D03*
D11*
X121709Y70003D02*
X115071Y70003D01*
X121709Y70003D02*
X121709Y63365D01*
X115071Y63365D01*
X115071Y70003D01*
X115071Y66471D02*
X121709Y66471D01*
X121709Y69577D02*
X115071Y69577D01*
X106469Y70003D02*
X99831Y70003D01*
X106469Y70003D02*
X106469Y63365D01*
X99831Y63365D01*
X99831Y70003D01*
X99831Y66471D02*
X106469Y66471D01*
X106469Y69577D02*
X99831Y69577D01*
X131475Y63361D02*
X138113Y63361D01*
X131475Y63361D02*
X131475Y69999D01*
X138113Y69999D01*
X138113Y63361D01*
X138113Y66467D02*
X131475Y66467D01*
X131475Y69573D02*
X138113Y69573D01*
X146715Y63361D02*
X153353Y63361D01*
X146715Y63361D02*
X146715Y69999D01*
X153353Y69999D01*
X153353Y63361D01*
X153353Y66467D02*
X146715Y66467D01*
X146715Y69573D02*
X153353Y69573D01*
D16*
X132770Y107564D03*
D17*
X126270Y108564D03*
X119770Y108564D03*
X119770Y89564D03*
X126270Y89564D03*
X132770Y89564D03*
M02*
