G04 EAGLE Gerber RS-274X export*
G75*
%MOMM*%
%FSLAX34Y34*%
%LPD*%
%AMOC8*
5,1,8,0,0,1.08239X$1,22.5*%
G01*
%ADD10C,0.222250*%
%ADD11R,1.651000X1.651000*%
%ADD12C,1.651000*%
%ADD13R,1.350000X0.600000*%
%ADD14R,2.000000X1.200000*%
%ADD15R,0.400000X1.200000*%
%ADD16R,0.400000X1.000000*%
%ADD17C,0.609600*%
%ADD18C,0.203200*%
%ADD19C,0.304800*%

G36*
X144431Y5215D02*
X144431Y5215D01*
X144483Y5214D01*
X144562Y5235D01*
X144643Y5248D01*
X144690Y5270D01*
X144739Y5284D01*
X144809Y5328D01*
X144883Y5363D01*
X144920Y5398D01*
X144964Y5426D01*
X145017Y5489D01*
X145077Y5545D01*
X145102Y5589D01*
X145136Y5629D01*
X145168Y5704D01*
X145209Y5775D01*
X145220Y5826D01*
X145240Y5873D01*
X145249Y5955D01*
X145267Y6035D01*
X145262Y6086D01*
X145268Y6138D01*
X145252Y6218D01*
X145245Y6300D01*
X145226Y6348D01*
X145216Y6398D01*
X145188Y6442D01*
X145146Y6547D01*
X145033Y6686D01*
X145008Y6724D01*
X143765Y7967D01*
X142767Y9342D01*
X141995Y10856D01*
X141470Y12472D01*
X141351Y13223D01*
X151111Y13223D01*
X151212Y13238D01*
X151315Y13246D01*
X151343Y13258D01*
X151374Y13263D01*
X151466Y13307D01*
X151561Y13345D01*
X151585Y13365D01*
X151613Y13378D01*
X151688Y13448D01*
X151768Y13513D01*
X151785Y13539D01*
X151807Y13560D01*
X151858Y13649D01*
X151915Y13734D01*
X151920Y13758D01*
X151939Y13790D01*
X151997Y14050D01*
X151994Y14088D01*
X151999Y14111D01*
X151999Y15001D01*
X152001Y15001D01*
X152001Y14111D01*
X152016Y14009D01*
X152025Y13907D01*
X152036Y13879D01*
X152041Y13848D01*
X152085Y13756D01*
X152124Y13660D01*
X152143Y13637D01*
X152156Y13609D01*
X152226Y13534D01*
X152291Y13454D01*
X152317Y13437D01*
X152338Y13415D01*
X152427Y13364D01*
X152512Y13307D01*
X152536Y13301D01*
X152569Y13283D01*
X152828Y13225D01*
X152866Y13228D01*
X152889Y13223D01*
X162649Y13223D01*
X162530Y12472D01*
X162005Y10856D01*
X161233Y9342D01*
X160235Y7967D01*
X158992Y6724D01*
X158961Y6683D01*
X158923Y6647D01*
X158882Y6576D01*
X158834Y6510D01*
X158817Y6461D01*
X158791Y6417D01*
X158773Y6337D01*
X158746Y6259D01*
X158745Y6207D01*
X158733Y6157D01*
X158740Y6075D01*
X158737Y5993D01*
X158751Y5944D01*
X158755Y5892D01*
X158786Y5816D01*
X158807Y5737D01*
X158835Y5693D01*
X158854Y5645D01*
X158906Y5582D01*
X158950Y5513D01*
X158989Y5479D01*
X159022Y5439D01*
X159090Y5394D01*
X159152Y5341D01*
X159200Y5320D01*
X159243Y5292D01*
X159293Y5280D01*
X159397Y5236D01*
X159575Y5218D01*
X159620Y5208D01*
X170858Y5208D01*
X170909Y5215D01*
X170961Y5214D01*
X171040Y5235D01*
X171121Y5248D01*
X171167Y5270D01*
X171217Y5284D01*
X171286Y5328D01*
X171360Y5363D01*
X171398Y5398D01*
X171441Y5426D01*
X171495Y5489D01*
X171554Y5545D01*
X171580Y5589D01*
X171613Y5629D01*
X171646Y5704D01*
X171686Y5775D01*
X171698Y5826D01*
X171718Y5873D01*
X171726Y5955D01*
X171744Y6035D01*
X171740Y6086D01*
X171745Y6138D01*
X171729Y6218D01*
X171723Y6300D01*
X171703Y6348D01*
X171693Y6398D01*
X171666Y6442D01*
X171624Y6547D01*
X171511Y6686D01*
X171486Y6724D01*
X168894Y9316D01*
X167366Y13004D01*
X167366Y16996D01*
X168894Y20684D01*
X171716Y23506D01*
X175404Y25034D01*
X179396Y25034D01*
X183084Y23506D01*
X185906Y20684D01*
X187434Y16996D01*
X187434Y13004D01*
X185906Y9316D01*
X183314Y6724D01*
X183283Y6683D01*
X183246Y6647D01*
X183205Y6576D01*
X183156Y6510D01*
X183139Y6461D01*
X183114Y6417D01*
X183096Y6337D01*
X183069Y6259D01*
X183067Y6207D01*
X183056Y6157D01*
X183062Y6075D01*
X183060Y5993D01*
X183073Y5944D01*
X183077Y5892D01*
X183108Y5816D01*
X183130Y5737D01*
X183157Y5693D01*
X183176Y5645D01*
X183228Y5582D01*
X183272Y5513D01*
X183311Y5479D01*
X183344Y5439D01*
X183412Y5394D01*
X183475Y5341D01*
X183522Y5320D01*
X183565Y5292D01*
X183616Y5280D01*
X183719Y5236D01*
X183898Y5218D01*
X183942Y5208D01*
X219044Y5208D01*
X219135Y5222D01*
X219227Y5227D01*
X219266Y5241D01*
X219307Y5248D01*
X219390Y5288D01*
X219476Y5320D01*
X219509Y5345D01*
X219546Y5363D01*
X219614Y5426D01*
X219686Y5483D01*
X219710Y5516D01*
X219740Y5545D01*
X219786Y5625D01*
X219839Y5700D01*
X219852Y5740D01*
X219872Y5775D01*
X219892Y5865D01*
X219921Y5953D01*
X219921Y5995D01*
X219930Y6035D01*
X219922Y6127D01*
X219923Y6219D01*
X219912Y6259D01*
X219908Y6300D01*
X219874Y6385D01*
X219848Y6474D01*
X219825Y6508D01*
X219809Y6547D01*
X219751Y6618D01*
X219700Y6695D01*
X219674Y6713D01*
X219642Y6753D01*
X219421Y6900D01*
X219401Y6905D01*
X219384Y6917D01*
X216825Y7976D01*
X211176Y13625D01*
X208119Y21006D01*
X208119Y28994D01*
X211176Y36375D01*
X216825Y42024D01*
X224206Y45081D01*
X232194Y45081D01*
X239575Y42024D01*
X245224Y36375D01*
X246283Y33816D01*
X246331Y33737D01*
X246371Y33654D01*
X246399Y33624D01*
X246421Y33589D01*
X246490Y33527D01*
X246553Y33460D01*
X246589Y33439D01*
X246619Y33412D01*
X246703Y33374D01*
X246783Y33328D01*
X246824Y33319D01*
X246861Y33302D01*
X246953Y33290D01*
X247043Y33270D01*
X247084Y33273D01*
X247125Y33268D01*
X247216Y33284D01*
X247308Y33292D01*
X247346Y33307D01*
X247387Y33314D01*
X247469Y33356D01*
X247555Y33391D01*
X247587Y33417D01*
X247623Y33435D01*
X247689Y33500D01*
X247761Y33558D01*
X247784Y33593D01*
X247813Y33621D01*
X247857Y33703D01*
X247908Y33779D01*
X247915Y33810D01*
X247940Y33855D01*
X247991Y34116D01*
X247988Y34136D01*
X247992Y34156D01*
X247992Y62571D01*
X247977Y62673D01*
X247969Y62775D01*
X247957Y62803D01*
X247952Y62834D01*
X247908Y62926D01*
X247870Y63022D01*
X247850Y63045D01*
X247837Y63073D01*
X247767Y63148D01*
X247702Y63228D01*
X247676Y63245D01*
X247655Y63267D01*
X247566Y63318D01*
X247481Y63375D01*
X247457Y63381D01*
X247425Y63399D01*
X247165Y63457D01*
X247127Y63454D01*
X247104Y63459D01*
X239727Y63459D01*
X239727Y71111D01*
X239712Y71212D01*
X239703Y71315D01*
X239692Y71343D01*
X239687Y71374D01*
X239643Y71466D01*
X239604Y71561D01*
X239585Y71585D01*
X239572Y71613D01*
X239502Y71688D01*
X239437Y71768D01*
X239411Y71785D01*
X239390Y71807D01*
X239301Y71858D01*
X239216Y71915D01*
X239192Y71920D01*
X239159Y71939D01*
X238900Y71997D01*
X238862Y71994D01*
X238839Y71999D01*
X237949Y71999D01*
X237949Y72001D01*
X238839Y72001D01*
X238940Y72016D01*
X239043Y72025D01*
X239071Y72036D01*
X239102Y72041D01*
X239194Y72085D01*
X239289Y72124D01*
X239313Y72143D01*
X239341Y72156D01*
X239416Y72226D01*
X239496Y72291D01*
X239513Y72317D01*
X239535Y72338D01*
X239586Y72427D01*
X239643Y72512D01*
X239648Y72536D01*
X239667Y72569D01*
X239725Y72828D01*
X239722Y72866D01*
X239727Y72889D01*
X239727Y80541D01*
X247104Y80541D01*
X247206Y80556D01*
X247308Y80564D01*
X247336Y80576D01*
X247367Y80581D01*
X247459Y80625D01*
X247555Y80663D01*
X247578Y80683D01*
X247606Y80696D01*
X247681Y80766D01*
X247761Y80831D01*
X247778Y80857D01*
X247800Y80878D01*
X247851Y80967D01*
X247908Y81052D01*
X247914Y81076D01*
X247932Y81108D01*
X247990Y81368D01*
X247987Y81406D01*
X247992Y81429D01*
X247992Y118571D01*
X247977Y118672D01*
X247969Y118775D01*
X247957Y118803D01*
X247952Y118834D01*
X247908Y118926D01*
X247870Y119022D01*
X247850Y119045D01*
X247837Y119073D01*
X247767Y119148D01*
X247702Y119228D01*
X247676Y119245D01*
X247655Y119267D01*
X247566Y119318D01*
X247481Y119375D01*
X247457Y119381D01*
X247425Y119399D01*
X247165Y119457D01*
X247127Y119454D01*
X247104Y119459D01*
X239727Y119459D01*
X239727Y127111D01*
X239712Y127212D01*
X239703Y127315D01*
X239692Y127343D01*
X239687Y127374D01*
X239643Y127466D01*
X239604Y127561D01*
X239585Y127585D01*
X239572Y127613D01*
X239502Y127688D01*
X239437Y127768D01*
X239411Y127785D01*
X239390Y127807D01*
X239301Y127858D01*
X239216Y127915D01*
X239192Y127920D01*
X239159Y127939D01*
X238900Y127997D01*
X238862Y127994D01*
X238839Y127999D01*
X237949Y127999D01*
X237949Y128889D01*
X237934Y128990D01*
X237925Y129093D01*
X237914Y129121D01*
X237909Y129152D01*
X237865Y129244D01*
X237826Y129339D01*
X237807Y129363D01*
X237794Y129391D01*
X237724Y129466D01*
X237659Y129546D01*
X237633Y129563D01*
X237612Y129585D01*
X237523Y129636D01*
X237438Y129693D01*
X237414Y129698D01*
X237381Y129717D01*
X237122Y129775D01*
X237084Y129772D01*
X237061Y129777D01*
X225409Y129777D01*
X225409Y134335D01*
X225582Y134981D01*
X225859Y135460D01*
X225884Y135524D01*
X225918Y135583D01*
X225932Y135647D01*
X225956Y135707D01*
X225961Y135776D01*
X225976Y135843D01*
X225971Y135908D01*
X225975Y135972D01*
X225960Y136039D01*
X225954Y136108D01*
X225930Y136168D01*
X225916Y136231D01*
X225881Y136291D01*
X225855Y136355D01*
X225814Y136405D01*
X225782Y136461D01*
X225731Y136507D01*
X225688Y136561D01*
X225634Y136597D01*
X225586Y136641D01*
X225524Y136670D01*
X225467Y136708D01*
X225423Y136718D01*
X225346Y136755D01*
X225103Y136789D01*
X225090Y136792D01*
X140421Y136792D01*
X140370Y136785D01*
X140318Y136786D01*
X140239Y136765D01*
X140158Y136752D01*
X140111Y136730D01*
X140062Y136716D01*
X139992Y136672D01*
X139919Y136637D01*
X139881Y136602D01*
X139837Y136574D01*
X139784Y136511D01*
X139724Y136455D01*
X139699Y136411D01*
X139665Y136371D01*
X139633Y136296D01*
X139592Y136225D01*
X139581Y136174D01*
X139561Y136127D01*
X139552Y136045D01*
X139535Y135965D01*
X139539Y135914D01*
X139533Y135862D01*
X139550Y135782D01*
X139556Y135700D01*
X139575Y135652D01*
X139585Y135602D01*
X139613Y135558D01*
X139655Y135453D01*
X139768Y135314D01*
X139793Y135276D01*
X141120Y133949D01*
X141120Y133609D01*
X141135Y133507D01*
X141143Y133405D01*
X141155Y133377D01*
X141160Y133346D01*
X141204Y133254D01*
X141242Y133158D01*
X141262Y133135D01*
X141275Y133107D01*
X141345Y133032D01*
X141410Y132952D01*
X141436Y132935D01*
X141457Y132913D01*
X141546Y132862D01*
X141631Y132805D01*
X141655Y132799D01*
X141687Y132781D01*
X141798Y132756D01*
X141814Y132749D01*
X141842Y132746D01*
X141947Y132723D01*
X141985Y132726D01*
X142008Y132721D01*
X142037Y132721D01*
X142057Y132724D01*
X142078Y132722D01*
X142179Y132742D01*
X142212Y132744D01*
X142223Y132749D01*
X142300Y132761D01*
X142318Y132770D01*
X142339Y132774D01*
X142378Y132798D01*
X142539Y132876D01*
X142621Y132953D01*
X142665Y132981D01*
X143797Y134113D01*
X147795Y134113D01*
X150623Y131285D01*
X150623Y127287D01*
X147795Y124459D01*
X143797Y124459D01*
X142636Y125620D01*
X142595Y125651D01*
X142559Y125688D01*
X142488Y125729D01*
X142422Y125778D01*
X142373Y125795D01*
X142329Y125820D01*
X142249Y125838D01*
X142171Y125865D01*
X142119Y125867D01*
X142069Y125878D01*
X141987Y125871D01*
X141905Y125874D01*
X141856Y125861D01*
X141804Y125856D01*
X141728Y125826D01*
X141649Y125804D01*
X141605Y125777D01*
X141557Y125757D01*
X141494Y125706D01*
X141425Y125662D01*
X141391Y125622D01*
X141351Y125590D01*
X141306Y125521D01*
X141253Y125459D01*
X141232Y125412D01*
X141204Y125369D01*
X141192Y125318D01*
X141148Y125215D01*
X141130Y125036D01*
X141120Y124992D01*
X141120Y124887D01*
X139427Y123194D01*
X136961Y123194D01*
X136859Y123179D01*
X136757Y123171D01*
X136729Y123159D01*
X136698Y123154D01*
X136606Y123110D01*
X136510Y123072D01*
X136487Y123052D01*
X136459Y123039D01*
X136384Y122969D01*
X136304Y122904D01*
X136287Y122878D01*
X136265Y122857D01*
X136214Y122768D01*
X136157Y122683D01*
X136151Y122659D01*
X136133Y122627D01*
X136075Y122367D01*
X136078Y122329D01*
X136073Y122306D01*
X136073Y115145D01*
X136076Y115124D01*
X136074Y115103D01*
X136096Y114993D01*
X136113Y114882D01*
X136122Y114863D01*
X136126Y114842D01*
X136150Y114804D01*
X136228Y114643D01*
X136305Y114560D01*
X136333Y114517D01*
X136549Y114301D01*
X136549Y100827D01*
X135507Y99785D01*
X134937Y99785D01*
X134812Y99766D01*
X134687Y99749D01*
X134681Y99747D01*
X134674Y99745D01*
X134560Y99690D01*
X134446Y99637D01*
X134441Y99633D01*
X134435Y99630D01*
X134342Y99543D01*
X134249Y99459D01*
X134246Y99453D01*
X134241Y99448D01*
X134178Y99339D01*
X134114Y99230D01*
X134112Y99223D01*
X134109Y99218D01*
X134081Y99095D01*
X134052Y98972D01*
X134052Y98965D01*
X134051Y98958D01*
X134061Y98832D01*
X134070Y98706D01*
X134072Y98701D01*
X134073Y98693D01*
X134172Y98446D01*
X134216Y98392D01*
X134232Y98356D01*
X134423Y98107D01*
X134438Y98093D01*
X134449Y98075D01*
X134534Y98001D01*
X134615Y97923D01*
X134634Y97914D01*
X134649Y97900D01*
X134692Y97884D01*
X134852Y97804D01*
X134964Y97785D01*
X135012Y97768D01*
X135091Y97757D01*
X135190Y97662D01*
X135255Y97629D01*
X135284Y97559D01*
X135295Y97541D01*
X135301Y97521D01*
X135363Y97427D01*
X135421Y97331D01*
X135437Y97317D01*
X135449Y97300D01*
X135486Y97274D01*
X135620Y97154D01*
X135723Y97108D01*
X135765Y97078D01*
X135838Y97048D01*
X135909Y96930D01*
X135964Y96881D01*
X135974Y96806D01*
X135979Y96786D01*
X135980Y96765D01*
X136016Y96659D01*
X136047Y96551D01*
X136059Y96533D01*
X136066Y96513D01*
X136095Y96478D01*
X136193Y96329D01*
X136280Y96257D01*
X136313Y96217D01*
X136376Y96169D01*
X136415Y96037D01*
X136465Y95959D01*
X136462Y95922D01*
X136472Y95869D01*
X136473Y95814D01*
X136498Y95739D01*
X136514Y95661D01*
X136535Y95628D01*
X136549Y95586D01*
X136549Y95459D01*
X136589Y95196D01*
X136611Y95150D01*
X136616Y95119D01*
X136685Y94952D01*
X136649Y94864D01*
X136640Y94827D01*
X136623Y94793D01*
X136618Y94740D01*
X136585Y94606D01*
X136594Y94461D01*
X136589Y94408D01*
X136656Y93901D01*
X136633Y93866D01*
X136626Y93838D01*
X136604Y93797D01*
X136550Y93537D01*
X136553Y93507D01*
X136549Y93489D01*
X136549Y83827D01*
X135825Y83103D01*
X135812Y83086D01*
X135796Y83073D01*
X135780Y83049D01*
X135767Y83037D01*
X135736Y82983D01*
X135734Y82980D01*
X135667Y82889D01*
X135660Y82870D01*
X135649Y82852D01*
X135641Y82816D01*
X135635Y82806D01*
X135629Y82779D01*
X135580Y82638D01*
X135576Y82526D01*
X135565Y82475D01*
X135565Y73792D01*
X135580Y73690D01*
X135588Y73588D01*
X135600Y73560D01*
X135605Y73529D01*
X135649Y73437D01*
X135687Y73341D01*
X135707Y73318D01*
X135720Y73290D01*
X135790Y73215D01*
X135855Y73135D01*
X135881Y73118D01*
X135902Y73096D01*
X135991Y73045D01*
X136076Y72988D01*
X136100Y72982D01*
X136132Y72964D01*
X136392Y72906D01*
X136430Y72909D01*
X136453Y72904D01*
X139325Y72904D01*
X141018Y71211D01*
X141018Y62149D01*
X139325Y60456D01*
X139268Y60456D01*
X139217Y60449D01*
X139166Y60450D01*
X139086Y60429D01*
X139005Y60416D01*
X138959Y60394D01*
X138909Y60380D01*
X138840Y60336D01*
X138766Y60301D01*
X138728Y60266D01*
X138685Y60238D01*
X138632Y60175D01*
X138572Y60119D01*
X138546Y60075D01*
X138513Y60035D01*
X138480Y59960D01*
X138440Y59889D01*
X138429Y59838D01*
X138408Y59791D01*
X138400Y59709D01*
X138382Y59629D01*
X138386Y59578D01*
X138381Y59526D01*
X138397Y59446D01*
X138404Y59364D01*
X138423Y59316D01*
X138433Y59266D01*
X138461Y59222D01*
X138503Y59117D01*
X138616Y58978D01*
X138640Y58940D01*
X139701Y57879D01*
X139701Y53881D01*
X137883Y52063D01*
X137852Y52022D01*
X137815Y51986D01*
X137774Y51915D01*
X137725Y51849D01*
X137708Y51800D01*
X137683Y51756D01*
X137665Y51676D01*
X137638Y51598D01*
X137636Y51546D01*
X137625Y51496D01*
X137632Y51414D01*
X137629Y51332D01*
X137642Y51283D01*
X137647Y51231D01*
X137677Y51155D01*
X137699Y51076D01*
X137726Y51032D01*
X137746Y50984D01*
X137797Y50921D01*
X137841Y50852D01*
X137881Y50818D01*
X137913Y50778D01*
X137982Y50733D01*
X138044Y50680D01*
X138091Y50659D01*
X138134Y50631D01*
X138185Y50619D01*
X138288Y50575D01*
X138467Y50557D01*
X138511Y50547D01*
X146332Y50547D01*
X146352Y50550D01*
X146373Y50548D01*
X146484Y50570D01*
X146594Y50587D01*
X146613Y50596D01*
X146634Y50600D01*
X146673Y50624D01*
X146834Y50702D01*
X146916Y50779D01*
X146960Y50807D01*
X155093Y58940D01*
X155123Y58981D01*
X155161Y59017D01*
X155202Y59088D01*
X155251Y59154D01*
X155268Y59203D01*
X155293Y59247D01*
X155311Y59327D01*
X155338Y59405D01*
X155340Y59457D01*
X155351Y59507D01*
X155344Y59589D01*
X155347Y59671D01*
X155333Y59720D01*
X155329Y59772D01*
X155299Y59848D01*
X155277Y59927D01*
X155249Y59971D01*
X155230Y60019D01*
X155178Y60082D01*
X155135Y60151D01*
X155095Y60185D01*
X155063Y60225D01*
X154994Y60270D01*
X154932Y60323D01*
X154884Y60344D01*
X154842Y60372D01*
X154791Y60384D01*
X154687Y60428D01*
X154509Y60446D01*
X154465Y60456D01*
X145503Y60456D01*
X143810Y62149D01*
X143810Y71211D01*
X145503Y72904D01*
X154565Y72904D01*
X155413Y72055D01*
X155496Y71994D01*
X155574Y71928D01*
X155602Y71916D01*
X155627Y71898D01*
X155724Y71864D01*
X155819Y71824D01*
X155849Y71820D01*
X155878Y71810D01*
X155981Y71807D01*
X156083Y71796D01*
X156113Y71802D01*
X156144Y71801D01*
X156243Y71828D01*
X156344Y71848D01*
X156364Y71861D01*
X156400Y71871D01*
X156625Y72014D01*
X156649Y72043D01*
X156669Y72055D01*
X158275Y73661D01*
X162273Y73661D01*
X165167Y70767D01*
X165177Y70733D01*
X165221Y70664D01*
X165256Y70590D01*
X165291Y70552D01*
X165319Y70509D01*
X165382Y70456D01*
X165438Y70396D01*
X165482Y70370D01*
X165522Y70337D01*
X165597Y70305D01*
X165668Y70264D01*
X165719Y70253D01*
X165766Y70232D01*
X165848Y70224D01*
X165928Y70206D01*
X165979Y70210D01*
X166031Y70205D01*
X166111Y70221D01*
X166193Y70228D01*
X166241Y70247D01*
X166291Y70257D01*
X166335Y70285D01*
X166440Y70327D01*
X166579Y70440D01*
X166617Y70464D01*
X174237Y78084D01*
X174250Y78101D01*
X174266Y78114D01*
X174328Y78208D01*
X174395Y78298D01*
X174402Y78318D01*
X174413Y78336D01*
X174423Y78380D01*
X174482Y78549D01*
X174486Y78662D01*
X174497Y78712D01*
X174497Y96662D01*
X176394Y98559D01*
X176395Y98559D01*
X192411Y114575D01*
X192424Y114592D01*
X192440Y114606D01*
X192502Y114699D01*
X192569Y114789D01*
X192576Y114809D01*
X192587Y114827D01*
X192597Y114871D01*
X192656Y115040D01*
X192660Y115153D01*
X192671Y115204D01*
X192671Y118737D01*
X193713Y119779D01*
X208687Y119779D01*
X209729Y118737D01*
X209729Y111263D01*
X209094Y110628D01*
X209066Y110591D01*
X209046Y110573D01*
X209027Y110539D01*
X208966Y110467D01*
X208954Y110439D01*
X208936Y110414D01*
X208902Y110317D01*
X208862Y110223D01*
X208859Y110192D01*
X208849Y110163D01*
X208845Y110060D01*
X208834Y109958D01*
X208840Y109928D01*
X208839Y109897D01*
X208866Y109798D01*
X208886Y109698D01*
X208899Y109677D01*
X208909Y109641D01*
X209052Y109417D01*
X209081Y109392D01*
X209094Y109372D01*
X209729Y108737D01*
X209729Y101263D01*
X209094Y100628D01*
X209033Y100545D01*
X208966Y100467D01*
X208954Y100439D01*
X208936Y100414D01*
X208902Y100317D01*
X208862Y100223D01*
X208859Y100192D01*
X208849Y100163D01*
X208845Y100060D01*
X208834Y99958D01*
X208840Y99928D01*
X208839Y99897D01*
X208866Y99798D01*
X208886Y99698D01*
X208899Y99677D01*
X208909Y99641D01*
X209052Y99417D01*
X209081Y99392D01*
X209094Y99372D01*
X209729Y98737D01*
X209729Y91263D01*
X209632Y91167D01*
X209571Y91084D01*
X209505Y91006D01*
X209493Y90978D01*
X209475Y90953D01*
X209441Y90856D01*
X209401Y90762D01*
X209397Y90731D01*
X209387Y90702D01*
X209384Y90599D01*
X209373Y90497D01*
X209379Y90467D01*
X209378Y90436D01*
X209405Y90337D01*
X209425Y90236D01*
X209438Y90216D01*
X209448Y90180D01*
X209591Y89955D01*
X209620Y89931D01*
X209632Y89911D01*
X209983Y89560D01*
X210318Y88981D01*
X210491Y88335D01*
X210491Y86499D01*
X201811Y86499D01*
X201710Y86484D01*
X201607Y86476D01*
X201579Y86464D01*
X201548Y86459D01*
X201456Y86415D01*
X201361Y86377D01*
X201337Y86357D01*
X201309Y86344D01*
X201234Y86274D01*
X201154Y86209D01*
X201137Y86183D01*
X201115Y86162D01*
X201064Y86073D01*
X201007Y85988D01*
X201002Y85964D01*
X200983Y85932D01*
X200925Y85672D01*
X200928Y85634D01*
X200923Y85611D01*
X200923Y85277D01*
X200589Y85277D01*
X200487Y85262D01*
X200385Y85253D01*
X200357Y85242D01*
X200326Y85237D01*
X200234Y85193D01*
X200138Y85154D01*
X200115Y85135D01*
X200087Y85122D01*
X200012Y85051D01*
X199932Y84987D01*
X199915Y84961D01*
X199893Y84940D01*
X199842Y84851D01*
X199785Y84766D01*
X199779Y84742D01*
X199761Y84709D01*
X199703Y84450D01*
X199706Y84412D01*
X199701Y84389D01*
X199701Y79459D01*
X194115Y79459D01*
X193469Y79632D01*
X193103Y79844D01*
X193039Y79869D01*
X192980Y79903D01*
X192916Y79917D01*
X192856Y79941D01*
X192787Y79946D01*
X192720Y79961D01*
X192655Y79956D01*
X192591Y79960D01*
X192523Y79945D01*
X192455Y79939D01*
X192395Y79915D01*
X192332Y79900D01*
X192272Y79866D01*
X192208Y79840D01*
X192158Y79799D01*
X192102Y79766D01*
X192056Y79716D01*
X192002Y79673D01*
X191966Y79618D01*
X191922Y79571D01*
X191893Y79509D01*
X191855Y79451D01*
X191845Y79407D01*
X191808Y79330D01*
X191774Y79088D01*
X191771Y79075D01*
X191771Y75500D01*
X189576Y73305D01*
X136067Y19796D01*
X136030Y19747D01*
X135986Y19703D01*
X135952Y19640D01*
X135909Y19582D01*
X135889Y19524D01*
X135860Y19469D01*
X135846Y19399D01*
X135822Y19331D01*
X135820Y19269D01*
X135808Y19209D01*
X135816Y19161D01*
X135813Y19066D01*
X135869Y18859D01*
X135875Y18828D01*
X136634Y16996D01*
X136634Y13004D01*
X135106Y9316D01*
X132514Y6724D01*
X132483Y6683D01*
X132446Y6647D01*
X132405Y6576D01*
X132356Y6510D01*
X132339Y6461D01*
X132314Y6417D01*
X132296Y6337D01*
X132269Y6259D01*
X132267Y6207D01*
X132256Y6157D01*
X132262Y6075D01*
X132260Y5993D01*
X132273Y5944D01*
X132277Y5892D01*
X132308Y5816D01*
X132330Y5737D01*
X132357Y5693D01*
X132376Y5645D01*
X132428Y5582D01*
X132472Y5513D01*
X132511Y5479D01*
X132544Y5439D01*
X132612Y5394D01*
X132675Y5341D01*
X132722Y5320D01*
X132765Y5292D01*
X132816Y5280D01*
X132919Y5236D01*
X133098Y5218D01*
X133142Y5208D01*
X144380Y5208D01*
X144431Y5215D01*
G37*
G36*
X64980Y5223D02*
X64980Y5223D01*
X65082Y5231D01*
X65110Y5243D01*
X65141Y5248D01*
X65233Y5292D01*
X65329Y5330D01*
X65352Y5350D01*
X65380Y5363D01*
X65455Y5433D01*
X65535Y5498D01*
X65552Y5524D01*
X65574Y5545D01*
X65625Y5634D01*
X65682Y5719D01*
X65688Y5743D01*
X65706Y5775D01*
X65764Y6035D01*
X65761Y6073D01*
X65766Y6096D01*
X65766Y23992D01*
X66808Y25034D01*
X72117Y25034D01*
X72219Y25049D01*
X72321Y25057D01*
X72349Y25069D01*
X72380Y25074D01*
X72472Y25118D01*
X72568Y25156D01*
X72591Y25176D01*
X72619Y25189D01*
X72694Y25259D01*
X72774Y25324D01*
X72791Y25350D01*
X72813Y25371D01*
X72864Y25460D01*
X72921Y25545D01*
X72927Y25569D01*
X72945Y25601D01*
X73003Y25861D01*
X73000Y25899D01*
X73005Y25922D01*
X73005Y43353D01*
X73002Y43374D01*
X73004Y43394D01*
X72982Y43505D01*
X72965Y43616D01*
X72956Y43634D01*
X72952Y43655D01*
X72928Y43694D01*
X72850Y43855D01*
X72773Y43937D01*
X72745Y43981D01*
X70973Y45753D01*
X70973Y49751D01*
X72745Y51523D01*
X72758Y51540D01*
X72774Y51553D01*
X72836Y51647D01*
X72903Y51737D01*
X72910Y51757D01*
X72921Y51774D01*
X72931Y51819D01*
X72990Y51988D01*
X72994Y52101D01*
X73005Y52151D01*
X73005Y64660D01*
X73002Y64681D01*
X73004Y64702D01*
X72982Y64812D01*
X72965Y64923D01*
X72956Y64942D01*
X72952Y64963D01*
X72928Y65001D01*
X72850Y65163D01*
X72773Y65245D01*
X72745Y65289D01*
X58073Y79961D01*
X58056Y79974D01*
X58042Y79990D01*
X57949Y80052D01*
X57859Y80119D01*
X57839Y80126D01*
X57821Y80137D01*
X57777Y80147D01*
X57608Y80206D01*
X57495Y80210D01*
X57444Y80221D01*
X44513Y80221D01*
X43471Y81263D01*
X43471Y88737D01*
X44106Y89372D01*
X44167Y89455D01*
X44234Y89533D01*
X44246Y89561D01*
X44264Y89586D01*
X44298Y89683D01*
X44338Y89777D01*
X44341Y89808D01*
X44351Y89837D01*
X44355Y89940D01*
X44366Y90042D01*
X44360Y90072D01*
X44361Y90103D01*
X44334Y90202D01*
X44314Y90302D01*
X44301Y90323D01*
X44291Y90359D01*
X44148Y90583D01*
X44119Y90608D01*
X44106Y90628D01*
X43471Y91263D01*
X43471Y98737D01*
X44106Y99372D01*
X44167Y99455D01*
X44234Y99533D01*
X44246Y99561D01*
X44264Y99586D01*
X44298Y99683D01*
X44338Y99777D01*
X44341Y99808D01*
X44351Y99837D01*
X44355Y99940D01*
X44366Y100042D01*
X44360Y100072D01*
X44361Y100103D01*
X44334Y100202D01*
X44314Y100302D01*
X44301Y100323D01*
X44291Y100359D01*
X44148Y100583D01*
X44119Y100608D01*
X44106Y100628D01*
X43471Y101263D01*
X43471Y108737D01*
X43568Y108833D01*
X43629Y108916D01*
X43695Y108994D01*
X43707Y109022D01*
X43725Y109047D01*
X43759Y109144D01*
X43799Y109238D01*
X43803Y109269D01*
X43813Y109298D01*
X43816Y109401D01*
X43827Y109503D01*
X43821Y109533D01*
X43822Y109564D01*
X43795Y109663D01*
X43775Y109764D01*
X43762Y109784D01*
X43752Y109820D01*
X43609Y110045D01*
X43580Y110069D01*
X43568Y110089D01*
X43217Y110440D01*
X42882Y111019D01*
X42709Y111665D01*
X42709Y113501D01*
X51389Y113501D01*
X51490Y113516D01*
X51593Y113524D01*
X51621Y113536D01*
X51652Y113540D01*
X51744Y113585D01*
X51839Y113623D01*
X51863Y113643D01*
X51891Y113656D01*
X51966Y113726D01*
X51997Y113752D01*
X52013Y113732D01*
X52039Y113715D01*
X52060Y113693D01*
X52149Y113642D01*
X52234Y113585D01*
X52258Y113579D01*
X52291Y113561D01*
X52550Y113503D01*
X52588Y113506D01*
X52611Y113501D01*
X61291Y113501D01*
X61291Y111665D01*
X61139Y111101D01*
X61130Y111016D01*
X61111Y110932D01*
X61115Y110884D01*
X61110Y110837D01*
X61126Y110752D01*
X61133Y110667D01*
X61151Y110623D01*
X61160Y110576D01*
X61200Y110500D01*
X61232Y110420D01*
X61262Y110383D01*
X61285Y110341D01*
X61345Y110281D01*
X61399Y110214D01*
X61439Y110188D01*
X61473Y110154D01*
X61549Y110114D01*
X61621Y110067D01*
X61655Y110059D01*
X61709Y110031D01*
X61971Y109983D01*
X61987Y109985D01*
X61997Y109983D01*
X64991Y109983D01*
X67819Y107155D01*
X67819Y103157D01*
X64991Y100329D01*
X61081Y100329D01*
X61030Y100322D01*
X60978Y100323D01*
X60899Y100302D01*
X60818Y100289D01*
X60771Y100267D01*
X60722Y100253D01*
X60652Y100209D01*
X60579Y100174D01*
X60541Y100138D01*
X60497Y100111D01*
X60444Y100048D01*
X60384Y99992D01*
X60359Y99947D01*
X60325Y99908D01*
X60293Y99833D01*
X60252Y99762D01*
X60241Y99711D01*
X60221Y99664D01*
X60212Y99582D01*
X60194Y99502D01*
X60199Y99451D01*
X60193Y99399D01*
X60209Y99319D01*
X60216Y99237D01*
X60235Y99189D01*
X60245Y99139D01*
X60273Y99095D01*
X60315Y98990D01*
X60428Y98851D01*
X60453Y98813D01*
X60529Y98737D01*
X60529Y95176D01*
X60532Y95155D01*
X60530Y95134D01*
X60552Y95023D01*
X60569Y94913D01*
X60578Y94894D01*
X60582Y94873D01*
X60606Y94835D01*
X60684Y94673D01*
X60761Y94591D01*
X60789Y94547D01*
X86367Y68969D01*
X86408Y68939D01*
X86444Y68901D01*
X86515Y68860D01*
X86581Y68812D01*
X86630Y68795D01*
X86674Y68769D01*
X86754Y68751D01*
X86832Y68724D01*
X86884Y68723D01*
X86934Y68711D01*
X87016Y68718D01*
X87098Y68715D01*
X87147Y68729D01*
X87199Y68733D01*
X87275Y68763D01*
X87354Y68785D01*
X87398Y68813D01*
X87446Y68832D01*
X87509Y68884D01*
X87578Y68928D01*
X87612Y68967D01*
X87652Y69000D01*
X87697Y69068D01*
X87750Y69130D01*
X87771Y69178D01*
X87799Y69221D01*
X87811Y69271D01*
X87855Y69375D01*
X87873Y69553D01*
X87883Y69597D01*
X87883Y71341D01*
X90711Y74169D01*
X94709Y74169D01*
X96667Y72211D01*
X96749Y72150D01*
X96828Y72084D01*
X96856Y72072D01*
X96881Y72054D01*
X96978Y72020D01*
X97072Y71980D01*
X97103Y71976D01*
X97132Y71966D01*
X97234Y71963D01*
X97336Y71952D01*
X97367Y71958D01*
X97397Y71957D01*
X97496Y71984D01*
X97597Y72004D01*
X97617Y72017D01*
X97654Y72027D01*
X97878Y72170D01*
X97903Y72199D01*
X97923Y72211D01*
X98619Y72908D01*
X107681Y72908D01*
X109374Y71215D01*
X109374Y62153D01*
X107681Y60460D01*
X98619Y60460D01*
X96926Y62153D01*
X96926Y63001D01*
X96911Y63103D01*
X96903Y63205D01*
X96891Y63233D01*
X96886Y63264D01*
X96842Y63356D01*
X96804Y63452D01*
X96784Y63475D01*
X96771Y63503D01*
X96701Y63578D01*
X96636Y63658D01*
X96610Y63675D01*
X96589Y63697D01*
X96500Y63748D01*
X96415Y63805D01*
X96391Y63811D01*
X96359Y63829D01*
X96099Y63887D01*
X96061Y63884D01*
X96038Y63889D01*
X94210Y63889D01*
X93845Y64255D01*
X93828Y64268D01*
X93814Y64284D01*
X93721Y64346D01*
X93631Y64413D01*
X93611Y64420D01*
X93593Y64431D01*
X93549Y64441D01*
X93380Y64500D01*
X93267Y64504D01*
X93216Y64515D01*
X92965Y64515D01*
X92915Y64508D01*
X92863Y64509D01*
X92784Y64488D01*
X92703Y64475D01*
X92656Y64453D01*
X92606Y64439D01*
X92537Y64395D01*
X92463Y64360D01*
X92426Y64325D01*
X92382Y64297D01*
X92329Y64234D01*
X92269Y64178D01*
X92243Y64134D01*
X92210Y64094D01*
X92178Y64019D01*
X92137Y63948D01*
X92126Y63897D01*
X92106Y63850D01*
X92097Y63768D01*
X92079Y63688D01*
X92084Y63637D01*
X92078Y63585D01*
X92094Y63505D01*
X92101Y63423D01*
X92120Y63375D01*
X92130Y63325D01*
X92158Y63281D01*
X92200Y63176D01*
X92313Y63037D01*
X92337Y62999D01*
X100973Y54363D01*
X103995Y51342D01*
X103995Y45339D01*
X104010Y45237D01*
X104018Y45135D01*
X104030Y45107D01*
X104035Y45076D01*
X104079Y44984D01*
X104117Y44888D01*
X104137Y44865D01*
X104150Y44837D01*
X104220Y44762D01*
X104285Y44682D01*
X104311Y44665D01*
X104332Y44643D01*
X104421Y44592D01*
X104506Y44535D01*
X104530Y44529D01*
X104562Y44511D01*
X104822Y44453D01*
X104860Y44456D01*
X104883Y44451D01*
X112695Y44451D01*
X112746Y44458D01*
X112798Y44457D01*
X112877Y44478D01*
X112958Y44491D01*
X113004Y44513D01*
X113054Y44527D01*
X113123Y44571D01*
X113197Y44606D01*
X113235Y44642D01*
X113278Y44669D01*
X113331Y44732D01*
X113391Y44788D01*
X113417Y44833D01*
X113450Y44872D01*
X113483Y44947D01*
X113523Y45018D01*
X113534Y45069D01*
X113555Y45117D01*
X113563Y45198D01*
X113581Y45278D01*
X113577Y45330D01*
X113582Y45381D01*
X113566Y45461D01*
X113559Y45543D01*
X113540Y45591D01*
X113537Y45605D01*
X113537Y49751D01*
X115309Y51523D01*
X115322Y51540D01*
X115338Y51553D01*
X115400Y51647D01*
X115467Y51737D01*
X115474Y51757D01*
X115485Y51774D01*
X115495Y51819D01*
X115554Y51988D01*
X115558Y52101D01*
X115569Y52151D01*
X115569Y59572D01*
X115554Y59674D01*
X115546Y59776D01*
X115534Y59804D01*
X115529Y59835D01*
X115485Y59927D01*
X115447Y60023D01*
X115427Y60046D01*
X115414Y60074D01*
X115344Y60149D01*
X115279Y60229D01*
X115253Y60246D01*
X115232Y60268D01*
X115143Y60319D01*
X115058Y60376D01*
X115034Y60382D01*
X115002Y60400D01*
X114742Y60458D01*
X114704Y60455D01*
X114681Y60460D01*
X113859Y60460D01*
X112166Y62153D01*
X112166Y71215D01*
X113859Y72908D01*
X116087Y72908D01*
X116189Y72923D01*
X116291Y72931D01*
X116319Y72943D01*
X116350Y72948D01*
X116442Y72992D01*
X116538Y73030D01*
X116561Y73050D01*
X116589Y73063D01*
X116664Y73133D01*
X116744Y73198D01*
X116761Y73224D01*
X116783Y73245D01*
X116834Y73334D01*
X116891Y73419D01*
X116897Y73443D01*
X116915Y73475D01*
X116973Y73735D01*
X116970Y73773D01*
X116975Y73796D01*
X116975Y82475D01*
X116972Y82496D01*
X116974Y82517D01*
X116952Y82627D01*
X116935Y82738D01*
X116926Y82757D01*
X116922Y82778D01*
X116898Y82816D01*
X116855Y82904D01*
X116842Y82936D01*
X116836Y82944D01*
X116820Y82977D01*
X116743Y83060D01*
X116715Y83103D01*
X115991Y83827D01*
X115991Y93489D01*
X115977Y93584D01*
X115971Y93680D01*
X115958Y93706D01*
X115951Y93752D01*
X115883Y93893D01*
X115951Y94408D01*
X115950Y94447D01*
X115958Y94484D01*
X115949Y94536D01*
X115946Y94674D01*
X115900Y94813D01*
X115891Y94864D01*
X115855Y94952D01*
X115924Y95119D01*
X115987Y95377D01*
X115985Y95428D01*
X115991Y95459D01*
X115991Y95591D01*
X116003Y95624D01*
X116038Y95695D01*
X116041Y95735D01*
X116064Y95801D01*
X116069Y95935D01*
X116085Y95979D01*
X116152Y96100D01*
X116166Y96171D01*
X116227Y96217D01*
X116241Y96232D01*
X116259Y96243D01*
X116333Y96328D01*
X116411Y96409D01*
X116420Y96428D01*
X116434Y96443D01*
X116450Y96486D01*
X116530Y96646D01*
X116549Y96758D01*
X116566Y96806D01*
X116577Y96885D01*
X116672Y96984D01*
X116705Y97049D01*
X116775Y97078D01*
X116793Y97089D01*
X116813Y97095D01*
X116907Y97157D01*
X117003Y97215D01*
X117017Y97231D01*
X117034Y97243D01*
X117060Y97280D01*
X117180Y97414D01*
X117226Y97517D01*
X117256Y97559D01*
X117286Y97632D01*
X117404Y97703D01*
X117453Y97758D01*
X117528Y97768D01*
X117548Y97773D01*
X117569Y97774D01*
X117675Y97810D01*
X117783Y97841D01*
X117801Y97853D01*
X117820Y97859D01*
X117855Y97889D01*
X118005Y97987D01*
X118028Y98015D01*
X118034Y98019D01*
X118078Y98075D01*
X118116Y98107D01*
X118131Y98126D01*
X118154Y98167D01*
X118174Y98192D01*
X118178Y98202D01*
X118198Y98227D01*
X118224Y98295D01*
X118259Y98359D01*
X118272Y98418D01*
X118294Y98475D01*
X118299Y98548D01*
X118313Y98619D01*
X118307Y98680D01*
X118312Y98741D01*
X118295Y98811D01*
X118288Y98883D01*
X118264Y98940D01*
X118250Y98999D01*
X118213Y99062D01*
X118185Y99129D01*
X118146Y99175D01*
X118115Y99228D01*
X118077Y99258D01*
X118015Y99332D01*
X117837Y99447D01*
X117812Y99467D01*
X117339Y99695D01*
X116565Y100312D01*
X116539Y100333D01*
X115901Y101133D01*
X115457Y102055D01*
X115229Y103052D01*
X115229Y107565D01*
X117771Y107565D01*
X117771Y103564D01*
X117773Y103554D01*
X117771Y103545D01*
X117776Y103526D01*
X117775Y103499D01*
X117826Y103111D01*
X117841Y103068D01*
X117860Y102985D01*
X118010Y102623D01*
X118035Y102586D01*
X118075Y102510D01*
X118313Y102199D01*
X118347Y102170D01*
X118405Y102107D01*
X118716Y101869D01*
X118757Y101849D01*
X118771Y101840D01*
X118771Y99326D01*
X118780Y99265D01*
X118779Y99203D01*
X118800Y99134D01*
X118810Y99063D01*
X118837Y99007D01*
X118855Y98948D01*
X118895Y98889D01*
X118926Y98824D01*
X118969Y98779D01*
X119003Y98727D01*
X119042Y98699D01*
X119108Y98630D01*
X119293Y98523D01*
X119319Y98505D01*
X119430Y98459D01*
X119451Y98454D01*
X119469Y98444D01*
X119579Y98423D01*
X119688Y98396D01*
X119709Y98397D01*
X119730Y98393D01*
X119775Y98401D01*
X119953Y98411D01*
X120059Y98450D01*
X120110Y98459D01*
X120221Y98505D01*
X120274Y98537D01*
X120332Y98560D01*
X120387Y98606D01*
X120449Y98643D01*
X120490Y98689D01*
X120538Y98728D01*
X120578Y98788D01*
X120625Y98841D01*
X120651Y98898D01*
X120685Y98949D01*
X120696Y98996D01*
X120735Y99083D01*
X120758Y99259D01*
X120767Y99301D01*
X120766Y99312D01*
X120769Y99326D01*
X120769Y101840D01*
X120824Y101869D01*
X121135Y102107D01*
X121164Y102141D01*
X121227Y102199D01*
X121465Y102510D01*
X121485Y102551D01*
X121530Y102623D01*
X121680Y102985D01*
X121689Y103029D01*
X121714Y103111D01*
X121765Y103499D01*
X121763Y103527D01*
X121769Y103564D01*
X121769Y113064D01*
X121768Y113072D01*
X121769Y113081D01*
X121748Y113169D01*
X121730Y113259D01*
X121725Y113266D01*
X121723Y113274D01*
X121669Y113347D01*
X121617Y113423D01*
X121610Y113427D01*
X121605Y113434D01*
X121527Y113481D01*
X121450Y113530D01*
X121441Y113531D01*
X121434Y113536D01*
X121270Y113563D01*
X120769Y113563D01*
X120769Y116105D01*
X121051Y116105D01*
X121102Y116112D01*
X121153Y116111D01*
X121233Y116132D01*
X121314Y116144D01*
X121360Y116167D01*
X121410Y116181D01*
X121479Y116225D01*
X121553Y116260D01*
X121591Y116296D01*
X121634Y116323D01*
X121687Y116386D01*
X121747Y116442D01*
X121773Y116487D01*
X121806Y116526D01*
X121839Y116601D01*
X121879Y116672D01*
X121890Y116723D01*
X121911Y116770D01*
X121919Y116852D01*
X121937Y116932D01*
X121933Y116983D01*
X121938Y117035D01*
X121922Y117115D01*
X121915Y117197D01*
X121896Y117245D01*
X121886Y117295D01*
X121858Y117339D01*
X121816Y117443D01*
X121703Y117583D01*
X121679Y117621D01*
X121411Y117889D01*
X121411Y122094D01*
X121418Y122114D01*
X121422Y122227D01*
X121433Y122277D01*
X121433Y127641D01*
X126642Y127641D01*
X126642Y125603D01*
X126657Y125501D01*
X126665Y125399D01*
X126677Y125371D01*
X126682Y125340D01*
X126726Y125248D01*
X126764Y125152D01*
X126784Y125129D01*
X126797Y125101D01*
X126867Y125026D01*
X126932Y124946D01*
X126958Y124929D01*
X126979Y124907D01*
X127068Y124856D01*
X127153Y124799D01*
X127177Y124793D01*
X127209Y124775D01*
X127469Y124717D01*
X127507Y124720D01*
X127530Y124715D01*
X127784Y124715D01*
X127886Y124730D01*
X127988Y124738D01*
X128016Y124750D01*
X128047Y124755D01*
X128139Y124799D01*
X128235Y124837D01*
X128258Y124857D01*
X128286Y124870D01*
X128361Y124940D01*
X128441Y125005D01*
X128458Y125031D01*
X128480Y125052D01*
X128531Y125141D01*
X128588Y125226D01*
X128594Y125250D01*
X128612Y125282D01*
X128670Y125542D01*
X128667Y125580D01*
X128672Y125603D01*
X128672Y133949D01*
X129999Y135276D01*
X130030Y135317D01*
X130068Y135353D01*
X130108Y135424D01*
X130157Y135490D01*
X130174Y135539D01*
X130200Y135583D01*
X130217Y135663D01*
X130244Y135741D01*
X130246Y135793D01*
X130257Y135843D01*
X130251Y135925D01*
X130254Y136007D01*
X130240Y136056D01*
X130236Y136108D01*
X130205Y136184D01*
X130184Y136263D01*
X130156Y136307D01*
X130137Y136355D01*
X130085Y136418D01*
X130041Y136487D01*
X130002Y136521D01*
X129969Y136561D01*
X129901Y136606D01*
X129838Y136659D01*
X129791Y136680D01*
X129748Y136708D01*
X129698Y136720D01*
X129594Y136764D01*
X129416Y136782D01*
X129371Y136792D01*
X126258Y136792D01*
X126207Y136785D01*
X126156Y136786D01*
X126076Y136765D01*
X125996Y136752D01*
X125949Y136730D01*
X125899Y136716D01*
X125830Y136672D01*
X125756Y136637D01*
X125718Y136601D01*
X125675Y136574D01*
X125622Y136511D01*
X125562Y136455D01*
X125536Y136410D01*
X125503Y136371D01*
X125471Y136296D01*
X125430Y136225D01*
X125419Y136174D01*
X125398Y136127D01*
X125390Y136045D01*
X125372Y135965D01*
X125376Y135914D01*
X125371Y135862D01*
X125387Y135782D01*
X125394Y135700D01*
X125413Y135652D01*
X125423Y135602D01*
X125451Y135558D01*
X125493Y135453D01*
X125606Y135314D01*
X125630Y135276D01*
X125912Y134994D01*
X126393Y134161D01*
X126642Y133233D01*
X126642Y131195D01*
X120545Y131195D01*
X120444Y131180D01*
X120341Y131171D01*
X120313Y131160D01*
X120282Y131155D01*
X120190Y131111D01*
X120095Y131072D01*
X120071Y131053D01*
X120043Y131040D01*
X119968Y130970D01*
X119888Y130905D01*
X119871Y130879D01*
X119849Y130858D01*
X119798Y130769D01*
X119741Y130684D01*
X119736Y130660D01*
X119717Y130627D01*
X119659Y130368D01*
X119662Y130330D01*
X119657Y130307D01*
X119657Y129417D01*
X119655Y129417D01*
X119655Y130307D01*
X119640Y130408D01*
X119631Y130511D01*
X119620Y130539D01*
X119615Y130570D01*
X119571Y130662D01*
X119532Y130757D01*
X119513Y130781D01*
X119500Y130809D01*
X119430Y130884D01*
X119365Y130964D01*
X119339Y130981D01*
X119318Y131003D01*
X119229Y131054D01*
X119144Y131111D01*
X119120Y131116D01*
X119087Y131135D01*
X118828Y131193D01*
X118790Y131190D01*
X118767Y131195D01*
X112670Y131195D01*
X112670Y133233D01*
X112919Y134161D01*
X113400Y134994D01*
X113682Y135276D01*
X113712Y135317D01*
X113750Y135353D01*
X113791Y135424D01*
X113839Y135490D01*
X113856Y135539D01*
X113882Y135583D01*
X113900Y135663D01*
X113927Y135741D01*
X113929Y135793D01*
X113940Y135843D01*
X113933Y135925D01*
X113936Y136007D01*
X113922Y136056D01*
X113918Y136108D01*
X113888Y136184D01*
X113866Y136263D01*
X113838Y136307D01*
X113819Y136355D01*
X113767Y136418D01*
X113724Y136487D01*
X113684Y136521D01*
X113652Y136561D01*
X113583Y136606D01*
X113521Y136659D01*
X113473Y136680D01*
X113430Y136708D01*
X113380Y136720D01*
X113276Y136764D01*
X113098Y136782D01*
X113054Y136792D01*
X28110Y136792D01*
X28042Y136782D01*
X27974Y136782D01*
X27911Y136762D01*
X27847Y136752D01*
X27786Y136723D01*
X27720Y136702D01*
X27667Y136665D01*
X27608Y136637D01*
X27558Y136590D01*
X27501Y136551D01*
X27461Y136500D01*
X27414Y136455D01*
X27380Y136396D01*
X27337Y136342D01*
X27314Y136281D01*
X27282Y136225D01*
X27267Y136158D01*
X27242Y136093D01*
X27238Y136028D01*
X27224Y135965D01*
X27230Y135897D01*
X27225Y135828D01*
X27239Y135785D01*
X27246Y135700D01*
X27337Y135473D01*
X27341Y135460D01*
X27618Y134981D01*
X27791Y134335D01*
X27791Y129777D01*
X16139Y129777D01*
X16038Y129762D01*
X15935Y129753D01*
X15907Y129742D01*
X15876Y129737D01*
X15784Y129693D01*
X15689Y129654D01*
X15665Y129635D01*
X15637Y129622D01*
X15562Y129552D01*
X15482Y129487D01*
X15465Y129461D01*
X15443Y129440D01*
X15392Y129351D01*
X15335Y129266D01*
X15330Y129242D01*
X15311Y129209D01*
X15253Y128950D01*
X15256Y128912D01*
X15251Y128889D01*
X15251Y127999D01*
X14361Y127999D01*
X14260Y127984D01*
X14157Y127975D01*
X14129Y127964D01*
X14098Y127959D01*
X14006Y127915D01*
X13911Y127876D01*
X13887Y127857D01*
X13859Y127844D01*
X13784Y127774D01*
X13704Y127709D01*
X13687Y127683D01*
X13665Y127662D01*
X13614Y127573D01*
X13557Y127488D01*
X13551Y127464D01*
X13533Y127431D01*
X13475Y127172D01*
X13478Y127134D01*
X13473Y127111D01*
X13473Y119459D01*
X6096Y119459D01*
X5994Y119444D01*
X5892Y119436D01*
X5864Y119424D01*
X5833Y119419D01*
X5741Y119375D01*
X5645Y119337D01*
X5622Y119317D01*
X5594Y119304D01*
X5519Y119234D01*
X5439Y119169D01*
X5422Y119143D01*
X5400Y119122D01*
X5349Y119033D01*
X5292Y118948D01*
X5286Y118924D01*
X5268Y118892D01*
X5210Y118632D01*
X5213Y118594D01*
X5208Y118571D01*
X5208Y81429D01*
X5223Y81327D01*
X5231Y81225D01*
X5243Y81197D01*
X5248Y81166D01*
X5292Y81074D01*
X5330Y80978D01*
X5350Y80955D01*
X5363Y80927D01*
X5433Y80852D01*
X5498Y80772D01*
X5524Y80755D01*
X5545Y80733D01*
X5634Y80682D01*
X5719Y80625D01*
X5743Y80619D01*
X5775Y80601D01*
X6035Y80543D01*
X6073Y80546D01*
X6096Y80541D01*
X13473Y80541D01*
X13473Y72889D01*
X13488Y72788D01*
X13497Y72685D01*
X13508Y72657D01*
X13513Y72626D01*
X13557Y72534D01*
X13596Y72439D01*
X13615Y72415D01*
X13628Y72387D01*
X13698Y72312D01*
X13763Y72232D01*
X13789Y72215D01*
X13810Y72193D01*
X13899Y72142D01*
X13984Y72085D01*
X14008Y72080D01*
X14040Y72061D01*
X14300Y72003D01*
X14338Y72006D01*
X14361Y72001D01*
X15251Y72001D01*
X15251Y71999D01*
X14361Y71999D01*
X14260Y71984D01*
X14157Y71975D01*
X14129Y71964D01*
X14098Y71959D01*
X14006Y71915D01*
X13911Y71876D01*
X13887Y71857D01*
X13859Y71844D01*
X13784Y71774D01*
X13704Y71709D01*
X13687Y71683D01*
X13665Y71662D01*
X13614Y71573D01*
X13557Y71488D01*
X13551Y71464D01*
X13533Y71431D01*
X13475Y71172D01*
X13478Y71134D01*
X13473Y71111D01*
X13473Y63459D01*
X6096Y63459D01*
X5994Y63444D01*
X5892Y63436D01*
X5864Y63424D01*
X5833Y63419D01*
X5741Y63375D01*
X5645Y63337D01*
X5622Y63317D01*
X5594Y63304D01*
X5519Y63234D01*
X5439Y63169D01*
X5422Y63143D01*
X5400Y63122D01*
X5349Y63033D01*
X5292Y62948D01*
X5286Y62924D01*
X5268Y62892D01*
X5210Y62632D01*
X5213Y62594D01*
X5208Y62571D01*
X5208Y34156D01*
X5222Y34065D01*
X5227Y33973D01*
X5241Y33934D01*
X5248Y33893D01*
X5288Y33810D01*
X5320Y33724D01*
X5345Y33691D01*
X5363Y33654D01*
X5426Y33586D01*
X5483Y33514D01*
X5516Y33490D01*
X5545Y33460D01*
X5625Y33414D01*
X5700Y33361D01*
X5740Y33348D01*
X5775Y33328D01*
X5865Y33308D01*
X5953Y33279D01*
X5995Y33279D01*
X6035Y33270D01*
X6127Y33278D01*
X6219Y33277D01*
X6259Y33288D01*
X6300Y33292D01*
X6385Y33326D01*
X6474Y33352D01*
X6508Y33375D01*
X6547Y33391D01*
X6618Y33449D01*
X6695Y33500D01*
X6713Y33526D01*
X6753Y33558D01*
X6900Y33779D01*
X6905Y33799D01*
X6917Y33816D01*
X7976Y36375D01*
X13625Y42024D01*
X21006Y45081D01*
X28994Y45081D01*
X36375Y42024D01*
X42024Y36375D01*
X45081Y28994D01*
X45081Y21006D01*
X42024Y13625D01*
X36375Y7976D01*
X33816Y6917D01*
X33737Y6869D01*
X33654Y6829D01*
X33624Y6801D01*
X33589Y6779D01*
X33527Y6710D01*
X33460Y6647D01*
X33439Y6611D01*
X33412Y6581D01*
X33374Y6497D01*
X33328Y6417D01*
X33319Y6376D01*
X33302Y6339D01*
X33290Y6247D01*
X33270Y6157D01*
X33273Y6116D01*
X33268Y6075D01*
X33284Y5984D01*
X33292Y5892D01*
X33307Y5854D01*
X33314Y5813D01*
X33356Y5731D01*
X33391Y5645D01*
X33417Y5613D01*
X33435Y5577D01*
X33500Y5511D01*
X33558Y5439D01*
X33593Y5416D01*
X33621Y5387D01*
X33703Y5343D01*
X33779Y5292D01*
X33810Y5285D01*
X33855Y5260D01*
X34116Y5209D01*
X34136Y5212D01*
X34156Y5208D01*
X64878Y5208D01*
X64980Y5223D01*
G37*
G36*
X94709Y5215D02*
X94709Y5215D01*
X94761Y5214D01*
X94840Y5235D01*
X94921Y5248D01*
X94967Y5270D01*
X95017Y5284D01*
X95086Y5328D01*
X95160Y5363D01*
X95198Y5398D01*
X95241Y5426D01*
X95295Y5489D01*
X95354Y5545D01*
X95380Y5589D01*
X95413Y5629D01*
X95446Y5704D01*
X95486Y5775D01*
X95498Y5826D01*
X95518Y5873D01*
X95526Y5955D01*
X95544Y6035D01*
X95540Y6086D01*
X95545Y6138D01*
X95529Y6218D01*
X95523Y6300D01*
X95503Y6348D01*
X95493Y6398D01*
X95466Y6442D01*
X95424Y6547D01*
X95311Y6686D01*
X95286Y6724D01*
X92694Y9316D01*
X91166Y13004D01*
X91166Y16996D01*
X92694Y20684D01*
X95516Y23506D01*
X97857Y24476D01*
X97910Y24508D01*
X97968Y24531D01*
X98023Y24576D01*
X98085Y24613D01*
X98126Y24659D01*
X98174Y24698D01*
X98214Y24758D01*
X98261Y24812D01*
X98287Y24868D01*
X98321Y24920D01*
X98332Y24967D01*
X98371Y25053D01*
X98398Y25266D01*
X98405Y25296D01*
X98405Y48658D01*
X98402Y48679D01*
X98404Y48700D01*
X98382Y48810D01*
X98365Y48921D01*
X98356Y48940D01*
X98352Y48961D01*
X98328Y48999D01*
X98250Y49161D01*
X98173Y49243D01*
X98145Y49287D01*
X97021Y50411D01*
X80111Y67321D01*
X80070Y67351D01*
X80034Y67389D01*
X79963Y67430D01*
X79897Y67478D01*
X79848Y67495D01*
X79804Y67521D01*
X79724Y67539D01*
X79646Y67566D01*
X79594Y67567D01*
X79544Y67579D01*
X79462Y67572D01*
X79380Y67575D01*
X79331Y67561D01*
X79279Y67557D01*
X79203Y67527D01*
X79124Y67505D01*
X79080Y67477D01*
X79032Y67458D01*
X78969Y67406D01*
X78900Y67362D01*
X78866Y67323D01*
X78826Y67290D01*
X78781Y67222D01*
X78728Y67160D01*
X78707Y67112D01*
X78679Y67069D01*
X78667Y67019D01*
X78623Y66915D01*
X78605Y66737D01*
X78595Y66693D01*
X78595Y52151D01*
X78598Y52130D01*
X78596Y52110D01*
X78618Y51999D01*
X78635Y51888D01*
X78644Y51870D01*
X78648Y51849D01*
X78672Y51810D01*
X78750Y51649D01*
X78827Y51567D01*
X78855Y51523D01*
X80627Y49751D01*
X80627Y45753D01*
X78855Y43981D01*
X78842Y43964D01*
X78826Y43951D01*
X78764Y43857D01*
X78697Y43767D01*
X78690Y43747D01*
X78679Y43730D01*
X78669Y43685D01*
X78610Y43516D01*
X78606Y43403D01*
X78595Y43353D01*
X78595Y25922D01*
X78610Y25820D01*
X78618Y25718D01*
X78630Y25690D01*
X78635Y25659D01*
X78679Y25567D01*
X78717Y25471D01*
X78737Y25448D01*
X78750Y25420D01*
X78820Y25345D01*
X78885Y25265D01*
X78911Y25248D01*
X78932Y25226D01*
X79021Y25175D01*
X79106Y25118D01*
X79130Y25112D01*
X79162Y25094D01*
X79422Y25036D01*
X79460Y25039D01*
X79483Y25034D01*
X84792Y25034D01*
X85834Y23992D01*
X85834Y6096D01*
X85849Y5994D01*
X85857Y5892D01*
X85869Y5864D01*
X85874Y5833D01*
X85918Y5741D01*
X85956Y5645D01*
X85976Y5622D01*
X85989Y5594D01*
X86059Y5519D01*
X86124Y5439D01*
X86150Y5422D01*
X86171Y5400D01*
X86260Y5349D01*
X86345Y5292D01*
X86369Y5286D01*
X86401Y5268D01*
X86661Y5210D01*
X86699Y5213D01*
X86722Y5208D01*
X94658Y5208D01*
X94709Y5215D01*
G37*
G36*
X120109Y5215D02*
X120109Y5215D01*
X120161Y5214D01*
X120240Y5235D01*
X120321Y5248D01*
X120367Y5270D01*
X120417Y5284D01*
X120486Y5328D01*
X120560Y5363D01*
X120598Y5398D01*
X120641Y5426D01*
X120695Y5489D01*
X120754Y5545D01*
X120780Y5589D01*
X120813Y5629D01*
X120846Y5704D01*
X120886Y5775D01*
X120898Y5826D01*
X120918Y5873D01*
X120926Y5955D01*
X120944Y6035D01*
X120940Y6086D01*
X120945Y6138D01*
X120929Y6218D01*
X120923Y6300D01*
X120903Y6348D01*
X120893Y6398D01*
X120866Y6442D01*
X120824Y6547D01*
X120711Y6686D01*
X120686Y6724D01*
X118094Y9316D01*
X116566Y13004D01*
X116566Y16996D01*
X118094Y20684D01*
X120916Y23506D01*
X124604Y25034D01*
X128596Y25034D01*
X130428Y24275D01*
X130489Y24260D01*
X130546Y24235D01*
X130617Y24228D01*
X130686Y24211D01*
X130748Y24214D01*
X130810Y24208D01*
X130880Y24222D01*
X130952Y24226D01*
X131010Y24248D01*
X131071Y24260D01*
X131111Y24286D01*
X131201Y24319D01*
X131370Y24450D01*
X131396Y24467D01*
X144274Y37345D01*
X144305Y37386D01*
X144343Y37422D01*
X144383Y37493D01*
X144432Y37559D01*
X144449Y37608D01*
X144474Y37652D01*
X144492Y37732D01*
X144519Y37810D01*
X144521Y37862D01*
X144532Y37912D01*
X144526Y37994D01*
X144528Y38076D01*
X144515Y38125D01*
X144511Y38177D01*
X144480Y38253D01*
X144459Y38332D01*
X144431Y38376D01*
X144412Y38424D01*
X144360Y38487D01*
X144316Y38556D01*
X144277Y38590D01*
X144244Y38630D01*
X144176Y38675D01*
X144113Y38728D01*
X144066Y38749D01*
X144023Y38777D01*
X143973Y38789D01*
X143869Y38833D01*
X143691Y38851D01*
X143646Y38861D01*
X139273Y38861D01*
X139253Y38858D01*
X139232Y38860D01*
X139121Y38838D01*
X139010Y38821D01*
X138992Y38812D01*
X138971Y38808D01*
X138932Y38784D01*
X138771Y38706D01*
X138689Y38629D01*
X138645Y38601D01*
X136873Y36829D01*
X132875Y36829D01*
X131103Y38601D01*
X131086Y38614D01*
X131073Y38630D01*
X130979Y38692D01*
X130889Y38759D01*
X130869Y38766D01*
X130852Y38777D01*
X130807Y38787D01*
X130638Y38846D01*
X130525Y38850D01*
X130475Y38861D01*
X104883Y38861D01*
X104781Y38846D01*
X104679Y38838D01*
X104651Y38826D01*
X104620Y38821D01*
X104528Y38777D01*
X104432Y38739D01*
X104409Y38719D01*
X104381Y38706D01*
X104306Y38636D01*
X104226Y38571D01*
X104209Y38545D01*
X104187Y38524D01*
X104136Y38435D01*
X104079Y38350D01*
X104073Y38326D01*
X104055Y38294D01*
X103997Y38034D01*
X104000Y37996D01*
X103995Y37973D01*
X103995Y25296D01*
X104004Y25235D01*
X104003Y25173D01*
X104024Y25104D01*
X104035Y25034D01*
X104062Y24978D01*
X104079Y24918D01*
X104119Y24859D01*
X104150Y24794D01*
X104193Y24749D01*
X104227Y24697D01*
X104266Y24670D01*
X104332Y24600D01*
X104518Y24494D01*
X104543Y24476D01*
X106884Y23506D01*
X109706Y20684D01*
X111234Y16996D01*
X111234Y13004D01*
X109706Y9316D01*
X107114Y6724D01*
X107083Y6683D01*
X107046Y6647D01*
X107005Y6576D01*
X106956Y6510D01*
X106939Y6461D01*
X106914Y6417D01*
X106896Y6337D01*
X106869Y6259D01*
X106867Y6207D01*
X106856Y6157D01*
X106862Y6075D01*
X106860Y5993D01*
X106873Y5944D01*
X106877Y5892D01*
X106908Y5816D01*
X106930Y5737D01*
X106957Y5693D01*
X106976Y5645D01*
X107028Y5582D01*
X107072Y5513D01*
X107111Y5479D01*
X107144Y5439D01*
X107212Y5394D01*
X107275Y5341D01*
X107322Y5320D01*
X107365Y5292D01*
X107416Y5280D01*
X107519Y5236D01*
X107698Y5218D01*
X107742Y5208D01*
X120058Y5208D01*
X120109Y5215D01*
G37*
%LPC*%
G36*
X17027Y73777D02*
X17027Y73777D01*
X17027Y80541D01*
X25585Y80541D01*
X26231Y80368D01*
X26810Y80033D01*
X27283Y79560D01*
X27618Y78981D01*
X27791Y78335D01*
X27791Y73777D01*
X17027Y73777D01*
G37*
%LPD*%
%LPC*%
G36*
X225409Y73777D02*
X225409Y73777D01*
X225409Y78335D01*
X225582Y78981D01*
X225917Y79560D01*
X226390Y80033D01*
X226969Y80368D01*
X227615Y80541D01*
X236173Y80541D01*
X236173Y73777D01*
X225409Y73777D01*
G37*
%LPD*%
%LPC*%
G36*
X17027Y119459D02*
X17027Y119459D01*
X17027Y126223D01*
X27791Y126223D01*
X27791Y121665D01*
X27618Y121019D01*
X27283Y120440D01*
X26810Y119967D01*
X26231Y119632D01*
X25585Y119459D01*
X17027Y119459D01*
G37*
%LPD*%
%LPC*%
G36*
X17027Y63459D02*
X17027Y63459D01*
X17027Y70223D01*
X27791Y70223D01*
X27791Y65665D01*
X27618Y65019D01*
X27283Y64440D01*
X26810Y63967D01*
X26231Y63632D01*
X25585Y63459D01*
X17027Y63459D01*
G37*
%LPD*%
%LPC*%
G36*
X227615Y119459D02*
X227615Y119459D01*
X226969Y119632D01*
X226390Y119967D01*
X225917Y120440D01*
X225582Y121019D01*
X225409Y121665D01*
X225409Y126223D01*
X236173Y126223D01*
X236173Y119459D01*
X227615Y119459D01*
G37*
%LPD*%
%LPC*%
G36*
X227615Y63459D02*
X227615Y63459D01*
X226969Y63632D01*
X226390Y63967D01*
X225917Y64440D01*
X225582Y65019D01*
X225409Y65665D01*
X225409Y70223D01*
X236173Y70223D01*
X236173Y63459D01*
X227615Y63459D01*
G37*
%LPD*%
%LPC*%
G36*
X153777Y16777D02*
X153777Y16777D01*
X153777Y25649D01*
X154528Y25530D01*
X156144Y25005D01*
X157658Y24233D01*
X159033Y23235D01*
X160235Y22033D01*
X161233Y20658D01*
X162005Y19144D01*
X162530Y17528D01*
X162649Y16777D01*
X153777Y16777D01*
G37*
%LPD*%
%LPC*%
G36*
X141351Y16777D02*
X141351Y16777D01*
X141470Y17528D01*
X141995Y19144D01*
X142767Y20658D01*
X143765Y22033D01*
X144967Y23235D01*
X146342Y24233D01*
X147856Y25005D01*
X149472Y25530D01*
X150223Y25649D01*
X150223Y16777D01*
X141351Y16777D01*
G37*
%LPD*%
G36*
X126723Y101620D02*
X126723Y101620D01*
X126766Y101635D01*
X126849Y101654D01*
X127211Y101804D01*
X127248Y101829D01*
X127324Y101869D01*
X127635Y102107D01*
X127664Y102141D01*
X127727Y102199D01*
X127965Y102510D01*
X127985Y102551D01*
X128030Y102623D01*
X128180Y102985D01*
X128189Y103029D01*
X128214Y103111D01*
X128265Y103499D01*
X128263Y103527D01*
X128269Y103564D01*
X128269Y113064D01*
X128268Y113072D01*
X128269Y113081D01*
X128248Y113169D01*
X128230Y113259D01*
X128225Y113266D01*
X128223Y113274D01*
X128169Y113347D01*
X128117Y113423D01*
X128110Y113427D01*
X128105Y113434D01*
X128027Y113481D01*
X127950Y113530D01*
X127941Y113531D01*
X127934Y113536D01*
X127770Y113563D01*
X124770Y113563D01*
X124762Y113562D01*
X124753Y113563D01*
X124665Y113542D01*
X124575Y113524D01*
X124568Y113519D01*
X124560Y113517D01*
X124487Y113463D01*
X124411Y113411D01*
X124407Y113404D01*
X124400Y113399D01*
X124353Y113321D01*
X124304Y113244D01*
X124303Y113235D01*
X124298Y113228D01*
X124271Y113064D01*
X124271Y103564D01*
X124273Y103554D01*
X124271Y103545D01*
X124276Y103526D01*
X124275Y103499D01*
X124326Y103111D01*
X124341Y103068D01*
X124360Y102985D01*
X124510Y102623D01*
X124535Y102586D01*
X124575Y102510D01*
X124813Y102199D01*
X124847Y102170D01*
X124905Y102107D01*
X125216Y101869D01*
X125257Y101849D01*
X125329Y101804D01*
X125691Y101654D01*
X125735Y101645D01*
X125817Y101620D01*
X126205Y101569D01*
X126250Y101572D01*
X126335Y101569D01*
X126723Y101620D01*
G37*
G36*
X121278Y84566D02*
X121278Y84566D01*
X121287Y84565D01*
X121375Y84586D01*
X121465Y84604D01*
X121472Y84609D01*
X121480Y84611D01*
X121553Y84665D01*
X121629Y84717D01*
X121633Y84724D01*
X121640Y84729D01*
X121687Y84807D01*
X121736Y84884D01*
X121737Y84893D01*
X121742Y84900D01*
X121769Y85064D01*
X121769Y94564D01*
X121769Y94566D01*
X121768Y94572D01*
X121764Y94592D01*
X121765Y94629D01*
X121714Y95017D01*
X121699Y95060D01*
X121680Y95143D01*
X121530Y95505D01*
X121505Y95542D01*
X121465Y95618D01*
X121227Y95929D01*
X121193Y95958D01*
X121135Y96021D01*
X120824Y96259D01*
X120783Y96279D01*
X120711Y96324D01*
X120349Y96474D01*
X120305Y96483D01*
X120223Y96508D01*
X119835Y96559D01*
X119790Y96556D01*
X119705Y96559D01*
X119317Y96508D01*
X119274Y96493D01*
X119191Y96474D01*
X118829Y96324D01*
X118792Y96299D01*
X118716Y96259D01*
X118405Y96021D01*
X118376Y95987D01*
X118313Y95929D01*
X118075Y95618D01*
X118055Y95577D01*
X118010Y95505D01*
X117860Y95143D01*
X117851Y95099D01*
X117826Y95017D01*
X117775Y94629D01*
X117777Y94601D01*
X117771Y94564D01*
X117771Y85064D01*
X117772Y85056D01*
X117771Y85047D01*
X117792Y84959D01*
X117810Y84869D01*
X117815Y84862D01*
X117817Y84854D01*
X117871Y84781D01*
X117923Y84705D01*
X117930Y84701D01*
X117935Y84694D01*
X118013Y84647D01*
X118090Y84598D01*
X118099Y84597D01*
X118106Y84592D01*
X118270Y84565D01*
X121270Y84565D01*
X121278Y84566D01*
G37*
G36*
X134278Y84566D02*
X134278Y84566D01*
X134287Y84565D01*
X134375Y84586D01*
X134465Y84604D01*
X134472Y84609D01*
X134480Y84611D01*
X134553Y84665D01*
X134629Y84717D01*
X134633Y84724D01*
X134640Y84729D01*
X134687Y84807D01*
X134736Y84884D01*
X134737Y84893D01*
X134742Y84900D01*
X134769Y85064D01*
X134769Y94564D01*
X134769Y94566D01*
X134768Y94572D01*
X134764Y94592D01*
X134765Y94629D01*
X134714Y95017D01*
X134699Y95060D01*
X134680Y95143D01*
X134530Y95505D01*
X134505Y95542D01*
X134465Y95618D01*
X134227Y95929D01*
X134193Y95958D01*
X134135Y96021D01*
X133824Y96259D01*
X133783Y96279D01*
X133711Y96324D01*
X133349Y96474D01*
X133305Y96483D01*
X133223Y96508D01*
X132835Y96559D01*
X132790Y96556D01*
X132705Y96559D01*
X132317Y96508D01*
X132274Y96493D01*
X132191Y96474D01*
X131829Y96324D01*
X131792Y96299D01*
X131716Y96259D01*
X131405Y96021D01*
X131376Y95987D01*
X131313Y95929D01*
X131075Y95618D01*
X131055Y95577D01*
X131010Y95505D01*
X130860Y95143D01*
X130851Y95099D01*
X130826Y95017D01*
X130775Y94629D01*
X130777Y94601D01*
X130771Y94564D01*
X130771Y85064D01*
X130772Y85056D01*
X130771Y85047D01*
X130792Y84959D01*
X130810Y84869D01*
X130815Y84862D01*
X130817Y84854D01*
X130871Y84781D01*
X130923Y84705D01*
X130930Y84701D01*
X130935Y84694D01*
X131013Y84647D01*
X131090Y84598D01*
X131099Y84597D01*
X131106Y84592D01*
X131270Y84565D01*
X134270Y84565D01*
X134278Y84566D01*
G37*
G36*
X127778Y84566D02*
X127778Y84566D01*
X127787Y84565D01*
X127875Y84586D01*
X127965Y84604D01*
X127972Y84609D01*
X127980Y84611D01*
X128053Y84665D01*
X128129Y84717D01*
X128133Y84724D01*
X128140Y84729D01*
X128187Y84807D01*
X128236Y84884D01*
X128237Y84893D01*
X128242Y84900D01*
X128269Y85064D01*
X128269Y94564D01*
X128269Y94566D01*
X128268Y94572D01*
X128264Y94592D01*
X128265Y94629D01*
X128214Y95017D01*
X128199Y95060D01*
X128180Y95143D01*
X128030Y95505D01*
X128005Y95542D01*
X127965Y95618D01*
X127727Y95929D01*
X127693Y95958D01*
X127635Y96021D01*
X127324Y96259D01*
X127283Y96279D01*
X127211Y96324D01*
X126849Y96474D01*
X126805Y96483D01*
X126723Y96508D01*
X126335Y96559D01*
X126290Y96556D01*
X126205Y96559D01*
X125817Y96508D01*
X125774Y96493D01*
X125691Y96474D01*
X125329Y96324D01*
X125292Y96299D01*
X125216Y96259D01*
X124905Y96021D01*
X124876Y95987D01*
X124813Y95929D01*
X124575Y95618D01*
X124555Y95577D01*
X124510Y95505D01*
X124360Y95143D01*
X124351Y95099D01*
X124326Y95017D01*
X124275Y94629D01*
X124277Y94601D01*
X124271Y94564D01*
X124271Y85064D01*
X124272Y85056D01*
X124271Y85047D01*
X124292Y84959D01*
X124310Y84869D01*
X124315Y84862D01*
X124317Y84854D01*
X124371Y84781D01*
X124423Y84705D01*
X124430Y84701D01*
X124435Y84694D01*
X124513Y84647D01*
X124590Y84598D01*
X124599Y84597D01*
X124606Y84592D01*
X124770Y84565D01*
X127770Y84565D01*
X127778Y84566D01*
G37*
%LPC*%
G36*
X53499Y116499D02*
X53499Y116499D01*
X53499Y120541D01*
X59085Y120541D01*
X59731Y120368D01*
X60310Y120033D01*
X60783Y119560D01*
X61118Y118981D01*
X61291Y118335D01*
X61291Y116499D01*
X53499Y116499D01*
G37*
%LPD*%
%LPC*%
G36*
X42709Y116499D02*
X42709Y116499D01*
X42709Y118335D01*
X42882Y118981D01*
X43217Y119560D01*
X43690Y120033D01*
X44269Y120368D01*
X44915Y120541D01*
X50501Y120541D01*
X50501Y116499D01*
X42709Y116499D01*
G37*
%LPD*%
%LPC*%
G36*
X202699Y79459D02*
X202699Y79459D01*
X202699Y83501D01*
X210491Y83501D01*
X210491Y81665D01*
X210318Y81019D01*
X209983Y80440D01*
X209510Y79967D01*
X208931Y79632D01*
X208285Y79459D01*
X202699Y79459D01*
G37*
%LPD*%
%LPC*%
G36*
X115841Y122432D02*
X115841Y122432D01*
X114913Y122681D01*
X114080Y123162D01*
X113400Y123842D01*
X112919Y124675D01*
X112670Y125603D01*
X112670Y127641D01*
X117879Y127641D01*
X117879Y122432D01*
X115841Y122432D01*
G37*
%LPD*%
%LPC*%
G36*
X115229Y109563D02*
X115229Y109563D01*
X115229Y113899D01*
X115402Y114545D01*
X115737Y115124D01*
X116210Y115597D01*
X116789Y115932D01*
X117435Y116105D01*
X118771Y116105D01*
X118771Y113563D01*
X118270Y113563D01*
X118262Y113562D01*
X118253Y113563D01*
X118165Y113542D01*
X118075Y113524D01*
X118068Y113519D01*
X118060Y113517D01*
X117987Y113463D01*
X117911Y113411D01*
X117907Y113404D01*
X117900Y113399D01*
X117853Y113321D01*
X117804Y113244D01*
X117803Y113235D01*
X117798Y113228D01*
X117771Y113064D01*
X117771Y109563D01*
X115229Y109563D01*
G37*
%LPD*%
D10*
X122990Y126084D02*
X116322Y126084D01*
X116322Y132752D01*
X122990Y132752D01*
X122990Y126084D01*
X122990Y128196D02*
X116322Y128196D01*
X116322Y130308D02*
X122990Y130308D01*
X122990Y132420D02*
X116322Y132420D01*
X131562Y126084D02*
X138230Y126084D01*
X131562Y126084D02*
X131562Y132752D01*
X138230Y132752D01*
X138230Y126084D01*
X138230Y128196D02*
X131562Y128196D01*
X131562Y130308D02*
X138230Y130308D01*
X138230Y132420D02*
X131562Y132420D01*
D11*
X75800Y15000D03*
D12*
X101200Y15000D03*
X126600Y15000D03*
X152000Y15000D03*
X177400Y15000D03*
D13*
X52000Y115000D03*
X52000Y105000D03*
X52000Y95000D03*
X52000Y85000D03*
D14*
X15250Y72000D03*
X15250Y128000D03*
D13*
X201200Y85000D03*
X201200Y95000D03*
X201200Y105000D03*
X201200Y115000D03*
D14*
X237950Y128000D03*
X237950Y72000D03*
D10*
X121724Y70018D02*
X115056Y70018D01*
X121724Y70018D02*
X121724Y63350D01*
X115056Y63350D01*
X115056Y70018D01*
X115056Y65462D02*
X121724Y65462D01*
X121724Y67574D02*
X115056Y67574D01*
X115056Y69686D02*
X121724Y69686D01*
X106484Y70018D02*
X99816Y70018D01*
X106484Y70018D02*
X106484Y63350D01*
X99816Y63350D01*
X99816Y70018D01*
X99816Y65462D02*
X106484Y65462D01*
X106484Y67574D02*
X99816Y67574D01*
X99816Y69686D02*
X106484Y69686D01*
X131460Y63346D02*
X138128Y63346D01*
X131460Y63346D02*
X131460Y70014D01*
X138128Y70014D01*
X138128Y63346D01*
X138128Y65458D02*
X131460Y65458D01*
X131460Y67570D02*
X138128Y67570D01*
X138128Y69682D02*
X131460Y69682D01*
X146700Y63346D02*
X153368Y63346D01*
X146700Y63346D02*
X146700Y70014D01*
X153368Y70014D01*
X153368Y63346D01*
X153368Y65458D02*
X146700Y65458D01*
X146700Y67570D02*
X153368Y67570D01*
X153368Y69682D02*
X146700Y69682D01*
D15*
X132770Y107564D03*
D16*
X126270Y108564D03*
X119770Y108564D03*
X119770Y89564D03*
X126270Y89564D03*
X132770Y89564D03*
D17*
X164846Y8636D03*
X138684Y8636D03*
X113538Y8636D03*
X89154Y8636D03*
X194818Y8382D03*
X202184Y8382D03*
X82550Y59690D03*
X91948Y129794D03*
D18*
X56986Y85000D02*
X52000Y85000D01*
X75800Y66186D02*
X75800Y53086D01*
X75800Y47752D01*
X75800Y15000D01*
X75800Y66186D02*
X56986Y85000D01*
X196788Y115000D02*
X201200Y115000D01*
X119770Y89564D02*
X119770Y68064D01*
X118390Y66684D01*
X177292Y95504D02*
X196788Y115000D01*
X147857Y47752D02*
X118364Y47752D01*
D17*
X118364Y47752D03*
X75800Y47752D03*
D18*
X177292Y77187D02*
X177292Y95504D01*
X177292Y77187D02*
X147857Y47752D01*
X118364Y47752D02*
X118364Y66658D01*
X118390Y66684D01*
X56384Y95000D02*
X52000Y95000D01*
X101200Y50184D02*
X101200Y50038D01*
X101200Y48514D01*
X101200Y41656D01*
X101200Y15000D01*
X100076Y51308D02*
X56384Y95000D01*
X100076Y51308D02*
X101200Y50184D01*
X196186Y105000D02*
X201200Y105000D01*
X196186Y105000D02*
X181229Y90043D01*
X181229Y79883D01*
X132770Y89564D02*
X132770Y68704D01*
X134794Y66680D01*
X181229Y75736D02*
X181229Y79883D01*
X147149Y41656D02*
X134874Y41656D01*
X101200Y41656D01*
X147149Y41656D02*
X181229Y75736D01*
X134794Y66680D02*
X134794Y55960D01*
X134874Y55880D01*
D17*
X134874Y55880D03*
X134874Y41656D03*
X92710Y69342D03*
D18*
X95368Y66684D01*
X103150Y66684D01*
D17*
X160274Y68834D03*
D18*
X158120Y66680D01*
X150034Y66680D01*
D19*
X195584Y95000D02*
X201200Y95000D01*
X195584Y95000D02*
X188468Y87884D01*
D17*
X188468Y87884D03*
X62992Y105156D03*
D19*
X52156Y105156D01*
X52000Y105000D01*
X134896Y129418D02*
X145664Y129418D01*
X145796Y129286D01*
D17*
X145796Y129286D03*
D19*
X188468Y76868D02*
X126600Y15000D01*
X188468Y76868D02*
X188468Y87884D01*
X132770Y107564D02*
X132770Y127292D01*
X134896Y129418D01*
D18*
X126238Y119888D02*
X126148Y119798D01*
D17*
X126238Y119888D03*
D18*
X126270Y119676D02*
X126270Y108564D01*
X126270Y119676D02*
X126148Y119798D01*
X126148Y79338D02*
X126238Y79248D01*
D17*
X126238Y79248D03*
D18*
X126270Y79460D02*
X126270Y89564D01*
X126270Y79460D02*
X126148Y79338D01*
M02*
