G04 EAGLE Gerber RS-274X export*
G75*
%MOMM*%
%FSLAX34Y34*%
%LPD*%
%AMOC8*
5,1,8,0,0,1.08239X$1,22.5*%
G01*
%ADD10R,1.651000X1.651000*%
%ADD11C,1.651000*%
%ADD12R,0.635000X1.270000*%
%ADD13C,0.203200*%
%ADD14C,0.609600*%
%ADD15C,0.304800*%

G36*
X64980Y5223D02*
X64980Y5223D01*
X65082Y5231D01*
X65110Y5243D01*
X65141Y5248D01*
X65233Y5292D01*
X65329Y5330D01*
X65352Y5350D01*
X65380Y5363D01*
X65455Y5433D01*
X65535Y5498D01*
X65552Y5524D01*
X65574Y5545D01*
X65625Y5634D01*
X65682Y5719D01*
X65688Y5743D01*
X65706Y5775D01*
X65764Y6035D01*
X65761Y6073D01*
X65766Y6096D01*
X65766Y23992D01*
X66808Y25034D01*
X84792Y25034D01*
X85834Y23992D01*
X85834Y6096D01*
X85849Y5994D01*
X85857Y5892D01*
X85869Y5864D01*
X85874Y5833D01*
X85918Y5741D01*
X85956Y5645D01*
X85976Y5622D01*
X85989Y5594D01*
X86059Y5519D01*
X86124Y5439D01*
X86150Y5422D01*
X86171Y5400D01*
X86260Y5349D01*
X86345Y5292D01*
X86369Y5286D01*
X86401Y5268D01*
X86661Y5210D01*
X86699Y5213D01*
X86722Y5208D01*
X94658Y5208D01*
X94709Y5215D01*
X94761Y5214D01*
X94840Y5235D01*
X94921Y5248D01*
X94967Y5270D01*
X95017Y5284D01*
X95086Y5328D01*
X95160Y5363D01*
X95198Y5398D01*
X95241Y5426D01*
X95295Y5489D01*
X95354Y5545D01*
X95380Y5589D01*
X95413Y5629D01*
X95446Y5704D01*
X95486Y5775D01*
X95498Y5826D01*
X95518Y5873D01*
X95526Y5955D01*
X95544Y6035D01*
X95540Y6086D01*
X95545Y6138D01*
X95529Y6218D01*
X95523Y6300D01*
X95503Y6348D01*
X95493Y6398D01*
X95466Y6442D01*
X95424Y6547D01*
X95311Y6686D01*
X95286Y6724D01*
X92694Y9316D01*
X91166Y13004D01*
X91166Y16996D01*
X92694Y20684D01*
X95516Y23506D01*
X99204Y25034D01*
X103196Y25034D01*
X106884Y23506D01*
X109706Y20684D01*
X111234Y16996D01*
X111234Y13004D01*
X109706Y9316D01*
X107114Y6724D01*
X107083Y6683D01*
X107046Y6647D01*
X107005Y6576D01*
X106956Y6510D01*
X106939Y6461D01*
X106914Y6417D01*
X106896Y6337D01*
X106869Y6259D01*
X106867Y6207D01*
X106856Y6157D01*
X106862Y6075D01*
X106860Y5993D01*
X106873Y5944D01*
X106877Y5892D01*
X106908Y5816D01*
X106930Y5737D01*
X106957Y5693D01*
X106976Y5645D01*
X107028Y5582D01*
X107072Y5513D01*
X107111Y5479D01*
X107144Y5439D01*
X107212Y5394D01*
X107275Y5341D01*
X107322Y5320D01*
X107365Y5292D01*
X107416Y5280D01*
X107519Y5236D01*
X107698Y5218D01*
X107742Y5208D01*
X120058Y5208D01*
X120109Y5215D01*
X120161Y5214D01*
X120240Y5235D01*
X120321Y5248D01*
X120367Y5270D01*
X120417Y5284D01*
X120486Y5328D01*
X120560Y5363D01*
X120598Y5398D01*
X120641Y5426D01*
X120695Y5489D01*
X120754Y5545D01*
X120780Y5589D01*
X120813Y5629D01*
X120846Y5704D01*
X120886Y5775D01*
X120898Y5826D01*
X120918Y5873D01*
X120926Y5955D01*
X120944Y6035D01*
X120940Y6086D01*
X120945Y6138D01*
X120929Y6218D01*
X120923Y6300D01*
X120903Y6348D01*
X120893Y6398D01*
X120866Y6442D01*
X120824Y6547D01*
X120711Y6686D01*
X120686Y6724D01*
X118094Y9316D01*
X116566Y13004D01*
X116566Y16996D01*
X118094Y20684D01*
X120916Y23506D01*
X124604Y25034D01*
X128596Y25034D01*
X132284Y23506D01*
X135106Y20684D01*
X136634Y16996D01*
X136634Y13004D01*
X135106Y9316D01*
X132514Y6724D01*
X132483Y6683D01*
X132446Y6647D01*
X132405Y6576D01*
X132356Y6510D01*
X132339Y6461D01*
X132314Y6417D01*
X132296Y6337D01*
X132269Y6259D01*
X132267Y6207D01*
X132256Y6157D01*
X132262Y6075D01*
X132260Y5993D01*
X132273Y5944D01*
X132277Y5892D01*
X132308Y5816D01*
X132330Y5737D01*
X132357Y5693D01*
X132376Y5645D01*
X132428Y5582D01*
X132472Y5513D01*
X132511Y5479D01*
X132544Y5439D01*
X132612Y5394D01*
X132675Y5341D01*
X132722Y5320D01*
X132765Y5292D01*
X132816Y5280D01*
X132919Y5236D01*
X133098Y5218D01*
X133142Y5208D01*
X144380Y5208D01*
X144431Y5215D01*
X144483Y5214D01*
X144562Y5235D01*
X144643Y5248D01*
X144690Y5270D01*
X144739Y5284D01*
X144809Y5328D01*
X144883Y5363D01*
X144920Y5398D01*
X144964Y5426D01*
X145017Y5489D01*
X145077Y5545D01*
X145102Y5589D01*
X145136Y5629D01*
X145168Y5704D01*
X145209Y5775D01*
X145220Y5826D01*
X145240Y5873D01*
X145249Y5955D01*
X145267Y6035D01*
X145262Y6086D01*
X145268Y6138D01*
X145252Y6218D01*
X145245Y6300D01*
X145226Y6348D01*
X145216Y6398D01*
X145188Y6442D01*
X145146Y6547D01*
X145033Y6686D01*
X145008Y6724D01*
X143765Y7967D01*
X142767Y9342D01*
X141995Y10856D01*
X141470Y12472D01*
X141351Y13223D01*
X151111Y13223D01*
X151212Y13238D01*
X151315Y13246D01*
X151343Y13258D01*
X151374Y13263D01*
X151466Y13307D01*
X151561Y13345D01*
X151585Y13365D01*
X151613Y13378D01*
X151688Y13448D01*
X151768Y13513D01*
X151785Y13539D01*
X151807Y13560D01*
X151858Y13649D01*
X151915Y13734D01*
X151920Y13758D01*
X151939Y13790D01*
X151997Y14050D01*
X151994Y14088D01*
X151999Y14111D01*
X151999Y15001D01*
X152001Y15001D01*
X152001Y14111D01*
X152016Y14009D01*
X152025Y13907D01*
X152036Y13879D01*
X152041Y13848D01*
X152085Y13756D01*
X152124Y13660D01*
X152143Y13637D01*
X152156Y13609D01*
X152226Y13534D01*
X152291Y13454D01*
X152317Y13437D01*
X152338Y13415D01*
X152427Y13364D01*
X152512Y13307D01*
X152536Y13301D01*
X152569Y13283D01*
X152828Y13225D01*
X152866Y13228D01*
X152889Y13223D01*
X162649Y13223D01*
X162530Y12472D01*
X162005Y10856D01*
X161233Y9342D01*
X160235Y7967D01*
X158992Y6724D01*
X158961Y6683D01*
X158923Y6647D01*
X158882Y6576D01*
X158834Y6510D01*
X158817Y6461D01*
X158791Y6417D01*
X158773Y6337D01*
X158746Y6259D01*
X158745Y6207D01*
X158733Y6157D01*
X158740Y6075D01*
X158737Y5993D01*
X158751Y5944D01*
X158755Y5892D01*
X158786Y5816D01*
X158807Y5737D01*
X158835Y5693D01*
X158854Y5645D01*
X158906Y5582D01*
X158950Y5513D01*
X158989Y5479D01*
X159022Y5439D01*
X159090Y5394D01*
X159152Y5341D01*
X159200Y5320D01*
X159243Y5292D01*
X159293Y5280D01*
X159397Y5236D01*
X159575Y5218D01*
X159620Y5208D01*
X170858Y5208D01*
X170909Y5215D01*
X170961Y5214D01*
X171040Y5235D01*
X171121Y5248D01*
X171167Y5270D01*
X171217Y5284D01*
X171286Y5328D01*
X171360Y5363D01*
X171398Y5398D01*
X171441Y5426D01*
X171495Y5489D01*
X171554Y5545D01*
X171580Y5589D01*
X171613Y5629D01*
X171646Y5704D01*
X171686Y5775D01*
X171698Y5826D01*
X171718Y5873D01*
X171726Y5955D01*
X171744Y6035D01*
X171740Y6086D01*
X171745Y6138D01*
X171729Y6218D01*
X171723Y6300D01*
X171703Y6348D01*
X171693Y6398D01*
X171666Y6442D01*
X171624Y6547D01*
X171511Y6686D01*
X171486Y6724D01*
X168894Y9316D01*
X167366Y13004D01*
X167366Y16996D01*
X168894Y20684D01*
X171716Y23506D01*
X174057Y24476D01*
X174110Y24508D01*
X174168Y24531D01*
X174223Y24576D01*
X174285Y24613D01*
X174326Y24659D01*
X174374Y24698D01*
X174414Y24758D01*
X174461Y24812D01*
X174487Y24868D01*
X174521Y24920D01*
X174532Y24967D01*
X174571Y25053D01*
X174598Y25266D01*
X174605Y25296D01*
X174605Y59834D01*
X174602Y59855D01*
X174604Y59876D01*
X174582Y59986D01*
X174565Y60097D01*
X174556Y60116D01*
X174552Y60137D01*
X174528Y60175D01*
X174450Y60337D01*
X174373Y60419D01*
X174345Y60463D01*
X166617Y68191D01*
X166576Y68221D01*
X166540Y68259D01*
X166469Y68300D01*
X166403Y68348D01*
X166354Y68365D01*
X166310Y68391D01*
X166230Y68409D01*
X166152Y68436D01*
X166100Y68437D01*
X166050Y68449D01*
X165968Y68442D01*
X165886Y68445D01*
X165837Y68431D01*
X165785Y68427D01*
X165709Y68397D01*
X165630Y68375D01*
X165586Y68347D01*
X165538Y68328D01*
X165475Y68276D01*
X165406Y68232D01*
X165372Y68193D01*
X165332Y68160D01*
X165287Y68092D01*
X165234Y68030D01*
X165213Y67982D01*
X165185Y67939D01*
X165173Y67889D01*
X165129Y67785D01*
X165111Y67607D01*
X165101Y67563D01*
X165101Y66835D01*
X162273Y64007D01*
X159768Y64007D01*
X159747Y64004D01*
X159726Y64006D01*
X159616Y63984D01*
X159505Y63967D01*
X159486Y63958D01*
X159465Y63954D01*
X159427Y63930D01*
X159265Y63852D01*
X159183Y63775D01*
X159139Y63747D01*
X158082Y62689D01*
X128270Y62689D01*
X128168Y62674D01*
X128066Y62666D01*
X128038Y62654D01*
X128007Y62649D01*
X127915Y62605D01*
X127819Y62567D01*
X127796Y62547D01*
X127768Y62534D01*
X127693Y62464D01*
X127613Y62399D01*
X127596Y62373D01*
X127574Y62352D01*
X127523Y62263D01*
X127466Y62178D01*
X127460Y62154D01*
X127442Y62122D01*
X127384Y61862D01*
X127387Y61824D01*
X127382Y61801D01*
X127382Y58397D01*
X126340Y57355D01*
X102260Y57355D01*
X101218Y58397D01*
X101218Y61801D01*
X101203Y61903D01*
X101195Y62005D01*
X101183Y62033D01*
X101178Y62064D01*
X101134Y62156D01*
X101096Y62252D01*
X101076Y62275D01*
X101063Y62303D01*
X100993Y62378D01*
X100928Y62458D01*
X100902Y62475D01*
X100881Y62497D01*
X100792Y62548D01*
X100707Y62605D01*
X100683Y62611D01*
X100651Y62629D01*
X100391Y62687D01*
X100353Y62684D01*
X100330Y62689D01*
X95410Y62689D01*
X93845Y64255D01*
X93828Y64268D01*
X93814Y64284D01*
X93721Y64346D01*
X93631Y64413D01*
X93611Y64420D01*
X93593Y64431D01*
X93549Y64441D01*
X93380Y64500D01*
X93267Y64504D01*
X93216Y64515D01*
X90711Y64515D01*
X87883Y67343D01*
X87883Y71341D01*
X90711Y74169D01*
X94709Y74169D01*
X97537Y71341D01*
X97537Y69167D01*
X97552Y69065D01*
X97560Y68963D01*
X97572Y68935D01*
X97577Y68904D01*
X97621Y68812D01*
X97659Y68716D01*
X97679Y68693D01*
X97692Y68665D01*
X97762Y68590D01*
X97827Y68510D01*
X97853Y68493D01*
X97874Y68471D01*
X97963Y68420D01*
X98048Y68363D01*
X98072Y68357D01*
X98104Y68339D01*
X98364Y68281D01*
X98402Y68284D01*
X98425Y68279D01*
X100330Y68279D01*
X100432Y68294D01*
X100534Y68302D01*
X100562Y68314D01*
X100593Y68319D01*
X100685Y68363D01*
X100781Y68401D01*
X100804Y68421D01*
X100832Y68434D01*
X100907Y68504D01*
X100987Y68569D01*
X101004Y68595D01*
X101026Y68616D01*
X101077Y68705D01*
X101134Y68790D01*
X101140Y68814D01*
X101158Y68846D01*
X101216Y69106D01*
X101213Y69144D01*
X101218Y69167D01*
X101218Y72571D01*
X102260Y73613D01*
X110109Y73613D01*
X110211Y73628D01*
X110313Y73636D01*
X110341Y73648D01*
X110372Y73653D01*
X110464Y73697D01*
X110560Y73735D01*
X110583Y73755D01*
X110611Y73768D01*
X110686Y73838D01*
X110766Y73903D01*
X110783Y73929D01*
X110805Y73950D01*
X110856Y74039D01*
X110913Y74124D01*
X110919Y74148D01*
X110937Y74180D01*
X110995Y74440D01*
X110992Y74478D01*
X110997Y74501D01*
X110997Y83100D01*
X110994Y83121D01*
X110996Y83142D01*
X110974Y83252D01*
X110957Y83363D01*
X110948Y83382D01*
X110944Y83402D01*
X110920Y83441D01*
X110842Y83602D01*
X110765Y83685D01*
X110737Y83728D01*
X110144Y84321D01*
X110127Y84334D01*
X110114Y84350D01*
X110020Y84412D01*
X109930Y84479D01*
X109910Y84486D01*
X109893Y84497D01*
X109848Y84507D01*
X109679Y84566D01*
X109566Y84570D01*
X109516Y84581D01*
X78896Y84581D01*
X63408Y100069D01*
X63391Y100082D01*
X63378Y100098D01*
X63284Y100160D01*
X63194Y100227D01*
X63174Y100234D01*
X63157Y100245D01*
X63112Y100255D01*
X62943Y100314D01*
X62830Y100318D01*
X62780Y100329D01*
X60993Y100329D01*
X58165Y103157D01*
X58165Y107155D01*
X60993Y109983D01*
X64991Y109983D01*
X67819Y107155D01*
X67819Y105368D01*
X67822Y105347D01*
X67820Y105326D01*
X67842Y105216D01*
X67859Y105105D01*
X67868Y105086D01*
X67872Y105066D01*
X67896Y105027D01*
X67974Y104866D01*
X68051Y104783D01*
X68079Y104740D01*
X81372Y91447D01*
X81389Y91434D01*
X81402Y91418D01*
X81496Y91356D01*
X81586Y91289D01*
X81606Y91282D01*
X81623Y91271D01*
X81668Y91261D01*
X81837Y91202D01*
X81950Y91198D01*
X82000Y91187D01*
X141012Y91187D01*
X141033Y91190D01*
X141054Y91188D01*
X141164Y91210D01*
X141275Y91227D01*
X141294Y91236D01*
X141314Y91240D01*
X141353Y91264D01*
X141514Y91342D01*
X141597Y91419D01*
X141640Y91447D01*
X142233Y92040D01*
X142246Y92057D01*
X142262Y92070D01*
X142324Y92164D01*
X142391Y92254D01*
X142398Y92274D01*
X142409Y92291D01*
X142419Y92336D01*
X142478Y92505D01*
X142482Y92618D01*
X142493Y92668D01*
X142493Y125095D01*
X142478Y125197D01*
X142470Y125299D01*
X142458Y125327D01*
X142453Y125358D01*
X142409Y125450D01*
X142371Y125546D01*
X142351Y125569D01*
X142338Y125597D01*
X142268Y125672D01*
X142203Y125752D01*
X142177Y125769D01*
X142156Y125791D01*
X142067Y125842D01*
X141982Y125899D01*
X141958Y125905D01*
X141926Y125923D01*
X141666Y125981D01*
X141628Y125978D01*
X141605Y125983D01*
X140184Y125983D01*
X140082Y125968D01*
X139980Y125960D01*
X139952Y125948D01*
X139921Y125943D01*
X139829Y125899D01*
X139733Y125861D01*
X139710Y125841D01*
X139682Y125828D01*
X139607Y125758D01*
X139527Y125693D01*
X139510Y125667D01*
X139488Y125646D01*
X139437Y125557D01*
X139380Y125472D01*
X139374Y125448D01*
X139356Y125416D01*
X139298Y125156D01*
X139301Y125118D01*
X139296Y125095D01*
X139296Y121379D01*
X138254Y120337D01*
X131953Y120337D01*
X131851Y120322D01*
X131749Y120314D01*
X131721Y120302D01*
X131690Y120297D01*
X131598Y120253D01*
X131502Y120215D01*
X131479Y120195D01*
X131451Y120182D01*
X131376Y120112D01*
X131296Y120047D01*
X131279Y120021D01*
X131257Y120000D01*
X131206Y119911D01*
X131149Y119826D01*
X131143Y119802D01*
X131125Y119770D01*
X131067Y119510D01*
X131070Y119472D01*
X131065Y119449D01*
X131065Y117889D01*
X128237Y115061D01*
X124239Y115061D01*
X121411Y117889D01*
X121411Y118687D01*
X121396Y118789D01*
X121388Y118891D01*
X121376Y118919D01*
X121371Y118950D01*
X121327Y119042D01*
X121289Y119138D01*
X121269Y119161D01*
X121256Y119189D01*
X121186Y119264D01*
X121121Y119344D01*
X121095Y119361D01*
X121074Y119383D01*
X120985Y119434D01*
X120900Y119491D01*
X120876Y119497D01*
X120844Y119515D01*
X120584Y119573D01*
X120546Y119570D01*
X120523Y119575D01*
X119673Y119575D01*
X119673Y127767D01*
X119657Y127869D01*
X119649Y127971D01*
X119638Y128000D01*
X119633Y128030D01*
X119588Y128122D01*
X119550Y128218D01*
X119531Y128242D01*
X119517Y128269D01*
X119447Y128344D01*
X119382Y128424D01*
X119357Y128441D01*
X119336Y128464D01*
X119247Y128515D01*
X119161Y128572D01*
X119138Y128577D01*
X119105Y128596D01*
X118846Y128653D01*
X118808Y128650D01*
X118785Y128656D01*
X118276Y128656D01*
X118276Y129165D01*
X118260Y129266D01*
X118252Y129368D01*
X118240Y129397D01*
X118236Y129427D01*
X118191Y129520D01*
X118153Y129615D01*
X118133Y129639D01*
X118120Y129667D01*
X118050Y129742D01*
X117985Y129821D01*
X117960Y129838D01*
X117939Y129861D01*
X117850Y129912D01*
X117764Y129969D01*
X117741Y129974D01*
X117708Y129993D01*
X117448Y130051D01*
X117411Y130048D01*
X117387Y130053D01*
X112370Y130053D01*
X112370Y135151D01*
X112511Y135674D01*
X112520Y135759D01*
X112539Y135843D01*
X112535Y135891D01*
X112540Y135938D01*
X112524Y136023D01*
X112517Y136108D01*
X112499Y136152D01*
X112490Y136199D01*
X112450Y136275D01*
X112418Y136355D01*
X112388Y136392D01*
X112365Y136434D01*
X112305Y136494D01*
X112251Y136561D01*
X112211Y136588D01*
X112177Y136621D01*
X112101Y136661D01*
X112029Y136708D01*
X111995Y136716D01*
X111941Y136744D01*
X111680Y136792D01*
X111663Y136790D01*
X111653Y136792D01*
X6096Y136792D01*
X5994Y136777D01*
X5892Y136769D01*
X5864Y136757D01*
X5833Y136752D01*
X5741Y136708D01*
X5645Y136670D01*
X5622Y136650D01*
X5594Y136637D01*
X5519Y136567D01*
X5439Y136502D01*
X5422Y136476D01*
X5400Y136455D01*
X5349Y136366D01*
X5292Y136281D01*
X5286Y136257D01*
X5268Y136225D01*
X5210Y135965D01*
X5213Y135927D01*
X5208Y135904D01*
X5208Y34156D01*
X5222Y34065D01*
X5227Y33973D01*
X5241Y33934D01*
X5248Y33893D01*
X5288Y33810D01*
X5320Y33724D01*
X5345Y33691D01*
X5363Y33654D01*
X5426Y33586D01*
X5483Y33514D01*
X5516Y33490D01*
X5545Y33460D01*
X5625Y33414D01*
X5700Y33361D01*
X5740Y33348D01*
X5775Y33328D01*
X5865Y33308D01*
X5953Y33279D01*
X5995Y33279D01*
X6035Y33270D01*
X6127Y33278D01*
X6219Y33277D01*
X6259Y33288D01*
X6300Y33292D01*
X6385Y33326D01*
X6474Y33352D01*
X6508Y33375D01*
X6547Y33391D01*
X6618Y33449D01*
X6695Y33500D01*
X6713Y33526D01*
X6753Y33558D01*
X6900Y33779D01*
X6905Y33799D01*
X6917Y33816D01*
X7976Y36375D01*
X13625Y42024D01*
X21006Y45081D01*
X28994Y45081D01*
X36375Y42024D01*
X42024Y36375D01*
X45081Y28994D01*
X45081Y21006D01*
X42024Y13625D01*
X36375Y7976D01*
X33816Y6917D01*
X33737Y6869D01*
X33654Y6829D01*
X33624Y6801D01*
X33589Y6779D01*
X33527Y6710D01*
X33460Y6647D01*
X33439Y6611D01*
X33412Y6581D01*
X33374Y6497D01*
X33328Y6417D01*
X33319Y6376D01*
X33302Y6339D01*
X33290Y6247D01*
X33270Y6157D01*
X33273Y6116D01*
X33268Y6075D01*
X33284Y5984D01*
X33292Y5892D01*
X33307Y5854D01*
X33314Y5813D01*
X33356Y5731D01*
X33391Y5645D01*
X33417Y5613D01*
X33435Y5577D01*
X33500Y5511D01*
X33558Y5439D01*
X33593Y5416D01*
X33621Y5387D01*
X33703Y5343D01*
X33779Y5292D01*
X33810Y5285D01*
X33855Y5260D01*
X34116Y5209D01*
X34136Y5212D01*
X34156Y5208D01*
X64878Y5208D01*
X64980Y5223D01*
G37*
G36*
X219135Y5222D02*
X219135Y5222D01*
X219227Y5227D01*
X219266Y5241D01*
X219307Y5248D01*
X219390Y5288D01*
X219476Y5320D01*
X219509Y5345D01*
X219546Y5363D01*
X219614Y5426D01*
X219686Y5483D01*
X219710Y5516D01*
X219740Y5545D01*
X219786Y5625D01*
X219839Y5700D01*
X219852Y5740D01*
X219872Y5775D01*
X219892Y5865D01*
X219921Y5953D01*
X219921Y5995D01*
X219930Y6035D01*
X219922Y6127D01*
X219923Y6219D01*
X219912Y6259D01*
X219908Y6300D01*
X219874Y6385D01*
X219848Y6474D01*
X219825Y6508D01*
X219809Y6547D01*
X219751Y6618D01*
X219700Y6695D01*
X219674Y6713D01*
X219642Y6753D01*
X219421Y6900D01*
X219401Y6905D01*
X219384Y6917D01*
X216825Y7976D01*
X211176Y13625D01*
X208119Y21006D01*
X208119Y28994D01*
X211176Y36375D01*
X216825Y42024D01*
X224206Y45081D01*
X232194Y45081D01*
X239575Y42024D01*
X245224Y36375D01*
X246283Y33816D01*
X246331Y33737D01*
X246371Y33654D01*
X246399Y33624D01*
X246421Y33589D01*
X246490Y33527D01*
X246553Y33460D01*
X246589Y33439D01*
X246619Y33412D01*
X246703Y33374D01*
X246783Y33328D01*
X246824Y33319D01*
X246861Y33302D01*
X246953Y33290D01*
X247043Y33270D01*
X247084Y33273D01*
X247125Y33268D01*
X247216Y33284D01*
X247308Y33292D01*
X247346Y33307D01*
X247387Y33314D01*
X247469Y33356D01*
X247555Y33391D01*
X247587Y33417D01*
X247623Y33435D01*
X247689Y33500D01*
X247761Y33558D01*
X247784Y33593D01*
X247813Y33621D01*
X247857Y33703D01*
X247908Y33779D01*
X247915Y33810D01*
X247940Y33855D01*
X247991Y34116D01*
X247988Y34136D01*
X247992Y34156D01*
X247992Y135904D01*
X247977Y136006D01*
X247969Y136108D01*
X247957Y136136D01*
X247952Y136167D01*
X247908Y136259D01*
X247870Y136355D01*
X247850Y136378D01*
X247837Y136406D01*
X247767Y136481D01*
X247702Y136561D01*
X247676Y136578D01*
X247655Y136600D01*
X247566Y136651D01*
X247481Y136708D01*
X247457Y136714D01*
X247425Y136732D01*
X247165Y136790D01*
X247127Y136787D01*
X247104Y136792D01*
X140184Y136792D01*
X140082Y136777D01*
X139980Y136769D01*
X139952Y136757D01*
X139921Y136752D01*
X139829Y136708D01*
X139733Y136670D01*
X139710Y136650D01*
X139682Y136637D01*
X139607Y136567D01*
X139527Y136502D01*
X139510Y136476D01*
X139488Y136455D01*
X139437Y136366D01*
X139380Y136281D01*
X139374Y136257D01*
X139356Y136225D01*
X139298Y135965D01*
X139301Y135927D01*
X139296Y135904D01*
X139296Y133477D01*
X139311Y133375D01*
X139319Y133273D01*
X139331Y133245D01*
X139336Y133214D01*
X139380Y133122D01*
X139418Y133026D01*
X139438Y133003D01*
X139451Y132975D01*
X139521Y132900D01*
X139586Y132820D01*
X139612Y132803D01*
X139633Y132781D01*
X139722Y132730D01*
X139807Y132673D01*
X139831Y132667D01*
X139863Y132649D01*
X140123Y132591D01*
X140161Y132594D01*
X140184Y132589D01*
X141905Y132589D01*
X141926Y132592D01*
X141946Y132590D01*
X142057Y132612D01*
X142168Y132629D01*
X142186Y132638D01*
X142207Y132642D01*
X142246Y132666D01*
X142407Y132744D01*
X142489Y132821D01*
X142533Y132849D01*
X143797Y134113D01*
X147795Y134113D01*
X150623Y131285D01*
X150623Y127287D01*
X149359Y126023D01*
X149346Y126006D01*
X149330Y125993D01*
X149268Y125899D01*
X149201Y125809D01*
X149194Y125789D01*
X149183Y125772D01*
X149173Y125727D01*
X149114Y125558D01*
X149110Y125445D01*
X149099Y125395D01*
X149099Y92668D01*
X149102Y92647D01*
X149100Y92626D01*
X149122Y92516D01*
X149139Y92405D01*
X149148Y92386D01*
X149152Y92366D01*
X149176Y92327D01*
X149254Y92166D01*
X149331Y92083D01*
X149359Y92040D01*
X149952Y91447D01*
X149969Y91434D01*
X149982Y91418D01*
X150076Y91356D01*
X150166Y91289D01*
X150186Y91282D01*
X150203Y91271D01*
X150248Y91261D01*
X150417Y91202D01*
X150530Y91198D01*
X150580Y91187D01*
X184577Y91187D01*
X184597Y91190D01*
X184618Y91188D01*
X184729Y91210D01*
X184840Y91227D01*
X184858Y91236D01*
X184879Y91240D01*
X184918Y91264D01*
X185079Y91342D01*
X185161Y91419D01*
X185205Y91447D01*
X186469Y92711D01*
X190467Y92711D01*
X193295Y89883D01*
X193295Y85885D01*
X190467Y83057D01*
X186469Y83057D01*
X185205Y84321D01*
X185188Y84334D01*
X185175Y84350D01*
X185081Y84412D01*
X184991Y84479D01*
X184971Y84486D01*
X184954Y84497D01*
X184909Y84507D01*
X184740Y84566D01*
X184627Y84570D01*
X184577Y84581D01*
X129875Y84581D01*
X129824Y84574D01*
X129773Y84575D01*
X129693Y84554D01*
X129612Y84541D01*
X129566Y84519D01*
X129516Y84505D01*
X129447Y84461D01*
X129373Y84426D01*
X129335Y84390D01*
X129292Y84363D01*
X129239Y84300D01*
X129179Y84244D01*
X129153Y84200D01*
X129120Y84160D01*
X129087Y84085D01*
X129047Y84014D01*
X129036Y83963D01*
X129015Y83916D01*
X129007Y83834D01*
X128989Y83754D01*
X128993Y83703D01*
X128988Y83651D01*
X129004Y83571D01*
X129011Y83489D01*
X129030Y83441D01*
X129040Y83391D01*
X129068Y83347D01*
X129110Y83242D01*
X129223Y83103D01*
X129247Y83065D01*
X130009Y82303D01*
X130026Y82290D01*
X130039Y82274D01*
X130133Y82212D01*
X130223Y82145D01*
X130243Y82138D01*
X130260Y82127D01*
X130305Y82117D01*
X130474Y82058D01*
X130587Y82054D01*
X130637Y82043D01*
X160670Y82043D01*
X180195Y62518D01*
X180195Y25296D01*
X180204Y25235D01*
X180203Y25173D01*
X180224Y25104D01*
X180235Y25034D01*
X180262Y24978D01*
X180279Y24918D01*
X180319Y24859D01*
X180350Y24794D01*
X180393Y24749D01*
X180427Y24697D01*
X180466Y24670D01*
X180532Y24600D01*
X180718Y24494D01*
X180743Y24476D01*
X183084Y23506D01*
X185906Y20684D01*
X187434Y16996D01*
X187434Y13004D01*
X185906Y9316D01*
X183314Y6724D01*
X183283Y6683D01*
X183246Y6647D01*
X183205Y6576D01*
X183156Y6510D01*
X183139Y6461D01*
X183114Y6417D01*
X183096Y6337D01*
X183069Y6259D01*
X183067Y6207D01*
X183056Y6157D01*
X183062Y6075D01*
X183060Y5993D01*
X183073Y5944D01*
X183077Y5892D01*
X183108Y5816D01*
X183130Y5737D01*
X183157Y5693D01*
X183176Y5645D01*
X183228Y5582D01*
X183272Y5513D01*
X183311Y5479D01*
X183344Y5439D01*
X183412Y5394D01*
X183475Y5341D01*
X183522Y5320D01*
X183565Y5292D01*
X183616Y5280D01*
X183719Y5236D01*
X183898Y5218D01*
X183942Y5208D01*
X219044Y5208D01*
X219135Y5222D01*
G37*
%LPC*%
G36*
X73801Y42925D02*
X73801Y42925D01*
X70973Y45753D01*
X70973Y49751D01*
X73801Y52579D01*
X77799Y52579D01*
X79571Y50807D01*
X79588Y50794D01*
X79601Y50778D01*
X79695Y50716D01*
X79785Y50649D01*
X79805Y50642D01*
X79822Y50631D01*
X79867Y50621D01*
X80036Y50562D01*
X80149Y50558D01*
X80199Y50547D01*
X113965Y50547D01*
X113985Y50550D01*
X114006Y50548D01*
X114117Y50570D01*
X114228Y50587D01*
X114246Y50596D01*
X114267Y50600D01*
X114306Y50624D01*
X114467Y50702D01*
X114549Y50779D01*
X114593Y50807D01*
X116365Y52579D01*
X120363Y52579D01*
X123191Y49751D01*
X123191Y45753D01*
X120363Y42925D01*
X116365Y42925D01*
X114593Y44697D01*
X114576Y44710D01*
X114563Y44726D01*
X114469Y44788D01*
X114379Y44855D01*
X114359Y44862D01*
X114342Y44873D01*
X114297Y44883D01*
X114128Y44942D01*
X114015Y44946D01*
X113965Y44957D01*
X80199Y44957D01*
X80179Y44954D01*
X80158Y44956D01*
X80047Y44934D01*
X79936Y44917D01*
X79918Y44908D01*
X79897Y44904D01*
X79858Y44880D01*
X79697Y44802D01*
X79615Y44725D01*
X79571Y44697D01*
X77799Y42925D01*
X73801Y42925D01*
G37*
%LPD*%
%LPC*%
G36*
X132875Y36829D02*
X132875Y36829D01*
X130047Y39657D01*
X130047Y43655D01*
X131819Y45427D01*
X131832Y45444D01*
X131848Y45457D01*
X131886Y45515D01*
X131887Y45516D01*
X131890Y45521D01*
X131910Y45551D01*
X131977Y45641D01*
X131984Y45661D01*
X131995Y45678D01*
X132005Y45721D01*
X132019Y45747D01*
X132030Y45793D01*
X132064Y45892D01*
X132066Y45958D01*
X132077Y46006D01*
X132075Y46035D01*
X132079Y46055D01*
X132079Y51481D01*
X132076Y51501D01*
X132078Y51522D01*
X132056Y51633D01*
X132039Y51744D01*
X132030Y51762D01*
X132026Y51783D01*
X132002Y51822D01*
X131924Y51983D01*
X131847Y52065D01*
X131819Y52109D01*
X130047Y53881D01*
X130047Y57879D01*
X132875Y60707D01*
X136873Y60707D01*
X139701Y57879D01*
X139701Y53881D01*
X137929Y52109D01*
X137916Y52092D01*
X137900Y52079D01*
X137838Y51985D01*
X137771Y51895D01*
X137764Y51875D01*
X137753Y51858D01*
X137743Y51813D01*
X137684Y51644D01*
X137680Y51531D01*
X137669Y51481D01*
X137669Y46055D01*
X137672Y46035D01*
X137670Y46014D01*
X137687Y45925D01*
X137692Y45863D01*
X137701Y45842D01*
X137709Y45792D01*
X137718Y45774D01*
X137722Y45753D01*
X137746Y45714D01*
X137781Y45642D01*
X137791Y45617D01*
X137797Y45610D01*
X137824Y45553D01*
X137901Y45471D01*
X137929Y45427D01*
X139701Y43655D01*
X139701Y39657D01*
X136873Y36829D01*
X132875Y36829D01*
G37*
%LPD*%
%LPC*%
G36*
X153777Y16777D02*
X153777Y16777D01*
X153777Y25649D01*
X154528Y25530D01*
X156144Y25005D01*
X157658Y24233D01*
X159033Y23235D01*
X160235Y22033D01*
X161233Y20658D01*
X162005Y19144D01*
X162530Y17528D01*
X162649Y16777D01*
X153777Y16777D01*
G37*
%LPD*%
%LPC*%
G36*
X141351Y16777D02*
X141351Y16777D01*
X141470Y17528D01*
X141995Y19144D01*
X142767Y20658D01*
X143765Y22033D01*
X144967Y23235D01*
X146342Y24233D01*
X147856Y25005D01*
X149472Y25530D01*
X150223Y25649D01*
X150223Y16777D01*
X141351Y16777D01*
G37*
%LPD*%
%LPC*%
G36*
X114576Y119575D02*
X114576Y119575D01*
X113930Y119748D01*
X113351Y120083D01*
X112878Y120556D01*
X112543Y121135D01*
X112370Y121781D01*
X112370Y126879D01*
X116499Y126879D01*
X116499Y119575D01*
X114576Y119575D01*
G37*
%LPD*%
D10*
X75800Y15000D03*
D11*
X101200Y15000D03*
X126600Y15000D03*
X152000Y15000D03*
X177400Y15000D03*
D12*
X122428Y65484D03*
X114300Y65484D03*
X106172Y65484D03*
D13*
X114300Y65484D02*
X122682Y65484D01*
X114300Y65484D02*
X105664Y65484D01*
D12*
X118086Y128466D03*
X126214Y128466D03*
X134342Y128466D03*
D14*
X164846Y8636D03*
X138684Y8636D03*
X113538Y8636D03*
X89154Y8636D03*
X194818Y8382D03*
X202184Y8382D03*
X82550Y59690D03*
X91948Y129794D03*
X118364Y47752D03*
D13*
X75800Y47752D01*
D14*
X75800Y47752D03*
X134874Y55880D03*
D13*
X134874Y41656D01*
D14*
X134874Y41656D03*
D13*
X106172Y65484D02*
X96568Y65484D01*
X92710Y69342D01*
D14*
X92710Y69342D03*
D13*
X122428Y65484D02*
X156924Y65484D01*
X160274Y68834D01*
D14*
X160274Y68834D03*
X188468Y87884D03*
D15*
X149352Y87884D01*
X142748Y87884D01*
X117856Y87884D01*
X111252Y87884D01*
X80264Y87884D01*
X62992Y105156D01*
D14*
X62992Y105156D03*
X145796Y129286D03*
D15*
X145796Y90932D01*
X142748Y87884D01*
X145796Y90932D02*
X148844Y87884D01*
X149352Y87884D01*
X134342Y128466D02*
X135162Y129286D01*
X145796Y129286D01*
X111252Y87884D02*
X114300Y84836D01*
X117348Y87884D01*
X117856Y87884D01*
X114300Y84836D02*
X114300Y65484D01*
D14*
X126238Y119888D03*
D13*
X126238Y128442D01*
X126214Y128466D01*
D14*
X126238Y79248D03*
D13*
X159512Y79248D01*
X177400Y61360D02*
X177400Y15000D01*
X177400Y61360D02*
X159512Y79248D01*
M02*
