M48
;GenerationSoftware,Autodesk,EAGLE,9.1.1*%
;CreationDate,2018-08-20T08:17:01Z*%
FMAT,2
ICI,OFF
METRIC,TZ,000.000
T3C0.305
T2C0.889
T1C3.000
%
G90
M71
T1
X2500Y2500
X22820Y2500
T2
X7580Y1500
X10120Y1500
X12660Y1500
X15200Y1500
X17740Y1500
T3
X16485Y864
X13868Y864
X11354Y864
X8915Y864
X19482Y838
X20218Y838
X8255Y5969
X9195Y12979
X11836Y4775
X7580Y4775
X13487Y5588
X13487Y4166
X9271Y6934
X16027Y6883
X18847Y8788
X6299Y10516
X14580Y12929
X12624Y11989
X12624Y7925
M30