G04 EAGLE Gerber RS-274X export*
G75*
%MOMM*%
%FSLAX34Y34*%
%LPD*%
%AMOC8*
5,1,8,0,0,1.08239X$1,22.5*%
G01*
%ADD10C,0.076200*%
%ADD11C,0.101600*%
%ADD12C,0.152400*%
%ADD13R,0.200000X0.010000*%
%ADD14R,0.370000X0.010000*%
%ADD15R,0.550000X0.010000*%
%ADD16R,0.630000X0.010000*%
%ADD17R,0.760000X0.010000*%
%ADD18R,0.810000X0.010000*%
%ADD19R,0.900000X0.010000*%
%ADD20R,0.950000X0.010000*%
%ADD21R,1.030000X0.010000*%
%ADD22R,1.080000X0.010000*%
%ADD23R,1.140000X0.010000*%
%ADD24R,1.190000X0.010000*%
%ADD25R,1.230000X0.010000*%
%ADD26R,1.290000X0.010000*%
%ADD27R,1.320000X0.020000*%
%ADD28R,1.410000X0.020000*%
%ADD29R,1.490000X0.020000*%
%ADD30R,1.540000X0.010000*%
%ADD31R,1.570000X0.010000*%
%ADD32R,1.610000X0.010000*%
%ADD33R,1.640000X0.010000*%
%ADD34R,1.670000X0.010000*%
%ADD35R,1.710000X0.010000*%
%ADD36R,1.740000X0.010000*%
%ADD37R,1.770000X0.010000*%
%ADD38R,1.790000X0.010000*%
%ADD39R,1.830000X0.010000*%
%ADD40R,1.860000X0.010000*%
%ADD41R,1.890000X0.010000*%
%ADD42R,1.910000X0.010000*%
%ADD43R,1.940000X0.010000*%
%ADD44R,1.960000X0.010000*%
%ADD45R,2.000000X0.010000*%
%ADD46R,2.020000X0.010000*%
%ADD47R,2.070000X0.020000*%
%ADD48R,2.120000X0.020000*%
%ADD49R,2.160000X0.020000*%
%ADD50R,2.210000X0.020000*%
%ADD51R,2.220000X0.010000*%
%ADD52R,2.250000X0.010000*%
%ADD53R,2.270000X0.010000*%
%ADD54R,2.290000X0.010000*%
%ADD55R,2.310000X0.010000*%
%ADD56R,2.320000X0.010000*%
%ADD57R,2.350000X0.010000*%
%ADD58R,2.360000X0.010000*%
%ADD59R,2.390000X0.010000*%
%ADD60R,2.400000X0.010000*%
%ADD61R,2.420000X0.010000*%
%ADD62R,2.440000X0.010000*%
%ADD63R,2.460000X0.010000*%
%ADD64R,2.480000X0.010000*%
%ADD65R,2.490000X0.010000*%
%ADD66R,2.510000X0.010000*%
%ADD67R,2.530000X0.010000*%
%ADD68R,2.540000X0.010000*%
%ADD69R,2.560000X0.020000*%
%ADD70R,2.580000X0.020000*%
%ADD71R,2.620000X0.020000*%
%ADD72R,2.650000X0.020000*%
%ADD73R,2.660000X0.010000*%
%ADD74R,2.670000X0.010000*%
%ADD75R,2.690000X0.010000*%
%ADD76R,2.700000X0.010000*%
%ADD77R,2.710000X0.010000*%
%ADD78R,2.730000X0.010000*%
%ADD79R,2.740000X0.010000*%
%ADD80R,2.750000X0.010000*%
%ADD81R,2.760000X0.010000*%
%ADD82R,2.780000X0.010000*%
%ADD83R,2.790000X0.010000*%
%ADD84R,2.800000X0.010000*%
%ADD85R,2.810000X0.010000*%
%ADD86R,2.830000X0.010000*%
%ADD87R,2.840000X0.010000*%
%ADD88R,2.860000X0.010000*%
%ADD89R,2.870000X0.010000*%
%ADD90R,2.880000X0.010000*%
%ADD91R,2.890000X0.010000*%
%ADD92R,2.900000X0.010000*%
%ADD93R,2.910000X0.010000*%
%ADD94R,2.920000X0.010000*%
%ADD95R,2.930000X0.010000*%
%ADD96R,2.940000X0.010000*%
%ADD97R,2.950000X0.010000*%
%ADD98R,2.960000X0.010000*%
%ADD99R,2.970000X0.010000*%
%ADD100R,2.980000X0.010000*%
%ADD101R,3.000000X0.010000*%
%ADD102R,3.010000X0.010000*%
%ADD103R,3.020000X0.010000*%
%ADD104R,3.040000X0.010000*%
%ADD105R,3.050000X0.010000*%
%ADD106R,3.060000X0.010000*%
%ADD107R,3.070000X0.010000*%
%ADD108R,3.080000X0.010000*%
%ADD109R,3.090000X0.010000*%
%ADD110R,3.100000X0.010000*%
%ADD111R,3.110000X0.010000*%
%ADD112R,3.120000X0.010000*%
%ADD113R,0.390000X0.010000*%
%ADD114R,0.410000X0.010000*%
%ADD115R,0.380000X0.010000*%
%ADD116R,0.420000X0.010000*%
%ADD117R,0.430000X0.010000*%
%ADD118R,0.400000X0.010000*%
%ADD119R,0.440000X0.010000*%
%ADD120R,0.450000X0.010000*%
%ADD121R,0.460000X0.010000*%
%ADD122R,0.280000X0.010000*%
%ADD123R,0.310000X0.010000*%
%ADD124R,0.300000X0.010000*%
%ADD125R,0.290000X0.010000*%
%ADD126R,0.320000X0.010000*%
%ADD127R,0.330000X0.010000*%
%ADD128R,0.470000X0.010000*%
%ADD129R,0.970000X0.010000*%
%ADD130R,0.960000X0.010000*%
%ADD131R,1.010000X0.010000*%
%ADD132R,1.000000X0.010000*%
%ADD133R,0.980000X0.010000*%
%ADD134R,0.940000X0.010000*%
%ADD135R,0.920000X0.010000*%
%ADD136R,0.930000X0.010000*%
%ADD137R,0.870000X0.010000*%
%ADD138R,0.850000X0.010000*%
%ADD139R,0.910000X0.010000*%
%ADD140R,0.830000X0.010000*%
%ADD141R,0.780000X0.010000*%
%ADD142R,0.890000X0.010000*%
%ADD143R,0.770000X0.010000*%
%ADD144R,0.480000X0.010000*%
%ADD145R,0.750000X0.010000*%
%ADD146R,0.720000X0.010000*%
%ADD147R,0.880000X0.010000*%
%ADD148R,0.690000X0.010000*%
%ADD149R,0.490000X0.010000*%
%ADD150R,0.660000X0.010000*%
%ADD151R,0.860000X0.010000*%
%ADD152R,0.600000X0.010000*%
%ADD153R,0.560000X0.010000*%
%ADD154R,0.530000X0.010000*%
%ADD155R,0.840000X0.010000*%
%ADD156R,0.510000X0.010000*%
%ADD157R,0.520000X0.010000*%
%ADD158R,0.340000X0.010000*%
%ADD159R,0.800000X0.010000*%
%ADD160R,0.230000X0.010000*%
%ADD161R,0.790000X0.010000*%
%ADD162R,0.540000X0.010000*%
%ADD163R,0.170000X0.010000*%
%ADD164R,0.100000X0.010000*%
%ADD165R,0.740000X0.010000*%
%ADD166R,0.570000X0.010000*%
%ADD167R,0.590000X0.010000*%
%ADD168R,0.710000X0.010000*%
%ADD169R,0.700000X0.010000*%
%ADD170R,0.610000X0.010000*%
%ADD171R,0.680000X0.010000*%
%ADD172R,0.670000X0.010000*%
%ADD173R,0.640000X0.010000*%
%ADD174R,0.620000X0.010000*%
%ADD175R,0.730000X0.010000*%
%ADD176R,0.500000X0.010000*%
%ADD177R,0.990000X0.010000*%
%ADD178R,0.030000X0.010000*%
%ADD179R,1.210000X0.010000*%
%ADD180R,1.180000X0.010000*%
%ADD181R,1.150000X0.010000*%
%ADD182R,0.260000X0.010000*%
%ADD183R,1.130000X0.010000*%
%ADD184R,0.180000X0.010000*%
%ADD185R,1.100000X0.010000*%
%ADD186R,1.070000X0.010000*%
%ADD187R,1.040000X0.010000*%
%ADD188R,0.250000X0.010000*%

G36*
X85792Y98014D02*
X85792Y98014D01*
X85792Y98015D01*
X85793Y98016D01*
X85788Y99377D01*
X85785Y100737D01*
X85780Y102099D01*
X85775Y103460D01*
X85770Y104822D01*
X85766Y106182D01*
X85761Y107544D01*
X85756Y108905D01*
X85753Y110267D01*
X85748Y111627D01*
X85743Y112989D01*
X85739Y114350D01*
X85734Y114355D01*
X85733Y114360D01*
X84510Y115070D01*
X83286Y115779D01*
X82064Y116489D01*
X80842Y117199D01*
X79619Y117908D01*
X78397Y118618D01*
X77173Y119327D01*
X75950Y120037D01*
X74728Y120747D01*
X73477Y121472D01*
X72228Y122198D01*
X70977Y122923D01*
X69727Y123647D01*
X68478Y124372D01*
X67227Y125098D01*
X65978Y125822D01*
X64727Y126546D01*
X63494Y127259D01*
X64786Y127998D01*
X66237Y128629D01*
X67693Y129250D01*
X69151Y129866D01*
X70609Y130480D01*
X72068Y131093D01*
X73528Y131706D01*
X74935Y132297D01*
X76341Y132887D01*
X77748Y133478D01*
X79153Y134068D01*
X80561Y134659D01*
X81967Y135249D01*
X83372Y135840D01*
X84779Y136430D01*
X85731Y136834D01*
X85734Y136839D01*
X85738Y136843D01*
X85737Y136845D01*
X85738Y136848D01*
X85731Y136851D01*
X85727Y136857D01*
X81251Y136857D01*
X79761Y136858D01*
X72303Y136858D01*
X70810Y136860D01*
X61860Y136860D01*
X61100Y136861D01*
X61071Y136861D01*
X60369Y136861D01*
X52911Y136861D01*
X51419Y136863D01*
X46944Y136863D01*
X46932Y136853D01*
X46933Y136852D01*
X46932Y136851D01*
X46932Y135489D01*
X46934Y134127D01*
X46934Y132763D01*
X46935Y131401D01*
X46935Y130039D01*
X46937Y128677D01*
X46937Y127313D01*
X46938Y125951D01*
X46938Y124589D01*
X46940Y123227D01*
X46942Y121865D01*
X46942Y120501D01*
X46947Y120496D01*
X46948Y120491D01*
X48235Y119746D01*
X49524Y119002D01*
X50811Y118256D01*
X52099Y117511D01*
X53388Y116765D01*
X54675Y116021D01*
X55963Y115276D01*
X57211Y114554D01*
X58458Y113833D01*
X59705Y113111D01*
X60952Y112388D01*
X62200Y111668D01*
X63448Y110945D01*
X64694Y110223D01*
X65942Y109501D01*
X67188Y108778D01*
X68262Y108142D01*
X69234Y107431D01*
X67875Y106852D01*
X66494Y106269D01*
X65115Y105688D01*
X62352Y104526D01*
X60971Y103947D01*
X59590Y103366D01*
X58209Y102786D01*
X56826Y102207D01*
X55442Y101626D01*
X54059Y101045D01*
X52677Y100462D01*
X51294Y99880D01*
X49911Y99297D01*
X48530Y98713D01*
X47150Y98124D01*
X47148Y98118D01*
X47143Y98115D01*
X47145Y98113D01*
X47144Y98110D01*
X47150Y98106D01*
X47155Y98101D01*
X48631Y98064D01*
X50111Y98050D01*
X51591Y98041D01*
X53072Y98033D01*
X54551Y98028D01*
X56031Y98022D01*
X57510Y98018D01*
X58990Y98015D01*
X60469Y98012D01*
X61949Y98009D01*
X63429Y98007D01*
X64910Y98007D01*
X66389Y98006D01*
X76830Y98006D01*
X78322Y98004D01*
X85781Y98004D01*
X85792Y98014D01*
G37*
G36*
X54313Y76877D02*
X54313Y76877D01*
X54314Y76876D01*
X55332Y76960D01*
X55675Y76989D01*
X55676Y76990D01*
X55677Y76989D01*
X56998Y77353D01*
X56998Y77354D01*
X56999Y77353D01*
X58250Y77914D01*
X58251Y77915D01*
X58252Y77915D01*
X59393Y78672D01*
X59394Y78673D01*
X59395Y78673D01*
X60395Y79610D01*
X60395Y79611D01*
X60396Y79611D01*
X61219Y80707D01*
X61219Y80708D01*
X61220Y80708D01*
X61841Y81929D01*
X61840Y81931D01*
X61841Y81931D01*
X62195Y83115D01*
X62195Y83117D01*
X62196Y83117D01*
X62208Y83202D01*
X62210Y83214D01*
X62212Y83226D01*
X62213Y83238D01*
X62215Y83250D01*
X62236Y83393D01*
X62238Y83405D01*
X62240Y83417D01*
X62241Y83429D01*
X62242Y83429D01*
X62243Y83441D01*
X62263Y83572D01*
X62264Y83584D01*
X62266Y83596D01*
X62268Y83608D01*
X62270Y83620D01*
X62289Y83751D01*
X62291Y83763D01*
X62292Y83775D01*
X62294Y83787D01*
X62296Y83799D01*
X62315Y83930D01*
X62317Y83942D01*
X62319Y83954D01*
X62320Y83966D01*
X62322Y83978D01*
X62343Y84121D01*
X62345Y84133D01*
X62347Y84145D01*
X62348Y84157D01*
X62350Y84169D01*
X62369Y84300D01*
X62371Y84312D01*
X62373Y84324D01*
X62375Y84336D01*
X62375Y84340D01*
X62375Y84341D01*
X62402Y85578D01*
X62402Y85579D01*
X62255Y86807D01*
X62253Y86808D01*
X62254Y86809D01*
X61791Y88260D01*
X61789Y88260D01*
X61790Y88262D01*
X61055Y89597D01*
X61053Y89597D01*
X61053Y89599D01*
X60088Y90778D01*
X60087Y90778D01*
X60087Y90780D01*
X58925Y91766D01*
X58923Y91766D01*
X58923Y91767D01*
X57600Y92524D01*
X57599Y92524D01*
X57599Y92525D01*
X56441Y92963D01*
X56440Y92962D01*
X56439Y92964D01*
X55333Y93149D01*
X55220Y93168D01*
X55219Y93168D01*
X55218Y93169D01*
X55153Y93171D01*
X55152Y93171D01*
X54781Y93183D01*
X54780Y93183D01*
X54409Y93195D01*
X54408Y93195D01*
X54037Y93206D01*
X54037Y93207D01*
X54036Y93207D01*
X53982Y93208D01*
X53981Y93208D01*
X53885Y93207D01*
X53883Y93207D01*
X53883Y93206D01*
X53226Y93195D01*
X53225Y93195D01*
X52756Y93186D01*
X52755Y93185D01*
X52754Y93186D01*
X51550Y92968D01*
X51549Y92967D01*
X51548Y92968D01*
X50258Y92488D01*
X50257Y92487D01*
X50256Y92488D01*
X49056Y91810D01*
X49055Y91808D01*
X49054Y91809D01*
X47986Y90939D01*
X47985Y90937D01*
X47984Y90937D01*
X47083Y89896D01*
X47083Y89894D01*
X47081Y89894D01*
X46370Y88715D01*
X46370Y88713D01*
X46369Y88713D01*
X45858Y87433D01*
X45859Y87432D01*
X45857Y87431D01*
X45634Y86256D01*
X45634Y86255D01*
X45633Y86254D01*
X45614Y85053D01*
X45615Y85052D01*
X45614Y85052D01*
X45645Y83819D01*
X45646Y83818D01*
X45645Y83816D01*
X45905Y82616D01*
X45906Y82615D01*
X45906Y82614D01*
X46407Y81390D01*
X46409Y81390D01*
X46408Y81389D01*
X47105Y80266D01*
X47107Y80266D01*
X47106Y80265D01*
X47981Y79274D01*
X47982Y79274D01*
X47982Y79273D01*
X49060Y78365D01*
X49062Y78365D01*
X49062Y78364D01*
X50278Y77652D01*
X50279Y77653D01*
X50280Y77651D01*
X51599Y77158D01*
X51601Y77158D01*
X51601Y77157D01*
X52948Y76932D01*
X52949Y76932D01*
X54313Y76876D01*
X54313Y76877D01*
G37*
G36*
X85897Y77167D02*
X85897Y77167D01*
X85896Y77168D01*
X85897Y77169D01*
X85897Y79782D01*
X85894Y79786D01*
X85894Y79790D01*
X85026Y80798D01*
X84159Y81807D01*
X83291Y82816D01*
X82423Y83825D01*
X81556Y84833D01*
X80684Y85848D01*
X79813Y86865D01*
X78943Y87881D01*
X78075Y88900D01*
X77233Y89910D01*
X78601Y89947D01*
X79994Y89959D01*
X81388Y89962D01*
X85568Y89962D01*
X85580Y89972D01*
X85579Y89973D01*
X85580Y89974D01*
X85580Y93042D01*
X85569Y93054D01*
X85568Y93054D01*
X72658Y93054D01*
X72646Y93044D01*
X72647Y93043D01*
X72646Y93042D01*
X72646Y90344D01*
X72650Y90340D01*
X72649Y90336D01*
X73513Y89331D01*
X74378Y88324D01*
X75243Y87320D01*
X76107Y86315D01*
X76972Y85310D01*
X77837Y84303D01*
X78701Y83298D01*
X79566Y82294D01*
X80431Y81287D01*
X81278Y80302D01*
X80498Y80297D01*
X80493Y80297D01*
X79862Y80292D01*
X78456Y80285D01*
X78451Y80285D01*
X78422Y80284D01*
X76981Y80275D01*
X76645Y80273D01*
X76641Y80273D01*
X75540Y80265D01*
X74840Y80261D01*
X74835Y80261D01*
X74098Y80256D01*
X72823Y80249D01*
X72817Y80249D01*
X72658Y80248D01*
X72646Y80237D01*
X72647Y80237D01*
X72646Y80236D01*
X72646Y77169D01*
X72657Y77157D01*
X72658Y77158D01*
X72658Y77157D01*
X85885Y77157D01*
X85897Y77167D01*
G37*
G36*
X12016Y76877D02*
X12016Y76877D01*
X12017Y76876D01*
X13400Y76990D01*
X13401Y76992D01*
X13402Y76991D01*
X14853Y77426D01*
X14854Y77427D01*
X14855Y77427D01*
X16206Y78111D01*
X16206Y78112D01*
X16208Y78112D01*
X17405Y79041D01*
X17405Y79042D01*
X17406Y79042D01*
X18399Y80185D01*
X18399Y80187D01*
X18400Y80187D01*
X19154Y81502D01*
X19154Y81503D01*
X19155Y81504D01*
X19657Y82932D01*
X19656Y82934D01*
X19657Y82935D01*
X19849Y84263D01*
X19849Y84264D01*
X19849Y84265D01*
X19870Y85608D01*
X19869Y85609D01*
X19870Y85609D01*
X19714Y86943D01*
X19713Y86944D01*
X19714Y86945D01*
X19277Y88287D01*
X19276Y88287D01*
X19276Y88289D01*
X18618Y89538D01*
X18616Y89538D01*
X18617Y89540D01*
X17755Y90657D01*
X17753Y90658D01*
X17753Y90659D01*
X16710Y91610D01*
X16709Y91610D01*
X16708Y91611D01*
X15508Y92352D01*
X15507Y92352D01*
X15507Y92353D01*
X14237Y92901D01*
X14235Y92900D01*
X14234Y92902D01*
X12880Y93170D01*
X12879Y93169D01*
X12878Y93170D01*
X12860Y93171D01*
X12444Y93183D01*
X12443Y93183D01*
X12028Y93195D01*
X12027Y93195D01*
X11611Y93206D01*
X11611Y93207D01*
X11610Y93207D01*
X11494Y93210D01*
X11493Y93210D01*
X11338Y93207D01*
X11337Y93207D01*
X11337Y93206D01*
X10784Y93195D01*
X10783Y93195D01*
X10242Y93183D01*
X10241Y93183D01*
X10240Y93183D01*
X9012Y92967D01*
X9011Y92966D01*
X9010Y92966D01*
X7921Y92566D01*
X7920Y92565D01*
X7919Y92566D01*
X6891Y92031D01*
X6890Y92029D01*
X6889Y92030D01*
X5951Y91349D01*
X5951Y91348D01*
X5950Y91348D01*
X5350Y90813D01*
X5348Y90797D01*
X5349Y90797D01*
X5349Y90796D01*
X5889Y90179D01*
X6428Y89561D01*
X6979Y88929D01*
X7527Y88293D01*
X7542Y88291D01*
X7543Y88291D01*
X8234Y88768D01*
X9484Y89521D01*
X10873Y89957D01*
X12327Y89979D01*
X13707Y89528D01*
X14860Y88645D01*
X15729Y87386D01*
X16181Y85924D01*
X16196Y84394D01*
X15789Y82917D01*
X14977Y81620D01*
X13797Y80651D01*
X12353Y80151D01*
X11693Y80147D01*
X11688Y80147D01*
X10854Y80142D01*
X9422Y80585D01*
X8154Y81395D01*
X7507Y81917D01*
X7491Y81916D01*
X6929Y81353D01*
X5238Y79657D01*
X5237Y79641D01*
X5239Y79641D01*
X5238Y79640D01*
X5639Y79262D01*
X6719Y78355D01*
X6720Y78355D01*
X6720Y78354D01*
X7928Y77629D01*
X7930Y77629D01*
X7930Y77628D01*
X9253Y77142D01*
X9254Y77142D01*
X9255Y77141D01*
X10627Y76930D01*
X10627Y76931D01*
X10628Y76930D01*
X12015Y76876D01*
X12016Y76877D01*
G37*
G36*
X28736Y76842D02*
X28736Y76842D01*
X28736Y76841D01*
X30000Y76959D01*
X30001Y76960D01*
X30002Y76959D01*
X31398Y77335D01*
X31398Y77337D01*
X31400Y77336D01*
X32700Y77965D01*
X32700Y77966D01*
X32702Y77966D01*
X33873Y78812D01*
X33873Y78813D01*
X33875Y78813D01*
X34880Y79851D01*
X34880Y79853D01*
X34881Y79853D01*
X35670Y81063D01*
X35670Y81064D01*
X35671Y81065D01*
X36223Y82309D01*
X36223Y82311D01*
X36224Y82311D01*
X36537Y83637D01*
X36536Y83638D01*
X36537Y83639D01*
X36617Y84999D01*
X36616Y85000D01*
X36617Y85001D01*
X36567Y86251D01*
X36566Y86252D01*
X36567Y86253D01*
X36323Y87479D01*
X36321Y87480D01*
X36322Y87481D01*
X35858Y88643D01*
X35857Y88644D01*
X35858Y88645D01*
X35177Y89824D01*
X35175Y89825D01*
X35176Y89826D01*
X34309Y90875D01*
X34307Y90875D01*
X34307Y90877D01*
X33275Y91764D01*
X33274Y91764D01*
X33274Y91765D01*
X32102Y92457D01*
X32101Y92457D01*
X32101Y92458D01*
X31012Y92896D01*
X31010Y92896D01*
X31010Y92897D01*
X29863Y93140D01*
X29862Y93139D01*
X29862Y93140D01*
X28690Y93229D01*
X28690Y93228D01*
X28689Y93229D01*
X28048Y93219D01*
X28046Y93219D01*
X27249Y93207D01*
X27247Y93207D01*
X27203Y93207D01*
X27202Y93206D01*
X27201Y93207D01*
X25738Y92957D01*
X25737Y92956D01*
X25735Y92957D01*
X24346Y92428D01*
X24346Y92427D01*
X24344Y92427D01*
X23206Y91737D01*
X23206Y91735D01*
X23205Y91735D01*
X22204Y90867D01*
X22203Y90858D01*
X22202Y90857D01*
X22203Y90856D01*
X22202Y90851D01*
X22203Y90851D01*
X22202Y90851D01*
X22684Y90157D01*
X23230Y89504D01*
X23764Y88893D01*
X24299Y88278D01*
X24305Y88278D01*
X24305Y88277D01*
X24308Y88277D01*
X24314Y88276D01*
X24315Y88277D01*
X24970Y88764D01*
X26216Y89517D01*
X27599Y89962D01*
X29049Y89984D01*
X30430Y89539D01*
X31532Y88736D01*
X32339Y87634D01*
X32818Y86353D01*
X32967Y84994D01*
X32938Y84781D01*
X32933Y84745D01*
X32898Y84483D01*
X32893Y84447D01*
X32858Y84184D01*
X32853Y84148D01*
X32818Y83886D01*
X32813Y83850D01*
X32785Y83638D01*
X32267Y82374D01*
X31419Y81302D01*
X30237Y80496D01*
X28858Y80115D01*
X28655Y80124D01*
X28654Y80124D01*
X28391Y80136D01*
X28128Y80148D01*
X27865Y80160D01*
X27602Y80172D01*
X27426Y80180D01*
X26067Y80637D01*
X24856Y81411D01*
X24226Y81917D01*
X24211Y81916D01*
X24210Y81916D01*
X23139Y80841D01*
X22582Y80265D01*
X22582Y80264D01*
X22581Y80264D01*
X22067Y79650D01*
X22067Y79634D01*
X22910Y78799D01*
X22911Y78799D01*
X22912Y78798D01*
X23867Y78079D01*
X23869Y78079D01*
X23869Y78077D01*
X24996Y77493D01*
X24997Y77494D01*
X24998Y77492D01*
X26209Y77108D01*
X26210Y77109D01*
X26211Y77108D01*
X27463Y76894D01*
X27464Y76894D01*
X27465Y76893D01*
X28735Y76841D01*
X28736Y76842D01*
G37*
%LPC*%
G36*
X53254Y80148D02*
X53254Y80148D01*
X51920Y80553D01*
X50772Y81348D01*
X49909Y82446D01*
X49383Y83738D01*
X49215Y85125D01*
X49413Y86508D01*
X49961Y87792D01*
X50860Y88836D01*
X52031Y89569D01*
X53350Y89973D01*
X54727Y89982D01*
X55327Y89785D01*
X56184Y89499D01*
X57406Y88576D01*
X58265Y87305D01*
X58700Y85833D01*
X58697Y84302D01*
X58246Y82837D01*
X57382Y81571D01*
X56171Y80634D01*
X55327Y80355D01*
X54718Y80156D01*
X54034Y80053D01*
X53254Y80148D01*
G37*
%LPD*%
G36*
X69178Y77167D02*
X69178Y77167D01*
X69177Y77168D01*
X69178Y77169D01*
X69178Y93047D01*
X69167Y93059D01*
X69166Y93058D01*
X69166Y93059D01*
X69088Y93058D01*
X69087Y93058D01*
X68369Y93046D01*
X68367Y93046D01*
X68305Y93045D01*
X67651Y93034D01*
X67649Y93034D01*
X67446Y93030D01*
X66984Y93022D01*
X66982Y93022D01*
X66586Y93015D01*
X66310Y93010D01*
X66308Y93010D01*
X65727Y93000D01*
X65715Y92990D01*
X65716Y92989D01*
X65715Y92988D01*
X65709Y91407D01*
X65704Y89825D01*
X65698Y88243D01*
X65693Y86661D01*
X65688Y85079D01*
X65682Y83497D01*
X65677Y81916D01*
X65671Y80333D01*
X65666Y78752D01*
X65661Y77169D01*
X65672Y77157D01*
X65673Y77158D01*
X65673Y77157D01*
X69166Y77157D01*
X69178Y77167D01*
G37*
G36*
X42935Y77167D02*
X42935Y77167D01*
X42934Y77168D01*
X42935Y77169D01*
X42935Y80766D01*
X42924Y80778D01*
X42924Y80777D01*
X42923Y80778D01*
X39326Y80778D01*
X39314Y80768D01*
X39314Y80767D01*
X39314Y80766D01*
X39314Y77169D01*
X39324Y77157D01*
X39325Y77158D01*
X39326Y77157D01*
X42923Y77157D01*
X42935Y77167D01*
G37*
D10*
X122047Y45044D02*
X120818Y43815D01*
X119590Y43815D01*
X118361Y45044D01*
X118361Y51187D01*
X119590Y51187D02*
X117132Y51187D01*
X114563Y51187D02*
X114563Y43815D01*
X114563Y51187D02*
X110877Y51187D01*
X109648Y49959D01*
X109648Y47501D01*
X110877Y46272D01*
X114563Y46272D01*
X107079Y48730D02*
X104621Y51187D01*
X104621Y43815D01*
X102164Y43815D02*
X107079Y43815D01*
X150543Y116713D02*
X151771Y117942D01*
X151771Y120399D01*
X150543Y121628D01*
X149314Y121628D01*
X148085Y120399D01*
X148085Y119170D01*
X148085Y120399D02*
X146856Y121628D01*
X145628Y121628D01*
X144399Y120399D01*
X144399Y117942D01*
X145628Y116713D01*
X146856Y124197D02*
X151771Y124197D01*
X146856Y124197D02*
X144399Y126655D01*
X146856Y129112D01*
X151771Y129112D01*
X150543Y131681D02*
X151771Y132910D01*
X151771Y135367D01*
X150543Y136596D01*
X149314Y136596D01*
X148085Y135367D01*
X148085Y134139D01*
X148085Y135367D02*
X146856Y136596D01*
X145628Y136596D01*
X144399Y135367D01*
X144399Y132910D01*
X145628Y131681D01*
X108337Y120399D02*
X107109Y121628D01*
X108337Y120399D02*
X108337Y117942D01*
X107109Y116713D01*
X102194Y116713D01*
X100965Y117942D01*
X100965Y120399D01*
X102194Y121628D01*
X104651Y121628D01*
X104651Y119170D01*
X100965Y124197D02*
X108337Y124197D01*
X100965Y129112D01*
X108337Y129112D01*
X108337Y131681D02*
X100965Y131681D01*
X100965Y135367D01*
X102194Y136596D01*
X107109Y136596D01*
X108337Y135367D01*
X108337Y131681D01*
X140081Y112992D02*
X140081Y108077D01*
X140081Y112992D02*
X137624Y115449D01*
X135166Y112992D01*
X135166Y108077D01*
X135166Y111763D02*
X140081Y111763D01*
X132597Y115449D02*
X132597Y108077D01*
X128911Y108077D01*
X127682Y109306D01*
X127682Y114221D01*
X128911Y115449D01*
X132597Y115449D01*
X125113Y115449D02*
X125113Y108077D01*
X121427Y108077D01*
X120198Y109306D01*
X120198Y114221D01*
X121427Y115449D01*
X125113Y115449D01*
X117629Y115449D02*
X117629Y108077D01*
X117629Y115449D02*
X113942Y115449D01*
X112714Y114221D01*
X112714Y111763D01*
X113942Y110534D01*
X117629Y110534D01*
X115171Y110534D02*
X112714Y108077D01*
D11*
X241295Y101100D02*
X247396Y101100D01*
X241295Y101100D02*
X241295Y99575D01*
X247396Y93473D01*
X247396Y91948D01*
X241295Y91948D01*
X238041Y98049D02*
X236516Y98049D01*
X236516Y91948D01*
X238041Y91948D02*
X234990Y91948D01*
X236516Y101100D02*
X236516Y102625D01*
X230279Y91948D02*
X227228Y91948D01*
X225703Y93473D01*
X225703Y96524D01*
X227228Y98049D01*
X230279Y98049D01*
X231804Y96524D01*
X231804Y93473D01*
X230279Y91948D01*
X213094Y91948D02*
X213094Y101100D01*
X213094Y91948D02*
X206992Y91948D01*
X203738Y98049D02*
X202213Y98049D01*
X202213Y91948D01*
X203738Y91948D02*
X200688Y91948D01*
X202213Y101100D02*
X202213Y102625D01*
X194451Y88897D02*
X192926Y88897D01*
X191401Y90423D01*
X191401Y98049D01*
X195976Y98049D01*
X197502Y96524D01*
X197502Y93473D01*
X195976Y91948D01*
X191401Y91948D01*
X188147Y91948D02*
X188147Y101100D01*
X186621Y98049D02*
X188147Y96524D01*
X186621Y98049D02*
X183571Y98049D01*
X182045Y96524D01*
X182045Y91948D01*
X177266Y93473D02*
X177266Y99575D01*
X177266Y93473D02*
X175741Y91948D01*
X175741Y98049D02*
X178791Y98049D01*
X158623Y101100D02*
X157098Y99575D01*
X158623Y101100D02*
X161674Y101100D01*
X163199Y99575D01*
X163199Y98049D01*
X161674Y96524D01*
X158623Y96524D01*
X157098Y94999D01*
X157098Y93473D01*
X158623Y91948D01*
X161674Y91948D01*
X163199Y93473D01*
X152319Y91948D02*
X149268Y91948D01*
X152319Y91948D02*
X153844Y93473D01*
X153844Y96524D01*
X152319Y98049D01*
X149268Y98049D01*
X147743Y96524D01*
X147743Y94999D01*
X153844Y94999D01*
X144489Y91948D02*
X144489Y98049D01*
X139913Y98049D01*
X138388Y96524D01*
X138388Y91948D01*
X135134Y91948D02*
X130558Y91948D01*
X129033Y93473D01*
X130558Y94999D01*
X133609Y94999D01*
X135134Y96524D01*
X133609Y98049D01*
X129033Y98049D01*
X124253Y91948D02*
X121203Y91948D01*
X119677Y93473D01*
X119677Y96524D01*
X121203Y98049D01*
X124253Y98049D01*
X125779Y96524D01*
X125779Y93473D01*
X124253Y91948D01*
X116423Y91948D02*
X116423Y98049D01*
X116423Y94999D02*
X113373Y98049D01*
X111848Y98049D01*
X245871Y85860D02*
X247396Y84335D01*
X245871Y85860D02*
X242820Y85860D01*
X241295Y84335D01*
X241295Y82809D01*
X242820Y81284D01*
X244345Y81284D01*
X242820Y81284D02*
X241295Y79759D01*
X241295Y78233D01*
X242820Y76708D01*
X245871Y76708D01*
X247396Y78233D01*
X238041Y78233D02*
X238041Y76708D01*
X238041Y78233D02*
X236516Y78233D01*
X236516Y76708D01*
X238041Y76708D01*
X233363Y84335D02*
X231838Y85860D01*
X228787Y85860D01*
X227262Y84335D01*
X227262Y82809D01*
X228787Y81284D01*
X230313Y81284D01*
X228787Y81284D02*
X227262Y79759D01*
X227262Y78233D01*
X228787Y76708D01*
X231838Y76708D01*
X233363Y78233D01*
X224008Y79759D02*
X224008Y85860D01*
X224008Y79759D02*
X220957Y76708D01*
X217907Y79759D01*
X217907Y85860D01*
D12*
X127000Y55324D02*
X101600Y55324D01*
X99060Y73104D02*
X99062Y73204D01*
X99068Y73303D01*
X99078Y73403D01*
X99091Y73501D01*
X99109Y73600D01*
X99130Y73697D01*
X99155Y73793D01*
X99184Y73889D01*
X99217Y73983D01*
X99253Y74076D01*
X99293Y74167D01*
X99337Y74257D01*
X99384Y74345D01*
X99434Y74431D01*
X99488Y74515D01*
X99545Y74597D01*
X99605Y74676D01*
X99669Y74754D01*
X99735Y74828D01*
X99804Y74900D01*
X99876Y74969D01*
X99950Y75035D01*
X100028Y75099D01*
X100107Y75159D01*
X100189Y75216D01*
X100273Y75270D01*
X100359Y75320D01*
X100447Y75367D01*
X100537Y75411D01*
X100628Y75451D01*
X100721Y75487D01*
X100815Y75520D01*
X100911Y75549D01*
X101007Y75574D01*
X101104Y75595D01*
X101203Y75613D01*
X101301Y75626D01*
X101401Y75636D01*
X101500Y75642D01*
X101600Y75644D01*
X127000Y75644D02*
X127100Y75642D01*
X127199Y75636D01*
X127299Y75626D01*
X127397Y75613D01*
X127496Y75595D01*
X127593Y75574D01*
X127689Y75549D01*
X127785Y75520D01*
X127879Y75487D01*
X127972Y75451D01*
X128063Y75411D01*
X128153Y75367D01*
X128241Y75320D01*
X128327Y75270D01*
X128411Y75216D01*
X128493Y75159D01*
X128572Y75099D01*
X128650Y75035D01*
X128724Y74969D01*
X128796Y74900D01*
X128865Y74828D01*
X128931Y74754D01*
X128995Y74676D01*
X129055Y74597D01*
X129112Y74515D01*
X129166Y74431D01*
X129216Y74345D01*
X129263Y74257D01*
X129307Y74167D01*
X129347Y74076D01*
X129383Y73983D01*
X129416Y73889D01*
X129445Y73793D01*
X129470Y73697D01*
X129491Y73600D01*
X129509Y73501D01*
X129522Y73403D01*
X129532Y73303D01*
X129538Y73204D01*
X129540Y73104D01*
X129540Y57864D02*
X129538Y57764D01*
X129532Y57665D01*
X129522Y57565D01*
X129509Y57467D01*
X129491Y57368D01*
X129470Y57271D01*
X129445Y57175D01*
X129416Y57079D01*
X129383Y56985D01*
X129347Y56892D01*
X129307Y56801D01*
X129263Y56711D01*
X129216Y56623D01*
X129166Y56537D01*
X129112Y56453D01*
X129055Y56371D01*
X128995Y56292D01*
X128931Y56214D01*
X128865Y56140D01*
X128796Y56068D01*
X128724Y55999D01*
X128650Y55933D01*
X128572Y55869D01*
X128493Y55809D01*
X128411Y55752D01*
X128327Y55698D01*
X128241Y55648D01*
X128153Y55601D01*
X128063Y55557D01*
X127972Y55517D01*
X127879Y55481D01*
X127785Y55448D01*
X127689Y55419D01*
X127593Y55394D01*
X127496Y55373D01*
X127397Y55355D01*
X127299Y55342D01*
X127199Y55332D01*
X127100Y55326D01*
X127000Y55324D01*
X101600Y55324D02*
X101500Y55326D01*
X101401Y55332D01*
X101301Y55342D01*
X101203Y55355D01*
X101104Y55373D01*
X101007Y55394D01*
X100911Y55419D01*
X100815Y55448D01*
X100721Y55481D01*
X100628Y55517D01*
X100537Y55557D01*
X100447Y55601D01*
X100359Y55648D01*
X100273Y55698D01*
X100189Y55752D01*
X100107Y55809D01*
X100028Y55869D01*
X99950Y55933D01*
X99876Y55999D01*
X99804Y56068D01*
X99735Y56140D01*
X99669Y56214D01*
X99605Y56292D01*
X99545Y56371D01*
X99488Y56453D01*
X99434Y56537D01*
X99384Y56623D01*
X99337Y56711D01*
X99293Y56801D01*
X99253Y56892D01*
X99217Y56985D01*
X99184Y57079D01*
X99155Y57175D01*
X99130Y57271D01*
X99109Y57368D01*
X99091Y57467D01*
X99078Y57565D01*
X99068Y57665D01*
X99062Y57764D01*
X99060Y57864D01*
X99060Y73104D01*
X129540Y73104D02*
X129540Y57864D01*
X127000Y75644D02*
X101600Y75644D01*
X113514Y138626D02*
X138914Y138626D01*
X141454Y120846D02*
X141452Y120746D01*
X141446Y120647D01*
X141436Y120547D01*
X141423Y120449D01*
X141405Y120350D01*
X141384Y120253D01*
X141359Y120157D01*
X141330Y120061D01*
X141297Y119967D01*
X141261Y119874D01*
X141221Y119783D01*
X141177Y119693D01*
X141130Y119605D01*
X141080Y119519D01*
X141026Y119435D01*
X140969Y119353D01*
X140909Y119274D01*
X140845Y119196D01*
X140779Y119122D01*
X140710Y119050D01*
X140638Y118981D01*
X140564Y118915D01*
X140486Y118851D01*
X140407Y118791D01*
X140325Y118734D01*
X140241Y118680D01*
X140155Y118630D01*
X140067Y118583D01*
X139977Y118539D01*
X139886Y118499D01*
X139793Y118463D01*
X139699Y118430D01*
X139603Y118401D01*
X139507Y118376D01*
X139410Y118355D01*
X139311Y118337D01*
X139213Y118324D01*
X139113Y118314D01*
X139014Y118308D01*
X138914Y118306D01*
X113514Y118306D02*
X113414Y118308D01*
X113315Y118314D01*
X113215Y118324D01*
X113117Y118337D01*
X113018Y118355D01*
X112921Y118376D01*
X112825Y118401D01*
X112729Y118430D01*
X112635Y118463D01*
X112542Y118499D01*
X112451Y118539D01*
X112361Y118583D01*
X112273Y118630D01*
X112187Y118680D01*
X112103Y118734D01*
X112021Y118791D01*
X111942Y118851D01*
X111864Y118915D01*
X111790Y118981D01*
X111718Y119050D01*
X111649Y119122D01*
X111583Y119196D01*
X111519Y119274D01*
X111459Y119353D01*
X111402Y119435D01*
X111348Y119519D01*
X111298Y119605D01*
X111251Y119693D01*
X111207Y119783D01*
X111167Y119874D01*
X111131Y119967D01*
X111098Y120061D01*
X111069Y120157D01*
X111044Y120253D01*
X111023Y120350D01*
X111005Y120449D01*
X110992Y120547D01*
X110982Y120647D01*
X110976Y120746D01*
X110974Y120846D01*
X110974Y136086D02*
X110976Y136186D01*
X110982Y136285D01*
X110992Y136385D01*
X111005Y136483D01*
X111023Y136582D01*
X111044Y136679D01*
X111069Y136775D01*
X111098Y136871D01*
X111131Y136965D01*
X111167Y137058D01*
X111207Y137149D01*
X111251Y137239D01*
X111298Y137327D01*
X111348Y137413D01*
X111402Y137497D01*
X111459Y137579D01*
X111519Y137658D01*
X111583Y137736D01*
X111649Y137810D01*
X111718Y137882D01*
X111790Y137951D01*
X111864Y138017D01*
X111942Y138081D01*
X112021Y138141D01*
X112103Y138198D01*
X112187Y138252D01*
X112273Y138302D01*
X112361Y138349D01*
X112451Y138393D01*
X112542Y138433D01*
X112635Y138469D01*
X112729Y138502D01*
X112825Y138531D01*
X112921Y138556D01*
X113018Y138577D01*
X113117Y138595D01*
X113215Y138608D01*
X113315Y138618D01*
X113414Y138624D01*
X113514Y138626D01*
X138914Y138626D02*
X139014Y138624D01*
X139113Y138618D01*
X139213Y138608D01*
X139311Y138595D01*
X139410Y138577D01*
X139507Y138556D01*
X139603Y138531D01*
X139699Y138502D01*
X139793Y138469D01*
X139886Y138433D01*
X139977Y138393D01*
X140067Y138349D01*
X140155Y138302D01*
X140241Y138252D01*
X140325Y138198D01*
X140407Y138141D01*
X140486Y138081D01*
X140564Y138017D01*
X140638Y137951D01*
X140710Y137882D01*
X140779Y137810D01*
X140845Y137736D01*
X140909Y137658D01*
X140969Y137579D01*
X141026Y137497D01*
X141080Y137413D01*
X141130Y137327D01*
X141177Y137239D01*
X141221Y137149D01*
X141261Y137058D01*
X141297Y136965D01*
X141330Y136871D01*
X141359Y136775D01*
X141384Y136679D01*
X141405Y136582D01*
X141423Y136483D01*
X141436Y136385D01*
X141446Y136285D01*
X141452Y136186D01*
X141454Y136086D01*
X141454Y120846D01*
X110974Y120846D02*
X110974Y136086D01*
X113514Y118306D02*
X138914Y118306D01*
D13*
X193910Y70782D03*
D14*
X193860Y70682D03*
D15*
X193860Y70582D03*
D16*
X193860Y70482D03*
D17*
X193910Y70382D03*
D18*
X193860Y70282D03*
D19*
X193910Y70182D03*
D20*
X193860Y70082D03*
D21*
X193860Y69982D03*
D22*
X193910Y69882D03*
D23*
X193910Y69782D03*
D24*
X193860Y69682D03*
D25*
X193860Y69582D03*
D26*
X193860Y69482D03*
D27*
X193910Y69432D03*
D28*
X193860Y69232D03*
D29*
X193860Y69032D03*
D30*
X193910Y68882D03*
D31*
X193860Y68782D03*
D32*
X193860Y68682D03*
D33*
X193910Y68582D03*
D34*
X193860Y68482D03*
D35*
X193860Y68382D03*
D36*
X193910Y68282D03*
D37*
X193860Y68182D03*
D38*
X193860Y68082D03*
D39*
X193860Y67982D03*
D40*
X193910Y67882D03*
D41*
X193860Y67782D03*
D42*
X193860Y67682D03*
D43*
X193910Y67582D03*
D44*
X193910Y67482D03*
D45*
X193910Y67382D03*
D46*
X193910Y67282D03*
D47*
X193860Y67132D03*
D48*
X193910Y66932D03*
D49*
X193910Y66732D03*
D50*
X193860Y66532D03*
D51*
X193910Y66382D03*
D52*
X193860Y66282D03*
D53*
X193860Y66182D03*
D54*
X193860Y66082D03*
D55*
X193860Y65982D03*
D56*
X193910Y65882D03*
D57*
X193860Y65782D03*
D58*
X193910Y65682D03*
D59*
X193860Y65582D03*
D60*
X193910Y65482D03*
D61*
X193910Y65382D03*
D62*
X193910Y65282D03*
D63*
X193910Y65182D03*
D64*
X193910Y65082D03*
D65*
X193860Y64982D03*
D66*
X193860Y64882D03*
D67*
X193860Y64782D03*
D68*
X193910Y64682D03*
D69*
X193910Y64632D03*
D70*
X193910Y64432D03*
D71*
X193910Y64232D03*
D72*
X193860Y64032D03*
D73*
X193910Y63882D03*
D74*
X193860Y63782D03*
D75*
X193860Y63682D03*
D76*
X193910Y63582D03*
D77*
X193860Y63482D03*
D78*
X193860Y63382D03*
D79*
X193910Y63282D03*
D80*
X193860Y63182D03*
D81*
X193910Y63082D03*
D82*
X193910Y62982D03*
D83*
X193860Y62882D03*
D84*
X193910Y62782D03*
D85*
X193860Y62682D03*
D86*
X193860Y62582D03*
X193860Y62482D03*
D87*
X193910Y62382D03*
D88*
X193910Y62282D03*
D89*
X193860Y62182D03*
D90*
X193910Y62082D03*
D91*
X193860Y61982D03*
D92*
X193910Y61882D03*
D93*
X193860Y61782D03*
D94*
X193910Y61682D03*
D95*
X193860Y61582D03*
D96*
X193910Y61482D03*
D97*
X193860Y61382D03*
D98*
X193910Y61282D03*
D99*
X193860Y61182D03*
X193860Y61082D03*
D100*
X193910Y60982D03*
D101*
X193910Y60882D03*
X193910Y60782D03*
D102*
X193860Y60682D03*
X193860Y60582D03*
D103*
X193910Y60482D03*
D104*
X193910Y60382D03*
X193910Y60282D03*
D105*
X193860Y60182D03*
X193860Y60082D03*
D106*
X193910Y59982D03*
D107*
X193860Y59882D03*
D108*
X193910Y59782D03*
D109*
X193860Y59682D03*
X193860Y59582D03*
D110*
X193910Y59482D03*
X193910Y59382D03*
D111*
X193860Y59282D03*
D112*
X193910Y59182D03*
D113*
X207560Y59082D03*
D114*
X180360Y59082D03*
D115*
X207610Y58982D03*
D114*
X180260Y58982D03*
D14*
X207660Y58882D03*
D114*
X180260Y58882D03*
D115*
X207710Y58782D03*
D114*
X180260Y58782D03*
D115*
X207710Y58682D03*
D114*
X180260Y58682D03*
D115*
X207710Y58582D03*
D114*
X180260Y58582D03*
D115*
X207710Y58482D03*
D116*
X180210Y58482D03*
D113*
X207760Y58382D03*
D116*
X180210Y58382D03*
D113*
X207760Y58282D03*
D116*
X180210Y58282D03*
D113*
X207760Y58182D03*
D117*
X180160Y58182D03*
D118*
X207810Y58082D03*
D117*
X180160Y58082D03*
D118*
X207810Y57982D03*
D117*
X180160Y57982D03*
D118*
X207810Y57882D03*
D117*
X180160Y57882D03*
D118*
X207810Y57782D03*
D117*
X180160Y57782D03*
D118*
X207810Y57682D03*
D119*
X180110Y57682D03*
D118*
X207810Y57582D03*
D119*
X180110Y57582D03*
D118*
X207810Y57482D03*
D119*
X180110Y57482D03*
D114*
X207860Y57382D03*
D119*
X180110Y57382D03*
D114*
X207860Y57282D03*
D119*
X180110Y57282D03*
D114*
X207860Y57182D03*
D120*
X180060Y57182D03*
D114*
X207860Y57082D03*
D120*
X180060Y57082D03*
D116*
X207910Y56982D03*
D120*
X180060Y56982D03*
D116*
X207910Y56882D03*
D120*
X180060Y56882D03*
D116*
X207910Y56782D03*
D120*
X180060Y56782D03*
D116*
X207910Y56682D03*
D120*
X180060Y56682D03*
D116*
X207910Y56582D03*
D120*
X180060Y56582D03*
D116*
X207910Y56482D03*
D121*
X180010Y56482D03*
D116*
X207910Y56382D03*
D121*
X180010Y56382D03*
D116*
X207910Y56282D03*
D121*
X180010Y56282D03*
D116*
X207910Y56182D03*
D121*
X180010Y56182D03*
D116*
X207910Y56082D03*
D121*
X180010Y56082D03*
D116*
X207910Y55982D03*
D122*
X201110Y55982D03*
D123*
X196460Y55982D03*
D124*
X191710Y55982D03*
D125*
X187060Y55982D03*
D121*
X180010Y55982D03*
D117*
X207960Y55882D03*
D123*
X201160Y55882D03*
D126*
X196510Y55882D03*
X191710Y55882D03*
D123*
X187060Y55882D03*
D121*
X180010Y55882D03*
D117*
X207960Y55782D03*
D126*
X201210Y55782D03*
D127*
X196460Y55782D03*
D126*
X191710Y55782D03*
X187010Y55782D03*
D121*
X180010Y55782D03*
D117*
X207960Y55682D03*
D126*
X201210Y55682D03*
D127*
X196460Y55682D03*
D126*
X191710Y55682D03*
X187010Y55682D03*
D121*
X180010Y55682D03*
D117*
X207960Y55582D03*
D126*
X201210Y55582D03*
D127*
X196460Y55582D03*
D126*
X191710Y55582D03*
X187010Y55582D03*
D121*
X180010Y55582D03*
D117*
X207960Y55482D03*
D126*
X201210Y55482D03*
D127*
X196460Y55482D03*
D126*
X191710Y55482D03*
X187010Y55482D03*
D121*
X180010Y55482D03*
D117*
X207960Y55382D03*
D126*
X201210Y55382D03*
D127*
X196460Y55382D03*
D126*
X191710Y55382D03*
X187010Y55382D03*
D121*
X180010Y55382D03*
D117*
X207960Y55282D03*
D126*
X201210Y55282D03*
D127*
X196460Y55282D03*
D126*
X191710Y55282D03*
X187010Y55282D03*
D121*
X180010Y55282D03*
D117*
X207960Y55182D03*
D126*
X201210Y55182D03*
D127*
X196460Y55182D03*
D126*
X191710Y55182D03*
X187010Y55182D03*
D128*
X179960Y55182D03*
D117*
X207960Y55082D03*
D126*
X201210Y55082D03*
D127*
X196460Y55082D03*
D126*
X191710Y55082D03*
X187010Y55082D03*
D128*
X179960Y55082D03*
D117*
X207960Y54982D03*
D126*
X201210Y54982D03*
D127*
X196460Y54982D03*
D126*
X191710Y54982D03*
X187010Y54982D03*
D128*
X179960Y54982D03*
D117*
X207960Y54882D03*
D126*
X201210Y54882D03*
D127*
X196460Y54882D03*
D126*
X191710Y54882D03*
X187010Y54882D03*
D128*
X179960Y54882D03*
D117*
X207960Y54782D03*
D126*
X201210Y54782D03*
D127*
X196460Y54782D03*
D126*
X191710Y54782D03*
X187010Y54782D03*
D128*
X179960Y54782D03*
D117*
X207960Y54682D03*
D126*
X201210Y54682D03*
D127*
X196460Y54682D03*
D126*
X191710Y54682D03*
X187010Y54682D03*
D128*
X179960Y54682D03*
D117*
X207960Y54582D03*
D126*
X201210Y54582D03*
D127*
X196460Y54582D03*
D126*
X191710Y54582D03*
X187010Y54582D03*
D128*
X179960Y54582D03*
D117*
X207960Y54482D03*
D126*
X201210Y54482D03*
D127*
X196460Y54482D03*
D126*
X191710Y54482D03*
X187010Y54482D03*
D128*
X179960Y54482D03*
D117*
X207960Y54382D03*
D126*
X201210Y54382D03*
D127*
X196460Y54382D03*
D126*
X191710Y54382D03*
X187010Y54382D03*
D128*
X179960Y54382D03*
D117*
X207960Y54282D03*
D126*
X201210Y54282D03*
D127*
X196460Y54282D03*
D126*
X191710Y54282D03*
X187010Y54282D03*
D128*
X179960Y54282D03*
D117*
X207960Y54182D03*
D126*
X201210Y54182D03*
D127*
X196460Y54182D03*
D126*
X191710Y54182D03*
X187010Y54182D03*
D128*
X179960Y54182D03*
D117*
X207960Y54082D03*
D126*
X201210Y54082D03*
D127*
X196460Y54082D03*
D126*
X191710Y54082D03*
X187010Y54082D03*
D128*
X179960Y54082D03*
D117*
X207960Y53982D03*
D126*
X201210Y53982D03*
D127*
X196460Y53982D03*
D126*
X191710Y53982D03*
X187010Y53982D03*
D128*
X179960Y53982D03*
D117*
X207960Y53882D03*
D126*
X201210Y53882D03*
D127*
X196460Y53882D03*
D126*
X191710Y53882D03*
X187010Y53882D03*
D128*
X179960Y53882D03*
D117*
X207960Y53782D03*
D126*
X201210Y53782D03*
D127*
X196460Y53782D03*
D126*
X191710Y53782D03*
X187010Y53782D03*
D121*
X180010Y53782D03*
D117*
X207960Y53682D03*
D126*
X201210Y53682D03*
D127*
X196460Y53682D03*
D126*
X191710Y53682D03*
X187010Y53682D03*
D121*
X180010Y53682D03*
D117*
X207960Y53582D03*
D126*
X201210Y53582D03*
D127*
X196460Y53582D03*
D126*
X191710Y53582D03*
X187010Y53582D03*
D121*
X180010Y53582D03*
D117*
X207960Y53482D03*
D126*
X201210Y53482D03*
D127*
X196460Y53482D03*
D126*
X191710Y53482D03*
X187010Y53482D03*
D121*
X180010Y53482D03*
D117*
X207960Y53382D03*
D126*
X201210Y53382D03*
D127*
X196460Y53382D03*
D126*
X191710Y53382D03*
X187010Y53382D03*
D121*
X180010Y53382D03*
D117*
X207960Y53282D03*
D126*
X201210Y53282D03*
D127*
X196460Y53282D03*
D126*
X191710Y53282D03*
X187010Y53282D03*
D121*
X180010Y53282D03*
D117*
X207960Y53182D03*
D126*
X201210Y53182D03*
D127*
X196460Y53182D03*
D126*
X191710Y53182D03*
X187010Y53182D03*
D121*
X180010Y53182D03*
D116*
X207910Y53082D03*
D126*
X201210Y53082D03*
D127*
X196460Y53082D03*
D126*
X191710Y53082D03*
X187010Y53082D03*
D121*
X180010Y53082D03*
D116*
X207910Y52882D03*
D124*
X201110Y52882D03*
D123*
X196460Y52882D03*
D126*
X191710Y52882D03*
D125*
X187060Y52882D03*
D121*
X180010Y52882D03*
D116*
X207910Y52682D03*
D121*
X180010Y52682D03*
D116*
X207910Y52582D03*
D120*
X180060Y52582D03*
D116*
X207910Y52382D03*
D120*
X180060Y52382D03*
D116*
X207910Y52182D03*
D120*
X180060Y52182D03*
D114*
X207860Y51982D03*
D120*
X180060Y51982D03*
D114*
X207860Y51782D03*
D119*
X180110Y51782D03*
D118*
X207810Y51582D03*
D119*
X180110Y51582D03*
D118*
X207810Y51382D03*
D119*
X180110Y51382D03*
D118*
X207810Y51182D03*
D117*
X180160Y51182D03*
D118*
X207810Y50982D03*
D117*
X180160Y50982D03*
D113*
X207760Y50782D03*
D116*
X180210Y50782D03*
D115*
X207710Y50582D03*
D116*
X180210Y50582D03*
D115*
X207710Y50382D03*
D114*
X180260Y50382D03*
D14*
X207660Y50182D03*
D114*
X180260Y50182D03*
D14*
X207660Y49982D03*
D118*
X180310Y49982D03*
D115*
X207510Y49882D03*
D118*
X180410Y49882D03*
D129*
X204460Y49682D03*
D119*
X194210Y49682D03*
D21*
X183560Y49682D03*
D129*
X204460Y49482D03*
D119*
X194210Y49482D03*
D21*
X183560Y49482D03*
D130*
X204410Y49282D03*
D120*
X194160Y49282D03*
D131*
X183560Y49282D03*
D130*
X204410Y49082D03*
D120*
X194160Y49082D03*
D132*
X183610Y49082D03*
D130*
X204310Y48882D03*
D120*
X194060Y48882D03*
D132*
X183610Y48882D03*
D130*
X204310Y48682D03*
D120*
X194060Y48682D03*
D133*
X183610Y48682D03*
D134*
X204210Y48482D03*
D120*
X193960Y48482D03*
D130*
X183610Y48482D03*
D20*
X204160Y48282D03*
D120*
X193960Y48282D03*
D134*
X183610Y48282D03*
X204110Y48082D03*
D120*
X193860Y48082D03*
D135*
X183610Y48082D03*
D136*
X204060Y47882D03*
D120*
X193860Y47882D03*
D19*
X183610Y47882D03*
D136*
X203960Y47682D03*
D121*
X193810Y47682D03*
D19*
X183610Y47682D03*
D135*
X203910Y47482D03*
D121*
X193710Y47482D03*
D137*
X183560Y47482D03*
D135*
X203810Y47382D03*
D121*
X193610Y47382D03*
D138*
X183560Y47382D03*
D139*
X203760Y47182D03*
D121*
X193610Y47182D03*
D140*
X183560Y47182D03*
D139*
X203660Y46982D03*
D121*
X193510Y46982D03*
D18*
X183560Y46982D03*
D19*
X203610Y46782D03*
D128*
X193460Y46782D03*
D141*
X183610Y46782D03*
D142*
X203560Y46582D03*
D128*
X193360Y46582D03*
D143*
X183560Y46582D03*
D142*
X203460Y46382D03*
D144*
X193310Y46382D03*
D145*
X183560Y46382D03*
D142*
X203360Y46182D03*
D128*
X193260Y46182D03*
D146*
X183510Y46182D03*
D147*
X203310Y45982D03*
D144*
X193110Y45982D03*
D148*
X183560Y45982D03*
D147*
X203210Y45782D03*
D149*
X193060Y45782D03*
D150*
X183510Y45782D03*
D151*
X203110Y45582D03*
D149*
X192960Y45582D03*
D16*
X183460Y45582D03*
D151*
X203010Y45382D03*
D149*
X192860Y45382D03*
D152*
X183410Y45382D03*
D151*
X202910Y45182D03*
D149*
X192760Y45182D03*
D153*
X183410Y45182D03*
D138*
X202760Y44982D03*
D149*
X192660Y44982D03*
D154*
X183360Y44982D03*
D155*
X202710Y44882D03*
D156*
X192560Y44882D03*
D149*
X183360Y44882D03*
D140*
X202560Y44682D03*
D156*
X192460Y44682D03*
D120*
X183260Y44682D03*
D140*
X202460Y44482D03*
D157*
X192310Y44482D03*
D118*
X183210Y44482D03*
D18*
X202360Y44282D03*
D157*
X192210Y44282D03*
D14*
X183160Y44282D03*
D18*
X202260Y44082D03*
D157*
X192110Y44082D03*
D158*
X183110Y44082D03*
D159*
X202110Y43882D03*
D154*
X191960Y43882D03*
D125*
X183060Y43882D03*
D159*
X202010Y43682D03*
D154*
X191860Y43682D03*
D160*
X182960Y43682D03*
D161*
X201860Y43482D03*
D162*
X191710Y43482D03*
D163*
X182860Y43482D03*
D141*
X201710Y43282D03*
D15*
X191560Y43282D03*
D164*
X182710Y43282D03*
D17*
X201610Y43082D03*
D15*
X191360Y43082D03*
D17*
X201410Y42882D03*
D153*
X191210Y42882D03*
D165*
X201310Y42682D03*
D166*
X191060Y42682D03*
D165*
X201110Y42482D03*
D167*
X190860Y42482D03*
D146*
X201010Y42282D03*
D167*
X190660Y42282D03*
D168*
X200760Y42182D03*
D152*
X190510Y42182D03*
D169*
X200610Y41982D03*
D170*
X190260Y41982D03*
D171*
X200410Y41782D03*
D16*
X190060Y41782D03*
D172*
X200360Y41582D03*
D16*
X189960Y41582D03*
D150*
X200110Y41382D03*
D173*
X189710Y41382D03*
X199910Y41182D03*
D150*
X189510Y41182D03*
D16*
X199760Y40982D03*
D148*
X189260Y40982D03*
D174*
X199510Y40782D03*
D168*
X188960Y40782D03*
D167*
X199260Y40582D03*
D175*
X188660Y40582D03*
D166*
X199060Y40382D03*
D145*
X188360Y40382D03*
D15*
X198760Y40182D03*
D161*
X187960Y40182D03*
D154*
X198560Y39982D03*
D140*
X187560Y39982D03*
D176*
X198210Y39782D03*
D142*
X187060Y39782D03*
D128*
X197960Y39682D03*
D177*
X186360Y39682D03*
D178*
X180260Y39682D03*
D117*
X197560Y39482D03*
D179*
X185060Y39482D03*
D113*
X197260Y39282D03*
D24*
X184960Y39282D03*
D115*
X197110Y39082D03*
D180*
X184910Y39082D03*
D127*
X196660Y38882D03*
D181*
X184760Y38882D03*
D182*
X196210Y38682D03*
D183*
X184660Y38682D03*
D184*
X195610Y38482D03*
D185*
X184510Y38482D03*
D186*
X184360Y38282D03*
D187*
X184210Y38082D03*
D131*
X184060Y37882D03*
D133*
X183910Y37682D03*
D20*
X183760Y37482D03*
D135*
X183610Y37282D03*
D147*
X183410Y37182D03*
D155*
X183210Y36982D03*
D18*
X183060Y36782D03*
D141*
X182910Y36582D03*
D175*
X182660Y36382D03*
D148*
X182460Y36182D03*
D16*
X182160Y35982D03*
D166*
X181860Y35782D03*
D176*
X181510Y35582D03*
D118*
X181010Y35382D03*
D188*
X180260Y35182D03*
D12*
X58166Y41402D02*
X55626Y47244D01*
X59436Y42164D02*
X58166Y41402D01*
X59436Y42164D02*
X62484Y40132D01*
X64770Y42418D01*
X62738Y45720D01*
X64008Y49022D01*
X67818Y49784D01*
X67818Y53086D01*
X64008Y53594D01*
X62484Y56896D01*
X64770Y60198D01*
X62484Y62484D01*
X59182Y60198D01*
X56134Y61468D01*
X55372Y65532D01*
X52070Y65532D01*
X51308Y61468D01*
X48260Y60198D01*
X44704Y62484D01*
X42418Y60198D01*
X44704Y56896D01*
X43434Y53848D01*
X39624Y53086D01*
X39624Y49784D01*
X43180Y49022D01*
X44704Y45720D01*
X42418Y42418D01*
X44704Y40132D01*
X47752Y42164D01*
X49276Y41402D01*
X51562Y47244D01*
X51443Y47306D01*
X51325Y47371D01*
X51210Y47440D01*
X51096Y47512D01*
X50985Y47588D01*
X50876Y47667D01*
X50769Y47749D01*
X50665Y47834D01*
X50564Y47922D01*
X50465Y48013D01*
X50369Y48107D01*
X50276Y48204D01*
X50185Y48303D01*
X50098Y48405D01*
X50013Y48510D01*
X49932Y48617D01*
X49854Y48727D01*
X49780Y48839D01*
X49708Y48953D01*
X49640Y49069D01*
X49576Y49187D01*
X49515Y49306D01*
X49457Y49428D01*
X49403Y49551D01*
X49353Y49676D01*
X49307Y49802D01*
X49264Y49930D01*
X49225Y50058D01*
X49190Y50188D01*
X49159Y50319D01*
X49132Y50451D01*
X49108Y50583D01*
X49089Y50716D01*
X49073Y50850D01*
X49062Y50983D01*
X49054Y51118D01*
X49050Y51252D01*
X49051Y51387D01*
X49055Y51521D01*
X49063Y51655D01*
X49076Y51789D01*
X49092Y51923D01*
X49112Y52055D01*
X49136Y52188D01*
X49164Y52319D01*
X49196Y52450D01*
X49232Y52580D01*
X49271Y52708D01*
X49314Y52835D01*
X49361Y52961D01*
X49412Y53086D01*
X49467Y53209D01*
X49525Y53330D01*
X49586Y53449D01*
X49651Y53567D01*
X49720Y53683D01*
X49792Y53796D01*
X49867Y53908D01*
X49946Y54017D01*
X50027Y54124D01*
X50112Y54228D01*
X50200Y54330D01*
X50291Y54429D01*
X50385Y54525D01*
X50482Y54619D01*
X50581Y54709D01*
X50683Y54797D01*
X50787Y54882D01*
X50894Y54963D01*
X51004Y55041D01*
X51115Y55116D01*
X51229Y55188D01*
X51345Y55256D01*
X51463Y55321D01*
X51582Y55382D01*
X51704Y55440D01*
X51827Y55494D01*
X51951Y55545D01*
X52077Y55591D01*
X52205Y55634D01*
X52333Y55674D01*
X52463Y55709D01*
X52594Y55741D01*
X52725Y55768D01*
X52858Y55792D01*
X52991Y55812D01*
X53124Y55828D01*
X53258Y55840D01*
X53392Y55848D01*
X53527Y55852D01*
X53661Y55852D01*
X53796Y55848D01*
X53930Y55840D01*
X54064Y55828D01*
X54197Y55812D01*
X54330Y55792D01*
X54463Y55768D01*
X54594Y55741D01*
X54725Y55709D01*
X54855Y55674D01*
X54983Y55634D01*
X55111Y55591D01*
X55237Y55545D01*
X55361Y55494D01*
X55484Y55440D01*
X55606Y55382D01*
X55725Y55321D01*
X55843Y55256D01*
X55959Y55188D01*
X56073Y55116D01*
X56184Y55041D01*
X56294Y54963D01*
X56401Y54882D01*
X56505Y54797D01*
X56607Y54709D01*
X56706Y54619D01*
X56803Y54525D01*
X56897Y54429D01*
X56988Y54330D01*
X57076Y54228D01*
X57161Y54124D01*
X57242Y54017D01*
X57321Y53908D01*
X57396Y53796D01*
X57468Y53683D01*
X57537Y53567D01*
X57602Y53449D01*
X57663Y53330D01*
X57721Y53209D01*
X57776Y53086D01*
X57827Y52961D01*
X57874Y52835D01*
X57917Y52708D01*
X57956Y52580D01*
X57992Y52450D01*
X58024Y52319D01*
X58052Y52188D01*
X58076Y52055D01*
X58096Y51923D01*
X58112Y51789D01*
X58125Y51655D01*
X58133Y51521D01*
X58137Y51387D01*
X58138Y51252D01*
X58134Y51118D01*
X58126Y50983D01*
X58115Y50850D01*
X58099Y50716D01*
X58080Y50583D01*
X58056Y50451D01*
X58029Y50319D01*
X57998Y50188D01*
X57963Y50058D01*
X57924Y49930D01*
X57881Y49802D01*
X57835Y49676D01*
X57785Y49551D01*
X57731Y49428D01*
X57673Y49306D01*
X57612Y49187D01*
X57548Y49069D01*
X57480Y48953D01*
X57408Y48839D01*
X57334Y48727D01*
X57256Y48617D01*
X57175Y48510D01*
X57090Y48405D01*
X57003Y48303D01*
X56912Y48204D01*
X56819Y48107D01*
X56723Y48013D01*
X56624Y47922D01*
X56523Y47834D01*
X56419Y47749D01*
X56312Y47667D01*
X56203Y47588D01*
X56092Y47512D01*
X55978Y47440D01*
X55863Y47371D01*
X55745Y47306D01*
X55626Y47244D01*
M02*
