G04 EAGLE Gerber RS-274X export*
G75*
%MOMM*%
%FSLAX34Y34*%
%LPD*%
%AMOC8*
5,1,8,0,0,1.08239X$1,22.5*%
G01*
%ADD10C,0.101600*%
%ADD11C,0.127000*%
%ADD12C,0.400000*%
%ADD13C,0.254000*%
%ADD14C,0.300000*%


D10*
X73146Y37089D02*
X71620Y35564D01*
X71620Y32513D01*
X73146Y30988D01*
X74671Y30988D01*
X76196Y32513D01*
X76196Y35564D01*
X77721Y37089D01*
X79247Y37089D01*
X80772Y35564D01*
X80772Y32513D01*
X79247Y30988D01*
X71620Y44919D02*
X73146Y46444D01*
X71620Y44919D02*
X71620Y41868D01*
X73146Y40343D01*
X79247Y40343D01*
X80772Y41868D01*
X80772Y44919D01*
X79247Y46444D01*
X80772Y49698D02*
X71620Y49698D01*
X80772Y49698D02*
X80772Y55800D01*
X98546Y37089D02*
X97020Y35564D01*
X97020Y32513D01*
X98546Y30988D01*
X100071Y30988D01*
X101596Y32513D01*
X101596Y35564D01*
X103121Y37089D01*
X104647Y37089D01*
X106172Y35564D01*
X106172Y32513D01*
X104647Y30988D01*
X106172Y40343D02*
X97020Y40343D01*
X106172Y40343D02*
X106172Y44919D01*
X104647Y46444D01*
X98546Y46444D01*
X97020Y44919D01*
X97020Y40343D01*
X100071Y49698D02*
X106172Y49698D01*
X100071Y49698D02*
X97020Y52749D01*
X100071Y55800D01*
X106172Y55800D01*
X101596Y55800D02*
X101596Y49698D01*
X122420Y32513D02*
X123946Y30988D01*
X122420Y32513D02*
X122420Y35564D01*
X123946Y37089D01*
X125471Y37089D01*
X126996Y35564D01*
X126996Y34039D01*
X126996Y35564D02*
X128521Y37089D01*
X130047Y37089D01*
X131572Y35564D01*
X131572Y32513D01*
X130047Y30988D01*
X128521Y40343D02*
X122420Y40343D01*
X128521Y40343D02*
X131572Y43394D01*
X128521Y46444D01*
X122420Y46444D01*
X123946Y49698D02*
X122420Y51224D01*
X122420Y54274D01*
X123946Y55800D01*
X125471Y55800D01*
X126996Y54274D01*
X126996Y52749D01*
X126996Y54274D02*
X128521Y55800D01*
X130047Y55800D01*
X131572Y54274D01*
X131572Y51224D01*
X130047Y49698D01*
X147820Y35564D02*
X149346Y37089D01*
X147820Y35564D02*
X147820Y32513D01*
X149346Y30988D01*
X155447Y30988D01*
X156972Y32513D01*
X156972Y35564D01*
X155447Y37089D01*
X152396Y37089D01*
X152396Y34039D01*
X156972Y40343D02*
X147820Y40343D01*
X156972Y46444D01*
X147820Y46444D01*
X147820Y49698D02*
X156972Y49698D01*
X156972Y54274D01*
X155447Y55800D01*
X149346Y55800D01*
X147820Y54274D01*
X147820Y49698D01*
X182372Y34039D02*
X182372Y30988D01*
X182372Y32513D02*
X173220Y32513D01*
X173220Y30988D02*
X173220Y34039D01*
X173220Y37225D02*
X182372Y37225D01*
X182372Y43326D02*
X173220Y37225D01*
X173220Y43326D02*
X182372Y43326D01*
X182372Y49631D02*
X173220Y49631D01*
X173220Y52681D02*
X173220Y46580D01*
X69349Y118110D02*
X63247Y118110D01*
X69349Y118110D02*
X70874Y116585D01*
X70874Y113534D01*
X69349Y112009D01*
X63247Y112009D01*
X61722Y113534D01*
X61722Y116585D01*
X63247Y118110D01*
X64773Y115059D02*
X61722Y112009D01*
X63247Y108755D02*
X67823Y108755D01*
X63247Y108755D02*
X61722Y107230D01*
X63247Y105704D01*
X61722Y104179D01*
X63247Y102654D01*
X67823Y102654D01*
X67823Y99400D02*
X67823Y97874D01*
X61722Y97874D01*
X61722Y96349D02*
X61722Y99400D01*
X70874Y97874D02*
X72399Y97874D01*
X67823Y93163D02*
X67823Y91638D01*
X61722Y91638D01*
X61722Y93163D02*
X61722Y90112D01*
X70874Y91638D02*
X72399Y91638D01*
X67823Y85401D02*
X67823Y80825D01*
X67823Y85401D02*
X66298Y86926D01*
X63247Y86926D01*
X61722Y85401D01*
X61722Y80825D01*
X183382Y81534D02*
X189483Y81534D01*
X183382Y81534D02*
X181856Y83059D01*
X181856Y86110D01*
X183382Y87635D01*
X189483Y87635D01*
X191008Y86110D01*
X191008Y83059D01*
X189483Y81534D01*
X187957Y84585D02*
X191008Y87635D01*
X189483Y90889D02*
X184907Y90889D01*
X189483Y90889D02*
X191008Y92414D01*
X189483Y93940D01*
X191008Y95465D01*
X189483Y96990D01*
X184907Y96990D01*
X184907Y100244D02*
X184907Y101770D01*
X191008Y101770D01*
X191008Y103295D02*
X191008Y100244D01*
X181856Y101770D02*
X180331Y101770D01*
X184907Y106481D02*
X184907Y108006D01*
X191008Y108006D01*
X191008Y106481D02*
X191008Y109532D01*
X181856Y108006D02*
X180331Y108006D01*
X184907Y114243D02*
X184907Y118819D01*
X184907Y114243D02*
X186432Y112718D01*
X189483Y112718D01*
X191008Y114243D01*
X191008Y118819D01*
D11*
X141246Y135768D02*
X113306Y135768D01*
X141246Y135768D02*
X141246Y123068D01*
X113306Y123068D01*
X113306Y135768D01*
X63100Y27700D02*
X63100Y2300D01*
X63100Y27700D02*
X190100Y27700D01*
X190100Y2300D01*
X63100Y2300D01*
D12*
X53586Y125000D02*
X53588Y125075D01*
X53594Y125149D01*
X53604Y125223D01*
X53617Y125296D01*
X53635Y125369D01*
X53656Y125440D01*
X53681Y125511D01*
X53710Y125580D01*
X53743Y125647D01*
X53779Y125712D01*
X53818Y125776D01*
X53860Y125837D01*
X53906Y125896D01*
X53955Y125953D01*
X54007Y126006D01*
X54061Y126057D01*
X54118Y126106D01*
X54178Y126150D01*
X54240Y126192D01*
X54304Y126231D01*
X54370Y126266D01*
X54437Y126297D01*
X54507Y126325D01*
X54577Y126349D01*
X54649Y126370D01*
X54722Y126386D01*
X54795Y126399D01*
X54870Y126408D01*
X54944Y126413D01*
X55019Y126414D01*
X55093Y126411D01*
X55168Y126404D01*
X55241Y126393D01*
X55315Y126379D01*
X55387Y126360D01*
X55458Y126338D01*
X55528Y126312D01*
X55597Y126282D01*
X55663Y126249D01*
X55728Y126212D01*
X55791Y126172D01*
X55852Y126128D01*
X55910Y126082D01*
X55966Y126032D01*
X56019Y125980D01*
X56070Y125925D01*
X56117Y125867D01*
X56161Y125807D01*
X56202Y125744D01*
X56240Y125680D01*
X56274Y125614D01*
X56305Y125545D01*
X56332Y125476D01*
X56355Y125405D01*
X56374Y125333D01*
X56390Y125260D01*
X56402Y125186D01*
X56410Y125112D01*
X56414Y125037D01*
X56414Y124963D01*
X56410Y124888D01*
X56402Y124814D01*
X56390Y124740D01*
X56374Y124667D01*
X56355Y124595D01*
X56332Y124524D01*
X56305Y124455D01*
X56274Y124386D01*
X56240Y124320D01*
X56202Y124256D01*
X56161Y124193D01*
X56117Y124133D01*
X56070Y124075D01*
X56019Y124020D01*
X55966Y123968D01*
X55910Y123918D01*
X55852Y123872D01*
X55791Y123828D01*
X55728Y123788D01*
X55663Y123751D01*
X55597Y123718D01*
X55528Y123688D01*
X55458Y123662D01*
X55387Y123640D01*
X55315Y123621D01*
X55241Y123607D01*
X55168Y123596D01*
X55093Y123589D01*
X55019Y123586D01*
X54944Y123587D01*
X54870Y123592D01*
X54795Y123601D01*
X54722Y123614D01*
X54649Y123630D01*
X54577Y123651D01*
X54507Y123675D01*
X54437Y123703D01*
X54370Y123734D01*
X54304Y123769D01*
X54240Y123808D01*
X54178Y123850D01*
X54118Y123894D01*
X54061Y123943D01*
X54007Y123994D01*
X53955Y124047D01*
X53906Y124104D01*
X53860Y124163D01*
X53818Y124224D01*
X53779Y124288D01*
X53743Y124353D01*
X53710Y124420D01*
X53681Y124489D01*
X53656Y124560D01*
X53635Y124631D01*
X53617Y124704D01*
X53604Y124777D01*
X53594Y124851D01*
X53588Y124925D01*
X53586Y125000D01*
D13*
X6000Y115000D02*
X6000Y85000D01*
X32000Y130000D02*
X48500Y130000D01*
X48500Y77500D02*
X48500Y70000D01*
X32000Y70000D01*
X48500Y122500D02*
X48500Y130000D01*
D12*
X196786Y75000D02*
X196788Y75075D01*
X196794Y75149D01*
X196804Y75223D01*
X196817Y75296D01*
X196835Y75369D01*
X196856Y75440D01*
X196881Y75511D01*
X196910Y75580D01*
X196943Y75647D01*
X196979Y75712D01*
X197018Y75776D01*
X197060Y75837D01*
X197106Y75896D01*
X197155Y75953D01*
X197207Y76006D01*
X197261Y76057D01*
X197318Y76106D01*
X197378Y76150D01*
X197440Y76192D01*
X197504Y76231D01*
X197570Y76266D01*
X197637Y76297D01*
X197707Y76325D01*
X197777Y76349D01*
X197849Y76370D01*
X197922Y76386D01*
X197995Y76399D01*
X198070Y76408D01*
X198144Y76413D01*
X198219Y76414D01*
X198293Y76411D01*
X198368Y76404D01*
X198441Y76393D01*
X198515Y76379D01*
X198587Y76360D01*
X198658Y76338D01*
X198728Y76312D01*
X198797Y76282D01*
X198863Y76249D01*
X198928Y76212D01*
X198991Y76172D01*
X199052Y76128D01*
X199110Y76082D01*
X199166Y76032D01*
X199219Y75980D01*
X199270Y75925D01*
X199317Y75867D01*
X199361Y75807D01*
X199402Y75744D01*
X199440Y75680D01*
X199474Y75614D01*
X199505Y75545D01*
X199532Y75476D01*
X199555Y75405D01*
X199574Y75333D01*
X199590Y75260D01*
X199602Y75186D01*
X199610Y75112D01*
X199614Y75037D01*
X199614Y74963D01*
X199610Y74888D01*
X199602Y74814D01*
X199590Y74740D01*
X199574Y74667D01*
X199555Y74595D01*
X199532Y74524D01*
X199505Y74455D01*
X199474Y74386D01*
X199440Y74320D01*
X199402Y74256D01*
X199361Y74193D01*
X199317Y74133D01*
X199270Y74075D01*
X199219Y74020D01*
X199166Y73968D01*
X199110Y73918D01*
X199052Y73872D01*
X198991Y73828D01*
X198928Y73788D01*
X198863Y73751D01*
X198797Y73718D01*
X198728Y73688D01*
X198658Y73662D01*
X198587Y73640D01*
X198515Y73621D01*
X198441Y73607D01*
X198368Y73596D01*
X198293Y73589D01*
X198219Y73586D01*
X198144Y73587D01*
X198070Y73592D01*
X197995Y73601D01*
X197922Y73614D01*
X197849Y73630D01*
X197777Y73651D01*
X197707Y73675D01*
X197637Y73703D01*
X197570Y73734D01*
X197504Y73769D01*
X197440Y73808D01*
X197378Y73850D01*
X197318Y73894D01*
X197261Y73943D01*
X197207Y73994D01*
X197155Y74047D01*
X197106Y74104D01*
X197060Y74163D01*
X197018Y74224D01*
X196979Y74288D01*
X196943Y74353D01*
X196910Y74420D01*
X196881Y74489D01*
X196856Y74560D01*
X196835Y74631D01*
X196817Y74704D01*
X196804Y74777D01*
X196794Y74851D01*
X196788Y74925D01*
X196786Y75000D01*
D13*
X247200Y85000D02*
X247200Y115000D01*
X221200Y70000D02*
X204700Y70000D01*
X204700Y122500D02*
X204700Y130000D01*
X221200Y130000D01*
X204700Y77500D02*
X204700Y70000D01*
D11*
X124740Y60334D02*
X96800Y60334D01*
X96800Y73034D01*
X124740Y73034D01*
X124740Y60334D01*
X128444Y73030D02*
X156384Y73030D01*
X156384Y60330D01*
X128444Y60330D01*
X128444Y73030D01*
D14*
X131770Y118064D02*
X131772Y118127D01*
X131778Y118189D01*
X131788Y118251D01*
X131801Y118313D01*
X131819Y118373D01*
X131840Y118432D01*
X131865Y118490D01*
X131894Y118546D01*
X131926Y118600D01*
X131961Y118652D01*
X131999Y118701D01*
X132041Y118749D01*
X132085Y118793D01*
X132133Y118835D01*
X132182Y118873D01*
X132234Y118908D01*
X132288Y118940D01*
X132344Y118969D01*
X132402Y118994D01*
X132461Y119015D01*
X132521Y119033D01*
X132583Y119046D01*
X132645Y119056D01*
X132707Y119062D01*
X132770Y119064D01*
X132833Y119062D01*
X132895Y119056D01*
X132957Y119046D01*
X133019Y119033D01*
X133079Y119015D01*
X133138Y118994D01*
X133196Y118969D01*
X133252Y118940D01*
X133306Y118908D01*
X133358Y118873D01*
X133407Y118835D01*
X133455Y118793D01*
X133499Y118749D01*
X133541Y118701D01*
X133579Y118652D01*
X133614Y118600D01*
X133646Y118546D01*
X133675Y118490D01*
X133700Y118432D01*
X133721Y118373D01*
X133739Y118313D01*
X133752Y118251D01*
X133762Y118189D01*
X133768Y118127D01*
X133770Y118064D01*
X133768Y118001D01*
X133762Y117939D01*
X133752Y117877D01*
X133739Y117815D01*
X133721Y117755D01*
X133700Y117696D01*
X133675Y117638D01*
X133646Y117582D01*
X133614Y117528D01*
X133579Y117476D01*
X133541Y117427D01*
X133499Y117379D01*
X133455Y117335D01*
X133407Y117293D01*
X133358Y117255D01*
X133306Y117220D01*
X133252Y117188D01*
X133196Y117159D01*
X133138Y117134D01*
X133079Y117113D01*
X133019Y117095D01*
X132957Y117082D01*
X132895Y117072D01*
X132833Y117066D01*
X132770Y117064D01*
X132707Y117066D01*
X132645Y117072D01*
X132583Y117082D01*
X132521Y117095D01*
X132461Y117113D01*
X132402Y117134D01*
X132344Y117159D01*
X132288Y117188D01*
X132234Y117220D01*
X132182Y117255D01*
X132133Y117293D01*
X132085Y117335D01*
X132041Y117379D01*
X131999Y117427D01*
X131961Y117476D01*
X131926Y117528D01*
X131894Y117582D01*
X131865Y117638D01*
X131840Y117696D01*
X131819Y117755D01*
X131801Y117815D01*
X131788Y117877D01*
X131778Y117939D01*
X131772Y118001D01*
X131770Y118064D01*
D11*
X136270Y110064D02*
X139270Y110064D01*
X139270Y88064D01*
X136270Y88064D01*
X116270Y110064D02*
X113270Y110064D01*
X113270Y88064D01*
X116270Y88064D01*
M02*
